<svg width="24" height="22" viewBox="0 0 24 22" fill="none" xmlns="http://www.w3.org/2000/svg">
<path d="M0.420841 10.5798L5.93856 12.6436L8.08952 19.5854C8.18304 20.0545 8.74416 20.1483 9.11824 19.8668L12.2044 17.334C12.485 17.0526 12.9526 17.0526 13.3267 17.334L18.8443 21.3678C19.2184 21.6492 19.7796 21.4616 19.8731 20.9925L23.988 1.29282C24.0815 0.823779 23.6139 0.354742 23.1463 0.542359L0.420841 9.36033C-0.14028 9.54795 -0.14028 10.3922 0.420841 10.5798ZM7.80897 11.6117L18.6573 4.95134C18.8443 4.85753 19.0314 5.13896 18.8443 5.23277L9.95992 13.5817C9.67936 13.8631 9.39879 14.2384 9.39879 14.7074L9.11824 16.9588C9.11824 17.2402 8.65064 17.334 8.55712 16.9588L7.43486 12.8312C7.1543 12.3622 7.34136 11.7993 7.80897 11.6117Z" fill="#009997"/>
</svg>
