<svg width="24" height="18" viewBox="0 0 24 18" fill="none" xmlns="http://www.w3.org/2000/svg">
<path d="M24 2.1923C23.1429 2.53845 22.1633 2.76923 21.1837 2.88461C22.1633 2.30769 23.0204 1.38462 23.3878 0.346157C22.4082 0.92308 21.4286 1.26923 20.2041 1.5C19.3469 0.576926 18 0 16.6531 0C13.9592 0 11.7551 2.07692 11.7551 4.61538C11.7551 4.96154 11.7551 5.30768 11.8776 5.65384C7.83673 5.42307 4.16326 3.57692 1.71428 0.807688C1.34693 1.5 1.10203 2.30769 1.10203 3.11538C1.10203 4.73076 1.95918 6.11538 3.30612 6.92307C2.44898 6.92307 1.71428 6.69231 1.10203 6.34615C1.10203 8.53846 2.81632 10.5 5.0204 10.8461C4.65305 10.9615 4.16327 10.9615 3.67347 10.9615C3.30612 10.9615 3.06122 10.9615 2.69388 10.8461C3.30612 12.6923 5.14286 14.0769 7.34694 14.0769C5.63266 15.3461 3.55102 16.0384 1.22449 16.0384C0.857143 16.0384 0.489796 16.0385 0 15.9231C2.20408 17.1923 4.77551 18 7.59184 18C16.6531 18 21.551 10.9615 21.551 4.84615V4.26923C22.5306 3.92307 23.3878 3.11538 24 2.1923Z" fill="#009997"/>
</svg>
