<svg width="1926" height="144" viewBox="0 0 1926 144" fill="none" xmlns="http://www.w3.org/2000/svg">
<path d="M9.91613 60.3962C9.91613 61.24 10.6003 61.9241 11.4442 61.9241H24.8348L34.3033 71.3917C34.9001 71.9884 35.8676 71.9884 36.4643 71.3917L45.9329 61.9241H59.3235C60.1674 61.9241 60.8515 61.24 60.8515 60.3962V47.0069L70.3201 37.5393C70.9168 36.9426 70.9168 35.9752 70.3201 35.3785L60.8515 25.9109V12.5217C60.8515 11.6778 60.1674 10.9937 59.3235 10.9937H45.9329L36.4643 1.52613C35.8676 0.929442 34.9001 0.929441 34.3033 1.52613L24.8348 10.9937H11.4442C10.6003 10.9937 9.91613 11.6778 9.91613 12.5217V25.9109L0.447559 35.3785C-0.149186 35.9752 -0.149187 36.9426 0.447558 37.5393L9.91613 47.0069V60.3962Z" stroke="#009592"/>
<path d="M31.8148 39.8007C31.8148 39.9191 31.9107 40.0151 32.0291 40.0151H33.9077L35.236 41.3433C35.3197 41.427 35.4554 41.427 35.5392 41.3433L36.8675 40.0151H38.746C38.8644 40.0151 38.9604 39.9191 38.9604 39.8007V37.9224L40.2887 36.5942C40.3724 36.5105 40.3724 36.3748 40.2887 36.2911L38.9604 34.9629V33.0845C38.9604 32.9662 38.8644 32.8702 38.746 32.8702H36.8675L35.5392 31.542C35.4554 31.4583 35.3197 31.4583 35.236 31.542L33.9077 32.8702H32.0291C31.9107 32.8702 31.8148 32.9662 31.8148 33.0845V34.9629L30.4864 36.2911C30.4027 36.3748 30.4027 36.5105 30.4864 36.5942L31.8148 37.9224V39.8007Z" stroke="#009592"/>
<path d="M15.0228 19.1343C15.0228 17.4474 16.3904 16.0799 18.0775 16.0799H52.6976C54.3847 16.0799 55.7524 17.4474 55.7524 19.1343V53.751C55.7524 55.4379 54.3847 56.8054 52.6976 56.8054H18.0775C16.3904 56.8054 15.0228 55.4379 15.0228 53.751L15.0228 19.1343Z" stroke="#009592"/>
<path d="M19.6666 37.4617C19.0702 36.8653 19.0702 35.8983 19.6666 35.3019L34.2467 20.7233C34.8432 20.1268 35.8103 20.1268 36.4067 20.7233L50.9868 35.3019C51.5833 35.8983 51.5833 36.8653 50.9868 37.4617L36.4067 52.0403C35.8103 52.6367 34.8432 52.6367 34.2467 52.0403L19.6666 37.4617Z" stroke="#009592"/>
<path d="M9.91613 131.65C9.91613 132.493 10.6003 133.177 11.4442 133.177H24.8348L34.3033 142.645C34.9001 143.242 35.8676 143.242 36.4643 142.645L45.9329 133.177H59.3235C60.1674 133.177 60.8515 132.493 60.8515 131.65L60.8515 118.26L70.3201 108.793C70.9168 108.196 70.9168 107.229 70.3201 106.632L60.8515 97.1643V83.775C60.8515 82.9312 60.1674 82.2471 59.3235 82.2471H45.9329L36.4643 72.7795C35.8676 72.1828 34.9001 72.1828 34.3033 72.7795L24.8348 82.2471H11.4442C10.6003 82.2471 9.91613 82.9312 9.91613 83.775L9.91613 97.1643L0.447559 106.632C-0.149186 107.229 -0.149187 108.196 0.447558 108.793L9.91613 118.26V131.65Z" stroke="#009592"/>
<path d="M31.8148 111.054C31.8148 111.173 31.9107 111.268 32.0291 111.268H33.9077L35.236 112.597C35.3197 112.68 35.4554 112.68 35.5392 112.597L36.8675 111.268H38.746C38.8644 111.268 38.9604 111.173 38.9604 111.054V109.176L40.2887 107.848C40.3724 107.764 40.3724 107.628 40.2887 107.544L38.9604 106.216V104.338C38.9604 104.22 38.8644 104.124 38.746 104.124H36.8675L35.5392 102.795C35.4554 102.712 35.3197 102.712 35.236 102.795L33.9077 104.124H32.0291C31.9107 104.124 31.8148 104.22 31.8148 104.338V106.216L30.4864 107.544C30.4027 107.628 30.4027 107.764 30.4864 107.848L31.8148 109.176V111.054Z" stroke="#009592"/>
<path d="M15.0228 90.3877C15.0228 88.7008 16.3904 87.3333 18.0775 87.3333H52.6976C54.3847 87.3333 55.7524 88.7008 55.7524 90.3877V125.004C55.7524 126.691 54.3847 128.059 52.6976 128.059H18.0775C16.3904 128.059 15.0228 126.691 15.0228 125.004L15.0228 90.3877Z" stroke="#009592"/>
<path d="M19.6666 108.715C19.0702 108.119 19.0702 107.152 19.6666 106.555L34.2467 91.9766C34.8432 91.3802 35.8103 91.3802 36.4067 91.9766L50.9868 106.555C51.5833 107.152 51.5833 108.119 50.9868 108.715L36.4067 123.294C35.8103 123.89 34.8432 123.89 34.2467 123.294L19.6666 108.715Z" stroke="#009592"/>
<path d="M81.1929 60.3962C81.1929 61.24 81.877 61.9241 82.7209 61.9241H96.1115L105.58 71.3917C106.177 71.9884 107.144 71.9884 107.741 71.3917L117.21 61.9241L130.6 61.9241C131.444 61.9241 132.128 61.24 132.128 60.3962V47.0069L141.597 37.5393C142.194 36.9426 142.194 35.9752 141.597 35.3785L132.128 25.9109V12.5217C132.128 11.6778 131.444 10.9937 130.6 10.9937H117.21L107.741 1.52613C107.144 0.929442 106.177 0.929441 105.58 1.52613L96.1115 10.9937L82.7209 10.9937C81.877 10.9937 81.1929 11.6778 81.1929 12.5217V25.9109L71.7243 35.3785C71.1276 35.9752 71.1276 36.9426 71.7243 37.5393L81.1929 47.0069V60.3962Z" stroke="#009592"/>
<path d="M103.092 39.8007C103.092 39.9191 103.188 40.0151 103.306 40.0151H105.184L106.513 41.3433C106.596 41.427 106.732 41.427 106.816 41.3433L108.144 40.0151H110.023C110.141 40.0151 110.237 39.9191 110.237 39.8007V37.9224L111.565 36.5942C111.649 36.5105 111.649 36.3748 111.565 36.2911L110.237 34.9629V33.0845C110.237 32.9662 110.141 32.8702 110.023 32.8702H108.144L106.816 31.542C106.732 31.4583 106.596 31.4583 106.513 31.542L105.184 32.8702H103.306C103.188 32.8702 103.092 32.9662 103.092 33.0845V34.9629L101.763 36.2911C101.679 36.3748 101.679 36.5105 101.763 36.5942L103.092 37.9224V39.8007Z" stroke="#009592"/>
<path d="M86.2995 19.1343C86.2995 17.4474 87.6672 16.0799 89.3543 16.0799L123.974 16.0799C125.661 16.0799 127.029 17.4474 127.029 19.1343V53.751C127.029 55.4379 125.661 56.8054 123.974 56.8054H89.3543C87.6672 56.8054 86.2995 55.4379 86.2995 53.751V19.1343Z" stroke="#009592"/>
<path d="M90.9434 37.4617C90.3469 36.8653 90.3469 35.8983 90.9434 35.3019L105.523 20.7233C106.12 20.1268 107.087 20.1268 107.683 20.7233L122.264 35.3019C122.86 35.8983 122.86 36.8653 122.264 37.4617L107.683 52.0403C107.087 52.6367 106.12 52.6367 105.523 52.0403L90.9434 37.4617Z" stroke="#009592"/>
<path d="M81.1929 131.65C81.1929 132.493 81.877 133.177 82.7209 133.177H96.1115L105.58 142.645C106.177 143.242 107.144 143.242 107.741 142.645L117.21 133.177H130.6C131.444 133.177 132.128 132.493 132.128 131.65V118.26L141.597 108.793C142.194 108.196 142.194 107.229 141.597 106.632L132.128 97.1643V83.775C132.128 82.9312 131.444 82.2471 130.6 82.2471H117.21L107.741 72.7795C107.144 72.1828 106.177 72.1828 105.58 72.7795L96.1115 82.2471H82.7209C81.877 82.2471 81.1929 82.9312 81.1929 83.775V97.1643L71.7243 106.632C71.1276 107.229 71.1276 108.196 71.7243 108.793L81.1929 118.26V131.65Z" stroke="#009592"/>
<path d="M103.092 111.054C103.092 111.173 103.188 111.268 103.306 111.268H105.184L106.513 112.597C106.596 112.68 106.732 112.68 106.816 112.597L108.144 111.268H110.023C110.141 111.268 110.237 111.173 110.237 111.054V109.176L111.565 107.848C111.649 107.764 111.649 107.628 111.565 107.544L110.237 106.216V104.338C110.237 104.22 110.141 104.124 110.023 104.124H108.144L106.816 102.795C106.732 102.712 106.596 102.712 106.513 102.795L105.184 104.124H103.306C103.188 104.124 103.092 104.22 103.092 104.338V106.216L101.763 107.544C101.679 107.628 101.679 107.764 101.763 107.848L103.092 109.176V111.054Z" stroke="#009592"/>
<path d="M86.2995 90.3877C86.2995 88.7008 87.6672 87.3333 89.3543 87.3333H123.974C125.661 87.3333 127.029 88.7008 127.029 90.3877V125.004C127.029 126.691 125.661 128.059 123.974 128.059H89.3543C87.6672 128.059 86.2995 126.691 86.2995 125.004V90.3877Z" stroke="#009592"/>
<path d="M90.9434 108.715C90.3469 108.119 90.3469 107.152 90.9434 106.555L105.523 91.9766C106.12 91.3802 107.087 91.3802 107.683 91.9766L122.264 106.555C122.86 107.152 122.86 108.119 122.264 108.715L107.683 123.294C107.087 123.89 106.12 123.89 105.523 123.294L90.9434 108.715Z" stroke="#009592"/>
<path d="M152.47 60.3962C152.47 61.24 153.154 61.9241 153.998 61.9241H167.388L176.857 71.3917C177.454 71.9884 178.421 71.9884 179.018 71.3917L188.486 61.9241H201.877C202.721 61.9241 203.405 61.24 203.405 60.3962V47.0069L212.874 37.5393C213.47 36.9426 213.47 35.9752 212.874 35.3785L203.405 25.9109V12.5217C203.405 11.6778 202.721 10.9937 201.877 10.9937H188.486L179.018 1.52613C178.421 0.929442 177.454 0.929441 176.857 1.52613L167.388 10.9937L153.998 10.9937C153.154 10.9937 152.47 11.6778 152.47 12.5217V25.9109L143.001 35.3785C142.404 35.9752 142.404 36.9426 143.001 37.5393L152.47 47.0069V60.3962Z" stroke="#009592"/>
<path d="M174.368 39.8007C174.368 39.9191 174.464 40.0151 174.583 40.0151H176.461L177.79 41.3433C177.873 41.427 178.009 41.427 178.093 41.3433L179.421 40.0151H181.3C181.418 40.0151 181.514 39.9191 181.514 39.8007V37.9224L182.842 36.5942C182.926 36.5105 182.926 36.3748 182.842 36.2911L181.514 34.9629V33.0845C181.514 32.9662 181.418 32.8702 181.3 32.8702H179.421L178.093 31.542C178.009 31.4583 177.873 31.4583 177.79 31.542L176.461 32.8702H174.583C174.464 32.8702 174.368 32.9662 174.368 33.0845V34.9629L173.04 36.2911C172.956 36.3748 172.956 36.5105 173.04 36.5942L174.368 37.9224V39.8007Z" stroke="#009592"/>
<path d="M157.576 19.1343C157.576 17.4474 158.944 16.0799 160.631 16.0799H195.251C196.938 16.0799 198.306 17.4474 198.306 19.1343V53.751C198.306 55.4379 196.938 56.8054 195.251 56.8054H160.631C158.944 56.8054 157.576 55.4379 157.576 53.751V19.1343Z" stroke="#009592"/>
<path d="M162.22 37.4617C161.624 36.8653 161.624 35.8983 162.22 35.3019L176.8 20.7233C177.397 20.1268 178.364 20.1268 178.96 20.7233L193.54 35.3019C194.137 35.8983 194.137 36.8653 193.54 37.4617L178.96 52.0403C178.364 52.6367 177.397 52.6367 176.8 52.0403L162.22 37.4617Z" stroke="#009592"/>
<path d="M152.47 131.65C152.47 132.493 153.154 133.177 153.998 133.177H167.388L176.857 142.645C177.454 143.242 178.421 143.242 179.018 142.645L188.486 133.177H201.877C202.721 133.177 203.405 132.493 203.405 131.65V118.26L212.874 108.793C213.47 108.196 213.47 107.229 212.874 106.632L203.405 97.1643V83.775C203.405 82.9312 202.721 82.2471 201.877 82.2471H188.486L179.018 72.7795C178.421 72.1828 177.454 72.1828 176.857 72.7795L167.388 82.2471H153.998C153.154 82.2471 152.47 82.9312 152.47 83.775V97.1643L143.001 106.632C142.404 107.229 142.404 108.196 143.001 108.793L152.47 118.26V131.65Z" stroke="#009592"/>
<path d="M174.368 111.054C174.368 111.173 174.464 111.268 174.583 111.268H176.461L177.79 112.597C177.873 112.68 178.009 112.68 178.093 112.597L179.421 111.268H181.3C181.418 111.268 181.514 111.173 181.514 111.054V109.176L182.842 107.848C182.926 107.764 182.926 107.628 182.842 107.544L181.514 106.216V104.338C181.514 104.22 181.418 104.124 181.3 104.124H179.421L178.093 102.795C178.009 102.712 177.873 102.712 177.79 102.795L176.461 104.124H174.583C174.464 104.124 174.368 104.22 174.368 104.338V106.216L173.04 107.544C172.956 107.628 172.956 107.764 173.04 107.848L174.368 109.176V111.054Z" stroke="#009592"/>
<path d="M157.576 90.3877C157.576 88.7008 158.944 87.3333 160.631 87.3333H195.251C196.938 87.3333 198.306 88.7008 198.306 90.3877V125.004C198.306 126.691 196.938 128.059 195.251 128.059H160.631C158.944 128.059 157.576 126.691 157.576 125.004V90.3877Z" stroke="#009592"/>
<path d="M162.22 108.715C161.624 108.119 161.624 107.152 162.22 106.555L176.8 91.9766C177.397 91.3802 178.364 91.3802 178.96 91.9766L193.54 106.555C194.137 107.152 194.137 108.119 193.54 108.715L178.96 123.294C178.364 123.89 177.397 123.89 176.8 123.294L162.22 108.715Z" stroke="#009592"/>
<path d="M223.746 60.3962C223.746 61.24 224.431 61.9241 225.274 61.9241H238.665L248.134 71.3917C248.73 71.9884 249.698 71.9884 250.295 71.3917L259.763 61.9241H273.154C273.998 61.9241 274.682 61.24 274.682 60.3962V47.0069L284.15 37.5393C284.747 36.9426 284.747 35.9752 284.15 35.3785L274.682 25.9109V12.5217C274.682 11.6778 273.998 10.9937 273.154 10.9937H259.763L250.295 1.52613C249.698 0.929442 248.73 0.929441 248.134 1.52613L238.665 10.9937H225.274C224.431 10.9937 223.746 11.6778 223.746 12.5217V25.9109L214.278 35.3785C213.681 35.9752 213.681 36.9426 214.278 37.5393L223.746 47.0069V60.3962Z" stroke="#009592"/>
<path d="M245.645 39.8007C245.645 39.9191 245.741 40.0151 245.859 40.0151H247.738L249.066 41.3433C249.15 41.427 249.286 41.427 249.369 41.3433L250.698 40.0151H252.576C252.695 40.0151 252.791 39.9191 252.791 39.8007V37.9224L254.119 36.5942C254.203 36.5105 254.203 36.3748 254.119 36.2911L252.791 34.9629V33.0845C252.791 32.9662 252.695 32.8702 252.576 32.8702H250.698L249.369 31.542C249.286 31.4583 249.15 31.4583 249.066 31.542L247.738 32.8702H245.859C245.741 32.8702 245.645 32.9662 245.645 33.0845V34.9629L244.317 36.2911C244.233 36.3748 244.233 36.5105 244.317 36.5942L245.645 37.9224V39.8007Z" stroke="#009592"/>
<path d="M228.853 19.1343C228.853 17.4474 230.221 16.0799 231.908 16.0799H266.528C268.215 16.0799 269.583 17.4474 269.583 19.1343V53.751C269.583 55.4379 268.215 56.8054 266.528 56.8054H231.908C230.221 56.8054 228.853 55.4379 228.853 53.751V19.1343Z" stroke="#009592"/>
<path d="M233.497 37.4617C232.9 36.8653 232.9 35.8983 233.497 35.3019L248.077 20.7233C248.673 20.1268 249.641 20.1268 250.237 20.7233L264.817 35.3019C265.414 35.8983 265.414 36.8653 264.817 37.4617L250.237 52.0403C249.641 52.6367 248.673 52.6367 248.077 52.0403L233.497 37.4617Z" stroke="#009592"/>
<path d="M223.746 131.65C223.746 132.493 224.431 133.177 225.274 133.177H238.665L248.134 142.645C248.73 143.242 249.698 143.242 250.295 142.645L259.763 133.177H273.154C273.998 133.177 274.682 132.493 274.682 131.65V118.26L284.15 108.793C284.747 108.196 284.747 107.229 284.15 106.632L274.682 97.1643V83.775C274.682 82.9312 273.998 82.2471 273.154 82.2471H259.763L250.295 72.7795C249.698 72.1828 248.73 72.1828 248.134 72.7795L238.665 82.2471H225.274C224.431 82.2471 223.746 82.9312 223.746 83.775V97.1643L214.278 106.632C213.681 107.229 213.681 108.196 214.278 108.793L223.746 118.26V131.65Z" stroke="#009592"/>
<path d="M245.645 111.054C245.645 111.173 245.741 111.268 245.859 111.268H247.738L249.066 112.597C249.15 112.68 249.286 112.68 249.369 112.597L250.698 111.268H252.576C252.695 111.268 252.791 111.173 252.791 111.054V109.176L254.119 107.848C254.203 107.764 254.203 107.628 254.119 107.544L252.791 106.216V104.338C252.791 104.22 252.695 104.124 252.576 104.124H250.698L249.369 102.795C249.286 102.712 249.15 102.712 249.066 102.795L247.738 104.124H245.859C245.741 104.124 245.645 104.22 245.645 104.338V106.216L244.317 107.544C244.233 107.628 244.233 107.764 244.317 107.848L245.645 109.176V111.054Z" stroke="#009592"/>
<path d="M228.853 90.3877C228.853 88.7008 230.221 87.3333 231.908 87.3333L266.528 87.3333C268.215 87.3333 269.583 88.7008 269.583 90.3877V125.004C269.583 126.691 268.215 128.059 266.528 128.059H231.908C230.221 128.059 228.853 126.691 228.853 125.004V90.3877Z" stroke="#009592"/>
<path d="M233.497 108.715C232.9 108.119 232.9 107.152 233.497 106.555L248.077 91.9766C248.673 91.3802 249.641 91.3802 250.237 91.9766L264.817 106.555C265.414 107.152 265.414 108.119 264.817 108.715L250.237 123.294C249.641 123.89 248.673 123.89 248.077 123.294L233.497 108.715Z" stroke="#009592"/>
<path d="M295.023 60.3962C295.023 61.24 295.707 61.9241 296.551 61.9241H309.942L319.41 71.3917C320.007 71.9884 320.975 71.9884 321.571 71.3917L331.04 61.9241H344.431C345.274 61.9241 345.959 61.24 345.959 60.3962V47.0069L355.427 37.5393C356.024 36.9426 356.024 35.9752 355.427 35.3785L345.959 25.9109V12.5217C345.959 11.6778 345.274 10.9937 344.431 10.9937H331.04L321.571 1.52613C320.975 0.929442 320.007 0.929441 319.41 1.52613L309.942 10.9937H296.551C295.707 10.9937 295.023 11.6778 295.023 12.5217V25.9109L285.555 35.3785C284.958 35.9752 284.958 36.9426 285.555 37.5393L295.023 47.0069V60.3962Z" stroke="#009592"/>
<path d="M316.922 39.8007C316.922 39.9191 317.018 40.0151 317.136 40.0151H319.015L320.343 41.3433C320.427 41.427 320.562 41.427 320.646 41.3433L321.975 40.0151H323.853C323.971 40.0151 324.067 39.9191 324.067 39.8007V37.9224L325.396 36.5942C325.479 36.5105 325.479 36.3748 325.396 36.2911L324.067 34.9629V33.0845C324.067 32.9662 323.971 32.8702 323.853 32.8702H321.975L320.646 31.542C320.562 31.4583 320.427 31.4583 320.343 31.542L319.015 32.8702H317.136C317.018 32.8702 316.922 32.9662 316.922 33.0845V34.9629L315.593 36.2911C315.51 36.3748 315.51 36.5105 315.593 36.5942L316.922 37.9224V39.8007Z" stroke="#009592"/>
<path d="M300.13 19.1343C300.13 17.4474 301.497 16.0799 303.185 16.0799H337.805C339.492 16.0799 340.859 17.4474 340.859 19.1343V53.751C340.859 55.4379 339.492 56.8054 337.805 56.8054H303.185C301.497 56.8054 300.13 55.4379 300.13 53.751V19.1343Z" stroke="#009592"/>
<path d="M304.774 37.4617C304.177 36.8653 304.177 35.8983 304.774 35.3019L319.354 20.7233C319.95 20.1268 320.917 20.1268 321.514 20.7233L336.094 35.3019C336.69 35.8983 336.69 36.8653 336.094 37.4617L321.514 52.0403C320.917 52.6367 319.95 52.6367 319.354 52.0403L304.774 37.4617Z" stroke="#009592"/>
<path d="M295.023 131.65C295.023 132.493 295.707 133.177 296.551 133.177H309.942L319.41 142.645C320.007 143.242 320.975 143.242 321.571 142.645L331.04 133.177H344.431C345.274 133.177 345.959 132.493 345.959 131.65V118.26L355.427 108.793C356.024 108.196 356.024 107.229 355.427 106.632L345.959 97.1643V83.775C345.959 82.9312 345.274 82.2471 344.431 82.2471H331.04L321.571 72.7795C320.975 72.1828 320.007 72.1828 319.41 72.7795L309.942 82.2471H296.551C295.707 82.2471 295.023 82.9312 295.023 83.775V97.1643L285.555 106.632C284.958 107.229 284.958 108.196 285.555 108.793L295.023 118.26V131.65Z" stroke="#009592"/>
<path d="M316.922 111.054C316.922 111.173 317.018 111.268 317.136 111.268H319.015L320.343 112.597C320.427 112.68 320.562 112.68 320.646 112.597L321.975 111.268H323.853C323.971 111.268 324.067 111.173 324.067 111.054V109.176L325.396 107.848C325.479 107.764 325.479 107.628 325.396 107.544L324.067 106.216V104.338C324.067 104.22 323.971 104.124 323.853 104.124H321.975L320.646 102.795C320.562 102.712 320.427 102.712 320.343 102.795L319.015 104.124H317.136C317.018 104.124 316.922 104.22 316.922 104.338V106.216L315.593 107.544C315.51 107.628 315.51 107.764 315.593 107.848L316.922 109.176V111.054Z" stroke="#009592"/>
<path d="M300.13 90.3877C300.13 88.7008 301.497 87.3333 303.185 87.3333H337.805C339.492 87.3333 340.859 88.7008 340.859 90.3877V125.004C340.859 126.691 339.492 128.059 337.805 128.059H303.185C301.497 128.059 300.13 126.691 300.13 125.004V90.3877Z" stroke="#009592"/>
<path d="M304.774 108.715C304.177 108.119 304.177 107.152 304.774 106.555L319.354 91.9766C319.95 91.3802 320.917 91.3802 321.514 91.9766L336.094 106.555C336.69 107.152 336.69 108.119 336.094 108.715L321.514 123.294C320.917 123.89 319.95 123.89 319.354 123.294L304.774 108.715Z" stroke="#009592"/>
<path d="M366.3 60.3962C366.3 61.24 366.984 61.9241 367.828 61.9241H381.219L390.687 71.3917C391.284 71.9884 392.251 71.9884 392.848 71.3917L402.317 61.9241H415.707C416.551 61.9241 417.235 61.24 417.235 60.3962V47.0069L426.704 37.5393C427.301 36.9426 427.301 35.9752 426.704 35.3785L417.235 25.9109V12.5217C417.235 11.6778 416.551 10.9937 415.707 10.9937H402.317L392.848 1.52613C392.251 0.929442 391.284 0.929441 390.687 1.52613L381.219 10.9937H367.828C366.984 10.9937 366.3 11.6778 366.3 12.5217V25.9109L356.831 35.3785C356.235 35.9752 356.235 36.9426 356.831 37.5393L366.3 47.0069V60.3962Z" stroke="#009592"/>
<path d="M388.199 39.8007C388.199 39.9191 388.295 40.0151 388.413 40.0151H390.291L391.62 41.3433C391.703 41.427 391.839 41.427 391.923 41.3433L393.251 40.0151H395.13C395.248 40.0151 395.344 39.9191 395.344 39.8007V37.9224L396.673 36.5942C396.756 36.5105 396.756 36.3748 396.673 36.2911L395.344 34.9629V33.0845C395.344 32.9662 395.248 32.8702 395.13 32.8702H393.251L391.923 31.542C391.839 31.4583 391.703 31.4583 391.62 31.542L390.291 32.8702H388.413C388.295 32.8702 388.199 32.9662 388.199 33.0845V34.9629L386.87 36.2911C386.787 36.3748 386.787 36.5105 386.87 36.5942L388.199 37.9224V39.8007Z" stroke="#009592"/>
<path d="M371.407 19.1343C371.407 17.4474 372.774 16.0799 374.461 16.0799H409.081C410.769 16.0799 412.136 17.4474 412.136 19.1343V53.751C412.136 55.4379 410.769 56.8054 409.081 56.8054L374.461 56.8054C372.774 56.8054 371.407 55.4379 371.407 53.751V19.1343Z" stroke="#009592"/>
<path d="M376.05 37.4617C375.454 36.8653 375.454 35.8983 376.05 35.3019L390.631 20.7233C391.227 20.1268 392.194 20.1268 392.791 20.7233L407.371 35.3019C407.967 35.8983 407.967 36.8653 407.371 37.4617L392.791 52.0403C392.194 52.6367 391.227 52.6367 390.631 52.0403L376.05 37.4617Z" stroke="#009592"/>
<path d="M366.3 131.65C366.3 132.493 366.984 133.177 367.828 133.177H381.219L390.687 142.645C391.284 143.242 392.251 143.242 392.848 142.645L402.317 133.177H415.707C416.551 133.177 417.235 132.493 417.235 131.65V118.26L426.704 108.793C427.301 108.196 427.301 107.229 426.704 106.632L417.235 97.1643V83.775C417.235 82.9312 416.551 82.2471 415.707 82.2471H402.317L392.848 72.7795C392.251 72.1828 391.284 72.1828 390.687 72.7795L381.219 82.2471H367.828C366.984 82.2471 366.3 82.9312 366.3 83.775V97.1643L356.831 106.632C356.235 107.229 356.235 108.196 356.831 108.793L366.3 118.26V131.65Z" stroke="#009592"/>
<path d="M388.199 111.054C388.199 111.173 388.295 111.268 388.413 111.268H390.291L391.62 112.597C391.703 112.68 391.839 112.68 391.923 112.597L393.251 111.268H395.13C395.248 111.268 395.344 111.173 395.344 111.054V109.176L396.673 107.848C396.756 107.764 396.756 107.628 396.673 107.544L395.344 106.216V104.338C395.344 104.22 395.248 104.124 395.13 104.124H393.251L391.923 102.795C391.839 102.712 391.703 102.712 391.62 102.795L390.291 104.124H388.413C388.295 104.124 388.199 104.22 388.199 104.338V106.216L386.87 107.544C386.787 107.628 386.787 107.764 386.87 107.848L388.199 109.176V111.054Z" stroke="#009592"/>
<path d="M371.407 90.3877C371.407 88.7008 372.774 87.3333 374.461 87.3333H409.081C410.769 87.3333 412.136 88.7008 412.136 90.3877V125.004C412.136 126.691 410.769 128.059 409.081 128.059H374.461C372.774 128.059 371.407 126.691 371.407 125.004V90.3877Z" stroke="#009592"/>
<path d="M376.05 108.715C375.454 108.119 375.454 107.152 376.05 106.555L390.631 91.9766C391.227 91.3802 392.194 91.3802 392.791 91.9766L407.371 106.555C407.967 107.152 407.967 108.119 407.371 108.715L392.791 123.294C392.194 123.89 391.227 123.89 390.631 123.294L376.05 108.715Z" stroke="#009592"/>
<path d="M437.577 60.3962C437.577 61.24 438.261 61.9241 439.105 61.9241H452.495L461.964 71.3917C462.561 71.9884 463.528 71.9884 464.125 71.3917L473.593 61.9241H486.984C487.828 61.9241 488.512 61.24 488.512 60.3962V47.0069L497.981 37.5393C498.577 36.9426 498.577 35.9752 497.981 35.3785L488.512 25.9109V12.5217C488.512 11.6778 487.828 10.9937 486.984 10.9937L473.593 10.9937L464.125 1.52613C463.528 0.929442 462.561 0.929441 461.964 1.52613L452.495 10.9937H439.105C438.261 10.9937 437.577 11.6778 437.577 12.5217V25.9109L428.108 35.3785C427.511 35.9752 427.511 36.9426 428.108 37.5393L437.577 47.0069V60.3962Z" stroke="#009592"/>
<path d="M459.475 39.8007C459.475 39.9191 459.571 40.0151 459.69 40.0151H461.568L462.897 41.3433C462.98 41.427 463.116 41.427 463.2 41.3433L464.528 40.0151H466.407C466.525 40.0151 466.621 39.9191 466.621 39.8007V37.9224L467.949 36.5942C468.033 36.5105 468.033 36.3748 467.949 36.2911L466.621 34.9629V33.0845C466.621 32.9662 466.525 32.8702 466.407 32.8702H464.528L463.2 31.542C463.116 31.4583 462.98 31.4583 462.897 31.542L461.568 32.8702H459.69C459.571 32.8702 459.475 32.9662 459.475 33.0845V34.9629L458.147 36.2911C458.063 36.3748 458.063 36.5105 458.147 36.5942L459.475 37.9224V39.8007Z" stroke="#009592"/>
<path d="M442.683 19.1343C442.683 17.4474 444.051 16.0799 445.738 16.0799H480.358C482.045 16.0799 483.413 17.4474 483.413 19.1343V53.751C483.413 55.4379 482.045 56.8054 480.358 56.8054H445.738C444.051 56.8054 442.683 55.4379 442.683 53.751V19.1343Z" stroke="#009592"/>
<path d="M447.327 37.4617C446.731 36.8653 446.731 35.8983 447.327 35.3019L461.907 20.7233C462.504 20.1268 463.471 20.1268 464.067 20.7233L478.647 35.3019C479.244 35.8983 479.244 36.8653 478.647 37.4617L464.067 52.0403C463.471 52.6367 462.504 52.6367 461.907 52.0403L447.327 37.4617Z" stroke="#009592"/>
<path d="M437.577 131.65C437.577 132.493 438.261 133.177 439.105 133.177H452.495L461.964 142.645C462.561 143.242 463.528 143.242 464.125 142.645L473.593 133.177H486.984C487.828 133.177 488.512 132.493 488.512 131.65V118.26L497.981 108.793C498.577 108.196 498.577 107.229 497.981 106.632L488.512 97.1643V83.775C488.512 82.9312 487.828 82.2471 486.984 82.2471H473.593L464.125 72.7795C463.528 72.1828 462.561 72.1828 461.964 72.7795L452.495 82.2471H439.105C438.261 82.2471 437.577 82.9312 437.577 83.775V97.1643L428.108 106.632C427.511 107.229 427.511 108.196 428.108 108.793L437.577 118.26V131.65Z" stroke="#009592"/>
<path d="M459.475 111.054C459.475 111.173 459.571 111.268 459.69 111.268H461.568L462.897 112.597C462.98 112.68 463.116 112.68 463.2 112.597L464.528 111.268H466.407C466.525 111.268 466.621 111.173 466.621 111.054V109.176L467.949 107.848C468.033 107.764 468.033 107.628 467.949 107.544L466.621 106.216V104.338C466.621 104.22 466.525 104.124 466.407 104.124H464.528L463.2 102.795C463.116 102.712 462.98 102.712 462.897 102.795L461.568 104.124H459.69C459.571 104.124 459.475 104.22 459.475 104.338V106.216L458.147 107.544C458.063 107.628 458.063 107.764 458.147 107.848L459.475 109.176V111.054Z" stroke="#009592"/>
<path d="M442.683 90.3877C442.683 88.7008 444.051 87.3333 445.738 87.3333H480.358C482.045 87.3333 483.413 88.7008 483.413 90.3877V125.004C483.413 126.691 482.045 128.059 480.358 128.059H445.738C444.051 128.059 442.683 126.691 442.683 125.004V90.3877Z" stroke="#009592"/>
<path d="M447.327 108.715C446.731 108.119 446.731 107.152 447.327 106.555L461.907 91.9766C462.504 91.3802 463.471 91.3802 464.067 91.9766L478.647 106.555C479.244 107.152 479.244 108.119 478.647 108.715L464.067 123.294C463.471 123.89 462.504 123.89 461.907 123.294L447.327 108.715Z" stroke="#009592"/>
<path d="M508.853 60.3962C508.853 61.24 509.538 61.9241 510.381 61.9241H523.772L533.241 71.3917C533.837 71.9884 534.805 71.9884 535.402 71.3917L544.87 61.9241H558.261C559.105 61.9241 559.789 61.24 559.789 60.3962V47.0069L569.257 37.5393C569.854 36.9426 569.854 35.9752 569.257 35.3785L559.789 25.9109V12.5217C559.789 11.6778 559.105 10.9937 558.261 10.9937H544.87L535.402 1.52613C534.805 0.929442 533.837 0.929441 533.241 1.52613L523.772 10.9937H510.381C509.538 10.9937 508.853 11.6778 508.853 12.5217V25.9109L499.385 35.3785C498.788 35.9752 498.788 36.9426 499.385 37.5393L508.853 47.0069V60.3962Z" stroke="#009592"/>
<path d="M530.752 39.8007C530.752 39.9191 530.848 40.0151 530.966 40.0151H532.845L534.173 41.3433C534.257 41.427 534.393 41.427 534.476 41.3433L535.805 40.0151H537.683C537.802 40.0151 537.898 39.9191 537.898 39.8007V37.9224L539.226 36.5942C539.31 36.5105 539.31 36.3748 539.226 36.2911L537.898 34.9629V33.0845C537.898 32.9662 537.802 32.8702 537.683 32.8702H535.805L534.476 31.542C534.393 31.4583 534.257 31.4583 534.173 31.542L532.845 32.8702H530.966C530.848 32.8702 530.752 32.9662 530.752 33.0845V34.9629L529.424 36.2911C529.34 36.3748 529.34 36.5105 529.424 36.5942L530.752 37.9224V39.8007Z" stroke="#009592"/>
<path d="M513.96 19.1343C513.96 17.4474 515.328 16.0799 517.015 16.0799H551.635C553.322 16.0799 554.69 17.4474 554.69 19.1343V53.751C554.69 55.4379 553.322 56.8054 551.635 56.8054H517.015C515.328 56.8054 513.96 55.4379 513.96 53.751V19.1343Z" stroke="#009592"/>
<path d="M518.604 37.4617C518.007 36.8653 518.007 35.8983 518.604 35.3019L533.184 20.7233C533.78 20.1268 534.748 20.1268 535.344 20.7233L549.924 35.3019C550.521 35.8983 550.521 36.8653 549.924 37.4617L535.344 52.0403C534.748 52.6367 533.78 52.6367 533.184 52.0403L518.604 37.4617Z" stroke="#009592"/>
<path d="M508.853 131.65C508.853 132.493 509.538 133.177 510.381 133.177L523.772 133.177L533.241 142.645C533.837 143.242 534.805 143.242 535.402 142.645L544.87 133.177H558.261C559.105 133.177 559.789 132.493 559.789 131.65V118.26L569.257 108.793C569.854 108.196 569.854 107.229 569.257 106.632L559.789 97.1643V83.775C559.789 82.9312 559.105 82.2471 558.261 82.2471H544.87L535.402 72.7795C534.805 72.1828 533.837 72.1828 533.241 72.7795L523.772 82.2471H510.381C509.538 82.2471 508.853 82.9312 508.853 83.775V97.1643L499.385 106.632C498.788 107.229 498.788 108.196 499.385 108.793L508.853 118.26V131.65Z" stroke="#009592"/>
<path d="M530.752 111.054C530.752 111.173 530.848 111.268 530.966 111.268H532.845L534.173 112.597C534.257 112.68 534.393 112.68 534.476 112.597L535.805 111.268H537.683C537.802 111.268 537.898 111.173 537.898 111.054V109.176L539.226 107.848C539.31 107.764 539.31 107.628 539.226 107.544L537.898 106.216V104.338C537.898 104.22 537.802 104.124 537.683 104.124H535.805L534.476 102.795C534.393 102.712 534.257 102.712 534.173 102.795L532.845 104.124H530.966C530.848 104.124 530.752 104.22 530.752 104.338V106.216L529.424 107.544C529.34 107.628 529.34 107.764 529.424 107.848L530.752 109.176V111.054Z" stroke="#009592"/>
<path d="M513.96 90.3877C513.96 88.7008 515.328 87.3333 517.015 87.3333H551.635C553.322 87.3333 554.69 88.7008 554.69 90.3877V125.004C554.69 126.691 553.322 128.059 551.635 128.059H517.015C515.328 128.059 513.96 126.691 513.96 125.004V90.3877Z" stroke="#009592"/>
<path d="M518.604 108.715C518.007 108.119 518.007 107.152 518.604 106.555L533.184 91.9766C533.78 91.3802 534.748 91.3802 535.344 91.9766L549.924 106.555C550.521 107.152 550.521 108.119 549.924 108.715L535.344 123.294C534.748 123.89 533.78 123.89 533.184 123.294L518.604 108.715Z" stroke="#009592"/>
<path d="M580.13 60.3962C580.13 61.24 580.814 61.9241 581.658 61.9241H595.049L604.517 71.3917C605.114 71.9884 606.082 71.9884 606.678 71.3917L616.147 61.9241H629.537C630.381 61.9241 631.066 61.24 631.066 60.3962V47.0069L640.534 37.5393C641.131 36.9426 641.131 35.9752 640.534 35.3785L631.066 25.9109V12.5217C631.066 11.6778 630.381 10.9937 629.537 10.9937H616.147L606.678 1.52613C606.082 0.929442 605.114 0.929441 604.517 1.52613L595.049 10.9937H581.658C580.814 10.9937 580.13 11.6778 580.13 12.5217V25.9109L570.662 35.3785C570.065 35.9752 570.065 36.9426 570.662 37.5393L580.13 47.0069V60.3962Z" stroke="#009592"/>
<path d="M602.029 39.8007C602.029 39.9191 602.125 40.0151 602.243 40.0151H604.122L605.45 41.3433C605.534 41.427 605.67 41.427 605.753 41.3433L607.082 40.0151H608.96C609.078 40.0151 609.174 39.9191 609.174 39.8007V37.9224L610.503 36.5942C610.586 36.5105 610.586 36.3748 610.503 36.2911L609.174 34.9629V33.0845C609.174 32.9662 609.078 32.8702 608.96 32.8702H607.082L605.753 31.542C605.67 31.4583 605.534 31.4583 605.45 31.542L604.122 32.8702H602.243C602.125 32.8702 602.029 32.9662 602.029 33.0845V34.9629L600.701 36.2911C600.617 36.3748 600.617 36.5105 600.701 36.5942L602.029 37.9224V39.8007Z" stroke="#009592"/>
<path d="M585.237 19.1343C585.237 17.4474 586.605 16.0799 588.292 16.0799L622.912 16.0799C624.599 16.0799 625.966 17.4474 625.966 19.1343V53.751C625.966 55.4379 624.599 56.8054 622.912 56.8054H588.292C586.605 56.8054 585.237 55.4379 585.237 53.751V19.1343Z" stroke="#009592"/>
<path d="M589.881 37.4617C589.284 36.8653 589.284 35.8983 589.881 35.3019L604.461 20.7233C605.057 20.1268 606.024 20.1268 606.621 20.7233L621.201 35.3019C621.797 35.8983 621.797 36.8653 621.201 37.4617L606.621 52.0403C606.024 52.6367 605.057 52.6367 604.461 52.0403L589.881 37.4617Z" stroke="#009592"/>
<path d="M580.13 131.65C580.13 132.493 580.814 133.177 581.658 133.177H595.049L604.517 142.645C605.114 143.242 606.082 143.242 606.678 142.645L616.147 133.177H629.537C630.381 133.177 631.066 132.493 631.066 131.65V118.26L640.534 108.793C641.131 108.196 641.131 107.229 640.534 106.632L631.066 97.1643V83.775C631.066 82.9312 630.381 82.2471 629.537 82.2471H616.147L606.678 72.7795C606.082 72.1828 605.114 72.1828 604.517 72.7795L595.049 82.2471H581.658C580.814 82.2471 580.13 82.9312 580.13 83.775V97.1643L570.662 106.632C570.065 107.229 570.065 108.196 570.662 108.793L580.13 118.26V131.65Z" stroke="#009592"/>
<path d="M602.029 111.054C602.029 111.173 602.125 111.268 602.243 111.268H604.122L605.45 112.597C605.534 112.68 605.67 112.68 605.753 112.597L607.082 111.268H608.96C609.078 111.268 609.174 111.173 609.174 111.054V109.176L610.503 107.848C610.586 107.764 610.586 107.628 610.503 107.544L609.174 106.216V104.338C609.174 104.22 609.078 104.124 608.96 104.124H607.082L605.753 102.795C605.67 102.712 605.534 102.712 605.45 102.795L604.122 104.124H602.243C602.125 104.124 602.029 104.22 602.029 104.338V106.216L600.701 107.544C600.617 107.628 600.617 107.764 600.701 107.848L602.029 109.176V111.054Z" stroke="#009592"/>
<path d="M585.237 90.3877C585.237 88.7008 586.605 87.3333 588.292 87.3333H622.912C624.599 87.3333 625.966 88.7008 625.966 90.3877V125.004C625.966 126.691 624.599 128.059 622.912 128.059H588.292C586.605 128.059 585.237 126.691 585.237 125.004V90.3877Z" stroke="#009592"/>
<path d="M589.881 108.715C589.284 108.119 589.284 107.152 589.881 106.555L604.461 91.9766C605.057 91.3802 606.024 91.3802 606.621 91.9766L621.201 106.555C621.797 107.152 621.797 108.119 621.201 108.715L606.621 123.294C606.024 123.89 605.057 123.89 604.461 123.294L589.881 108.715Z" stroke="#009592"/>
<path d="M652.425 60.3962C652.425 61.24 653.109 61.9241 653.953 61.9241H667.344L676.812 71.3917C677.409 71.9884 678.377 71.9884 678.973 71.3917L688.442 61.9241H701.832C702.676 61.9241 703.361 61.24 703.361 60.3962V47.0069L712.829 37.5393C713.426 36.9426 713.426 35.9752 712.829 35.3785L703.361 25.9109V12.5217C703.361 11.6778 702.676 10.9937 701.832 10.9937H688.442L678.973 1.52613C678.377 0.929442 677.409 0.929441 676.812 1.52613L667.344 10.9937H653.953C653.109 10.9937 652.425 11.6778 652.425 12.5217V25.9109L642.957 35.3785C642.36 35.9752 642.36 36.9426 642.957 37.5393L652.425 47.0069V60.3962Z" stroke="#009592"/>
<path d="M674.324 39.8007C674.324 39.9191 674.42 40.0151 674.538 40.0151H676.417L677.745 41.3433C677.829 41.427 677.965 41.427 678.048 41.3433L679.377 40.0151H681.255C681.373 40.0151 681.469 39.9191 681.469 39.8007V37.9224L682.798 36.5942C682.881 36.5105 682.881 36.3748 682.798 36.2911L681.469 34.9629V33.0845C681.469 32.9662 681.373 32.8702 681.255 32.8702H679.377L678.048 31.542C677.965 31.4583 677.829 31.4583 677.745 31.542L676.417 32.8702H674.538C674.42 32.8702 674.324 32.9662 674.324 33.0845V34.9629L672.996 36.2911C672.912 36.3748 672.912 36.5105 672.996 36.5942L674.324 37.9224V39.8007Z" stroke="#009592"/>
<path d="M657.532 19.1343C657.532 17.4474 658.9 16.0799 660.587 16.0799L695.207 16.0799C696.894 16.0799 698.261 17.4474 698.261 19.1343V53.751C698.261 55.4379 696.894 56.8054 695.207 56.8054H660.587C658.9 56.8054 657.532 55.4379 657.532 53.751V19.1343Z" stroke="#009592"/>
<path d="M662.176 37.4617C661.579 36.8653 661.579 35.8983 662.176 35.3019L676.756 20.7233C677.352 20.1268 678.319 20.1268 678.916 20.7233L693.496 35.3019C694.092 35.8983 694.092 36.8653 693.496 37.4617L678.916 52.0403C678.319 52.6367 677.352 52.6367 676.756 52.0403L662.176 37.4617Z" stroke="#009592"/>
<path d="M652.425 131.65C652.425 132.493 653.109 133.177 653.953 133.177H667.344L676.812 142.645C677.409 143.242 678.377 143.242 678.973 142.645L688.442 133.177H701.832C702.676 133.177 703.361 132.493 703.361 131.65V118.26L712.829 108.793C713.426 108.196 713.426 107.229 712.829 106.632L703.361 97.1643V83.775C703.361 82.9312 702.676 82.2471 701.832 82.2471H688.442L678.973 72.7795C678.377 72.1828 677.409 72.1828 676.812 72.7795L667.344 82.2471H653.953C653.109 82.2471 652.425 82.9312 652.425 83.775V97.1643L642.957 106.632C642.36 107.229 642.36 108.196 642.957 108.793L652.425 118.26V131.65Z" stroke="#009592"/>
<path d="M674.324 111.054C674.324 111.173 674.42 111.268 674.538 111.268H676.417L677.745 112.597C677.829 112.68 677.965 112.68 678.048 112.597L679.377 111.268H681.255C681.373 111.268 681.469 111.173 681.469 111.054V109.176L682.798 107.848C682.881 107.764 682.881 107.628 682.798 107.544L681.469 106.216V104.338C681.469 104.22 681.373 104.124 681.255 104.124H679.377L678.048 102.795C677.965 102.712 677.829 102.712 677.745 102.795L676.417 104.124H674.538C674.42 104.124 674.324 104.22 674.324 104.338V106.216L672.996 107.544C672.912 107.628 672.912 107.764 672.996 107.848L674.324 109.176V111.054Z" stroke="#009592"/>
<path d="M657.532 90.3877C657.532 88.7008 658.9 87.3333 660.587 87.3333H695.207C696.894 87.3333 698.261 88.7008 698.261 90.3877V125.004C698.261 126.691 696.894 128.059 695.207 128.059H660.587C658.9 128.059 657.532 126.691 657.532 125.004V90.3877Z" stroke="#009592"/>
<path d="M662.176 108.715C661.579 108.119 661.579 107.152 662.176 106.555L676.756 91.9766C677.352 91.3802 678.319 91.3802 678.916 91.9766L693.496 106.555C694.092 107.152 694.092 108.119 693.496 108.715L678.916 123.294C678.319 123.89 677.352 123.89 676.756 123.294L662.176 108.715Z" stroke="#009592"/>
<path d="M723.702 60.3962C723.702 61.24 724.386 61.9241 725.23 61.9241H738.621L748.089 71.3917C748.686 71.9884 749.653 71.9884 750.25 71.3917L759.719 61.9241H773.109C773.953 61.9241 774.637 61.24 774.637 60.3962V47.0069L784.106 37.5393C784.703 36.9426 784.703 35.9752 784.106 35.3785L774.637 25.9109V12.5217C774.637 11.6778 773.953 10.9937 773.109 10.9937H759.719L750.25 1.52613C749.653 0.929442 748.686 0.929441 748.089 1.52613L738.621 10.9937L725.23 10.9937C724.386 10.9937 723.702 11.6778 723.702 12.5217V25.9109L714.233 35.3785C713.637 35.9752 713.637 36.9426 714.233 37.5393L723.702 47.0069V60.3962Z" stroke="#009592"/>
<path d="M745.601 39.8007C745.601 39.9191 745.697 40.0151 745.815 40.0151H747.693L749.022 41.3433C749.106 41.427 749.241 41.427 749.325 41.3433L750.653 40.0151H752.532C752.65 40.0151 752.746 39.9191 752.746 39.8007V37.9224L754.074 36.5942C754.158 36.5105 754.158 36.3748 754.074 36.2911L752.746 34.9629V33.0845C752.746 32.9662 752.65 32.8702 752.532 32.8702H750.653L749.325 31.542C749.241 31.4583 749.106 31.4583 749.022 31.542L747.693 32.8702H745.815C745.697 32.8702 745.601 32.9662 745.601 33.0845V34.9629L744.272 36.2911C744.189 36.3748 744.189 36.5105 744.272 36.5942L745.601 37.9224V39.8007Z" stroke="#009592"/>
<path d="M728.809 19.1343C728.809 17.4474 730.176 16.0799 731.863 16.0799H766.483C768.171 16.0799 769.538 17.4474 769.538 19.1343V53.751C769.538 55.4379 768.171 56.8054 766.483 56.8054H731.863C730.176 56.8054 728.809 55.4379 728.809 53.751V19.1343Z" stroke="#009592"/>
<path d="M733.452 37.4617C732.856 36.8653 732.856 35.8983 733.452 35.3019L748.033 20.7233C748.629 20.1268 749.596 20.1268 750.193 20.7233L764.773 35.3019C765.369 35.8983 765.369 36.8653 764.773 37.4617L750.193 52.0403C749.596 52.6367 748.629 52.6367 748.033 52.0403L733.452 37.4617Z" stroke="#009592"/>
<path d="M723.702 131.65C723.702 132.493 724.386 133.177 725.23 133.177H738.621L748.089 142.645C748.686 143.242 749.653 143.242 750.25 142.645L759.719 133.177H773.109C773.953 133.177 774.637 132.493 774.637 131.65V118.26L784.106 108.793C784.703 108.196 784.703 107.229 784.106 106.632L774.637 97.1643V83.775C774.637 82.9312 773.953 82.2471 773.109 82.2471L759.719 82.2471L750.25 72.7795C749.653 72.1828 748.686 72.1828 748.089 72.7795L738.621 82.2471H725.23C724.386 82.2471 723.702 82.9312 723.702 83.775V97.1643L714.233 106.632C713.637 107.229 713.637 108.196 714.233 108.793L723.702 118.26V131.65Z" stroke="#009592"/>
<path d="M745.601 111.054C745.601 111.173 745.697 111.268 745.815 111.268H747.693L749.022 112.597C749.106 112.68 749.241 112.68 749.325 112.597L750.653 111.268H752.532C752.65 111.268 752.746 111.173 752.746 111.054V109.176L754.074 107.848C754.158 107.764 754.158 107.628 754.074 107.544L752.746 106.216V104.338C752.746 104.22 752.65 104.124 752.532 104.124H750.653L749.325 102.795C749.241 102.712 749.106 102.712 749.022 102.795L747.693 104.124H745.815C745.697 104.124 745.601 104.22 745.601 104.338V106.216L744.272 107.544C744.189 107.628 744.189 107.764 744.272 107.848L745.601 109.176V111.054Z" stroke="#009592"/>
<path d="M728.809 90.3877C728.809 88.7008 730.176 87.3333 731.863 87.3333H766.483C768.171 87.3333 769.538 88.7008 769.538 90.3877V125.004C769.538 126.691 768.171 128.059 766.483 128.059H731.863C730.176 128.059 728.809 126.691 728.809 125.004V90.3877Z" stroke="#009592"/>
<path d="M733.452 108.715C732.856 108.119 732.856 107.152 733.452 106.555L748.033 91.9766C748.629 91.3802 749.596 91.3802 750.193 91.9766L764.773 106.555C765.369 107.152 765.369 108.119 764.773 108.715L750.193 123.294C749.596 123.89 748.629 123.89 748.033 123.294L733.452 108.715Z" stroke="#009592"/>
<path d="M794.979 60.3962C794.979 61.24 795.663 61.9241 796.507 61.9241H809.897L819.366 71.3917C819.963 71.9884 820.93 71.9884 821.527 71.3917L830.995 61.9241H844.386C845.23 61.9241 845.914 61.24 845.914 60.3962V47.0069L855.383 37.5393C855.979 36.9426 855.979 35.9752 855.383 35.3785L845.914 25.9109V12.5217C845.914 11.6778 845.23 10.9937 844.386 10.9937H830.995L821.527 1.52613C820.93 0.929442 819.963 0.929441 819.366 1.52613L809.897 10.9937L796.507 10.9937C795.663 10.9937 794.979 11.6778 794.979 12.5217V25.9109L785.51 35.3785C784.913 35.9752 784.913 36.9426 785.51 37.5393L794.979 47.0069V60.3962Z" stroke="#009592"/>
<path d="M816.877 39.8007C816.877 39.9191 816.973 40.0151 817.092 40.0151H818.97L820.299 41.3433C820.382 41.427 820.518 41.427 820.602 41.3433L821.93 40.0151H823.809C823.927 40.0151 824.023 39.9191 824.023 39.8007V37.9224L825.351 36.5942C825.435 36.5105 825.435 36.3748 825.351 36.2911L824.023 34.9629V33.0845C824.023 32.9662 823.927 32.8702 823.809 32.8702H821.93L820.602 31.542C820.518 31.4583 820.382 31.4583 820.299 31.542L818.97 32.8702H817.092C816.973 32.8702 816.877 32.9662 816.877 33.0845V34.9629L815.549 36.2911C815.465 36.3748 815.465 36.5105 815.549 36.5942L816.877 37.9224V39.8007Z" stroke="#009592"/>
<path d="M800.085 19.1343C800.085 17.4474 801.453 16.0799 803.14 16.0799H837.76C839.447 16.0799 840.815 17.4474 840.815 19.1343V53.751C840.815 55.4379 839.447 56.8054 837.76 56.8054H803.14C801.453 56.8054 800.085 55.4379 800.085 53.751V19.1343Z" stroke="#009592"/>
<path d="M804.729 37.4617C804.133 36.8653 804.133 35.8983 804.729 35.3019L819.309 20.7233C819.906 20.1268 820.873 20.1268 821.469 20.7233L836.049 35.3019C836.646 35.8983 836.646 36.8653 836.049 37.4617L821.469 52.0403C820.873 52.6367 819.906 52.6367 819.309 52.0403L804.729 37.4617Z" stroke="#009592"/>
<path d="M794.979 131.65C794.979 132.493 795.663 133.177 796.507 133.177H809.897L819.366 142.645C819.963 143.242 820.93 143.242 821.527 142.645L830.995 133.177H844.386C845.23 133.177 845.914 132.493 845.914 131.65V118.26L855.383 108.793C855.979 108.196 855.979 107.229 855.383 106.632L845.914 97.1643V83.775C845.914 82.9312 845.23 82.2471 844.386 82.2471H830.995L821.527 72.7795C820.93 72.1828 819.963 72.1828 819.366 72.7795L809.897 82.2471H796.507C795.663 82.2471 794.979 82.9312 794.979 83.775V97.1643L785.51 106.632C784.913 107.229 784.913 108.196 785.51 108.793L794.979 118.26V131.65Z" stroke="#009592"/>
<path d="M816.877 111.054C816.877 111.173 816.973 111.268 817.092 111.268H818.97L820.299 112.597C820.382 112.68 820.518 112.68 820.602 112.597L821.93 111.268H823.809C823.927 111.268 824.023 111.173 824.023 111.054V109.176L825.351 107.848C825.435 107.764 825.435 107.628 825.351 107.544L824.023 106.216V104.338C824.023 104.22 823.927 104.124 823.809 104.124H821.93L820.602 102.795C820.518 102.712 820.382 102.712 820.299 102.795L818.97 104.124H817.092C816.973 104.124 816.877 104.22 816.877 104.338V106.216L815.549 107.544C815.465 107.628 815.465 107.764 815.549 107.848L816.877 109.176V111.054Z" stroke="#009592"/>
<path d="M800.085 90.3877C800.085 88.7008 801.453 87.3333 803.14 87.3333H837.76C839.447 87.3333 840.815 88.7008 840.815 90.3877V125.004C840.815 126.691 839.447 128.059 837.76 128.059H803.14C801.453 128.059 800.085 126.691 800.085 125.004V90.3877Z" stroke="#009592"/>
<path d="M804.729 108.715C804.133 108.119 804.133 107.152 804.729 106.555L819.309 91.9766C819.906 91.3802 820.873 91.3802 821.469 91.9766L836.049 106.555C836.646 107.152 836.646 108.119 836.049 108.715L821.469 123.294C820.873 123.89 819.906 123.89 819.309 123.294L804.729 108.715Z" stroke="#009592"/>
<path d="M866.255 60.3962C866.255 61.24 866.94 61.9241 867.784 61.9241H881.174L890.643 71.3917C891.239 71.9884 892.207 71.9884 892.804 71.3917L902.272 61.9241H915.663C916.507 61.9241 917.191 61.24 917.191 60.3962V47.0069L926.659 37.5393C927.256 36.9426 927.256 35.9752 926.659 35.3785L917.191 25.9109V12.5217C917.191 11.6778 916.507 10.9937 915.663 10.9937H902.272L892.804 1.52613C892.207 0.929442 891.239 0.929441 890.643 1.52613L881.174 10.9937H867.784C866.94 10.9937 866.255 11.6778 866.255 12.5217V25.9109L856.787 35.3785C856.19 35.9752 856.19 36.9426 856.787 37.5393L866.255 47.0069V60.3962Z" stroke="#009592"/>
<path d="M888.154 39.8007C888.154 39.9191 888.25 40.0151 888.368 40.0151H890.247L891.575 41.3433C891.659 41.427 891.795 41.427 891.879 41.3433L893.207 40.0151H895.085C895.204 40.0151 895.3 39.9191 895.3 39.8007V37.9224L896.628 36.5942C896.712 36.5105 896.712 36.3748 896.628 36.2911L895.3 34.9629V33.0845C895.3 32.9662 895.204 32.8702 895.085 32.8702H893.207L891.879 31.542C891.795 31.4583 891.659 31.4583 891.575 31.542L890.247 32.8702H888.368C888.25 32.8702 888.154 32.9662 888.154 33.0845V34.9629L886.826 36.2911C886.742 36.3748 886.742 36.5105 886.826 36.5942L888.154 37.9224V39.8007Z" stroke="#009592"/>
<path d="M871.362 19.1343C871.362 17.4474 872.73 16.0799 874.417 16.0799H909.037C910.724 16.0799 912.092 17.4474 912.092 19.1343V53.751C912.092 55.4379 910.724 56.8054 909.037 56.8054L874.417 56.8054C872.73 56.8054 871.362 55.4379 871.362 53.751V19.1343Z" stroke="#009592"/>
<path d="M876.006 37.4617C875.409 36.8653 875.409 35.8983 876.006 35.3019L890.586 20.7233C891.183 20.1268 892.15 20.1268 892.746 20.7233L907.326 35.3019C907.923 35.8983 907.923 36.8653 907.326 37.4617L892.746 52.0403C892.15 52.6367 891.183 52.6367 890.586 52.0403L876.006 37.4617Z" stroke="#009592"/>
<path d="M866.255 131.65C866.255 132.493 866.94 133.177 867.784 133.177H881.174L890.643 142.645C891.239 143.242 892.207 143.242 892.804 142.645L902.272 133.177H915.663C916.507 133.177 917.191 132.493 917.191 131.65V118.26L926.659 108.793C927.256 108.196 927.256 107.229 926.659 106.632L917.191 97.1643V83.775C917.191 82.9312 916.507 82.2471 915.663 82.2471H902.272L892.804 72.7795C892.207 72.1828 891.239 72.1828 890.643 72.7795L881.174 82.2471H867.784C866.94 82.2471 866.255 82.9312 866.255 83.775V97.1643L856.787 106.632C856.19 107.229 856.19 108.196 856.787 108.793L866.255 118.26V131.65Z" stroke="#009592"/>
<path d="M888.154 111.054C888.154 111.173 888.25 111.268 888.368 111.268H890.247L891.575 112.597C891.659 112.68 891.795 112.68 891.879 112.597L893.207 111.268H895.085C895.204 111.268 895.3 111.173 895.3 111.054V109.176L896.628 107.848C896.712 107.764 896.712 107.628 896.628 107.544L895.3 106.216V104.338C895.3 104.22 895.204 104.124 895.085 104.124H893.207L891.879 102.795C891.795 102.712 891.659 102.712 891.575 102.795L890.247 104.124H888.368C888.25 104.124 888.154 104.22 888.154 104.338V106.216L886.826 107.544C886.742 107.628 886.742 107.764 886.826 107.848L888.154 109.176V111.054Z" stroke="#009592"/>
<path d="M871.362 90.3877C871.362 88.7008 872.73 87.3333 874.417 87.3333H909.037C910.724 87.3333 912.092 88.7008 912.092 90.3877V125.004C912.092 126.691 910.724 128.059 909.037 128.059H874.417C872.73 128.059 871.362 126.691 871.362 125.004V90.3877Z" stroke="#009592"/>
<path d="M876.006 108.715C875.409 108.119 875.409 107.152 876.006 106.555L890.586 91.9766C891.183 91.3802 892.15 91.3802 892.746 91.9766L907.326 106.555C907.923 107.152 907.923 108.119 907.326 108.715L892.746 123.294C892.15 123.89 891.183 123.89 890.586 123.294L876.006 108.715Z" stroke="#009592"/>
<path d="M937.532 60.3962C937.532 61.24 938.216 61.9241 939.06 61.9241H952.451L961.919 71.3917C962.516 71.9884 963.484 71.9884 964.08 71.3917L973.549 61.9241H986.94C987.784 61.9241 988.468 61.24 988.468 60.3962V47.0069L997.936 37.5393C998.533 36.9426 998.533 35.9752 997.936 35.3785L988.468 25.9109V12.5217C988.468 11.6778 987.784 10.9937 986.94 10.9937H973.549L964.08 1.52613C963.484 0.929442 962.516 0.929441 961.919 1.52613L952.451 10.9937H939.06C938.216 10.9937 937.532 11.6778 937.532 12.5217V25.9109L928.064 35.3785C927.467 35.9752 927.467 36.9426 928.064 37.5393L937.532 47.0069V60.3962Z" stroke="#009592"/>
<path d="M959.431 39.8007C959.431 39.9191 959.527 40.0151 959.645 40.0151H961.524L962.852 41.3433C962.936 41.427 963.072 41.427 963.155 41.3433L964.484 40.0151H966.362C966.481 40.0151 966.576 39.9191 966.576 39.8007V37.9224L967.905 36.5942C967.989 36.5105 967.989 36.3748 967.905 36.2911L966.576 34.9629V33.0845C966.576 32.9662 966.481 32.8702 966.362 32.8702H964.484L963.155 31.542C963.072 31.4583 962.936 31.4583 962.852 31.542L961.524 32.8702H959.645C959.527 32.8702 959.431 32.9662 959.431 33.0845V34.9629L958.103 36.2911C958.019 36.3748 958.019 36.5105 958.103 36.5942L959.431 37.9224V39.8007Z" stroke="#009592"/>
<path d="M942.639 19.1343C942.639 17.4474 944.007 16.0799 945.694 16.0799H980.314C982.001 16.0799 983.368 17.4474 983.368 19.1343V53.751C983.368 55.4379 982.001 56.8054 980.314 56.8054H945.694C944.007 56.8054 942.639 55.4379 942.639 53.751V19.1343Z" stroke="#009592"/>
<path d="M947.283 37.4617C946.686 36.8653 946.686 35.8983 947.283 35.3019L961.863 20.7233C962.459 20.1268 963.426 20.1268 964.023 20.7233L978.603 35.3019C979.199 35.8983 979.199 36.8653 978.603 37.4617L964.023 52.0403C963.426 52.6367 962.459 52.6367 961.863 52.0403L947.283 37.4617Z" stroke="#009592"/>
<path d="M937.532 131.65C937.532 132.493 938.216 133.177 939.06 133.177H952.451L961.919 142.645C962.516 143.242 963.484 143.242 964.08 142.645L973.549 133.177H986.94C987.784 133.177 988.468 132.493 988.468 131.65V118.26L997.936 108.793C998.533 108.196 998.533 107.229 997.936 106.632L988.468 97.1643V83.775C988.468 82.9312 987.784 82.2471 986.94 82.2471H973.549L964.08 72.7795C963.484 72.1828 962.516 72.1828 961.919 72.7795L952.451 82.2471H939.06C938.216 82.2471 937.532 82.9312 937.532 83.775V97.1643L928.064 106.632C927.467 107.229 927.467 108.196 928.064 108.793L937.532 118.26V131.65Z" stroke="#009592"/>
<path d="M959.431 111.054C959.431 111.173 959.527 111.268 959.645 111.268H961.524L962.852 112.597C962.936 112.68 963.072 112.68 963.155 112.597L964.484 111.268H966.362C966.481 111.268 966.576 111.173 966.576 111.054V109.176L967.905 107.848C967.989 107.764 967.989 107.628 967.905 107.544L966.576 106.216V104.338C966.576 104.22 966.481 104.124 966.362 104.124H964.484L963.155 102.795C963.072 102.712 962.936 102.712 962.852 102.795L961.524 104.124H959.645C959.527 104.124 959.431 104.22 959.431 104.338V106.216L958.103 107.544C958.019 107.628 958.019 107.764 958.103 107.848L959.431 109.176V111.054Z" stroke="#009592"/>
<path d="M942.639 90.3877C942.639 88.7008 944.007 87.3333 945.694 87.3333H980.314C982.001 87.3333 983.368 88.7008 983.368 90.3877V125.004C983.368 126.691 982.001 128.059 980.314 128.059H945.694C944.007 128.059 942.639 126.691 942.639 125.004V90.3877Z" stroke="#009592"/>
<path d="M947.283 108.715C946.686 108.119 946.686 107.152 947.283 106.555L961.863 91.9766C962.459 91.3802 963.426 91.3802 964.023 91.9766L978.603 106.555C979.199 107.152 979.199 108.119 978.603 108.715L964.023 123.294C963.426 123.89 962.459 123.89 961.863 123.294L947.283 108.715Z" stroke="#009592"/>
<path d="M1008.81 60.3962C1008.81 61.24 1009.49 61.9241 1010.34 61.9241H1023.73L1033.2 71.3917C1033.79 71.9884 1034.76 71.9884 1035.36 71.3917L1044.83 61.9241H1058.22C1059.06 61.9241 1059.74 61.24 1059.74 60.3962V47.0069L1069.21 37.5393C1069.81 36.9426 1069.81 35.9752 1069.21 35.3785L1059.74 25.9109V12.5217C1059.74 11.6778 1059.06 10.9937 1058.22 10.9937L1044.83 10.9937L1035.36 1.52613C1034.76 0.929442 1033.79 0.929441 1033.2 1.52613L1023.73 10.9937H1010.34C1009.49 10.9937 1008.81 11.6778 1008.81 12.5217V25.9109L999.34 35.3785C998.744 35.9752 998.744 36.9426 999.34 37.5393L1008.81 47.0069V60.3962Z" stroke="#009592"/>
<path d="M1030.71 39.8007C1030.71 39.9191 1030.8 40.0151 1030.92 40.0151H1032.8L1034.13 41.3433C1034.21 41.427 1034.35 41.427 1034.43 41.3433L1035.76 40.0151H1037.64C1037.76 40.0151 1037.85 39.9191 1037.85 39.8007V37.9224L1039.18 36.5942C1039.27 36.5105 1039.27 36.3748 1039.18 36.2911L1037.85 34.9629V33.0845C1037.85 32.9662 1037.76 32.8702 1037.64 32.8702H1035.76L1034.43 31.542C1034.35 31.4583 1034.21 31.4583 1034.13 31.542L1032.8 32.8702H1030.92C1030.8 32.8702 1030.71 32.9662 1030.71 33.0845V34.9629L1029.38 36.2911C1029.3 36.3748 1029.3 36.5105 1029.38 36.5942L1030.71 37.9224V39.8007Z" stroke="#009592"/>
<path d="M1013.92 19.1343C1013.92 17.4474 1015.28 16.0799 1016.97 16.0799H1051.59C1053.28 16.0799 1054.65 17.4474 1054.65 19.1343V53.751C1054.65 55.4379 1053.28 56.8054 1051.59 56.8054H1016.97C1015.28 56.8054 1013.92 55.4379 1013.92 53.751V19.1343Z" stroke="#009592"/>
<path d="M1018.56 37.4617C1017.96 36.8653 1017.96 35.8983 1018.56 35.3019L1033.14 20.7233C1033.74 20.1268 1034.7 20.1268 1035.3 20.7233L1049.88 35.3019C1050.48 35.8983 1050.48 36.8653 1049.88 37.4617L1035.3 52.0403C1034.7 52.6367 1033.74 52.6367 1033.14 52.0403L1018.56 37.4617Z" stroke="#009592"/>
<path d="M1008.81 131.65C1008.81 132.493 1009.49 133.177 1010.34 133.177H1023.73L1033.2 142.645C1033.79 143.242 1034.76 143.242 1035.36 142.645L1044.83 133.177H1058.22C1059.06 133.177 1059.74 132.493 1059.74 131.65V118.26L1069.21 108.793C1069.81 108.196 1069.81 107.229 1069.21 106.632L1059.74 97.1643V83.775C1059.74 82.9312 1059.06 82.2471 1058.22 82.2471H1044.83L1035.36 72.7795C1034.76 72.1828 1033.79 72.1828 1033.2 72.7795L1023.73 82.2471H1010.34C1009.49 82.2471 1008.81 82.9312 1008.81 83.775V97.1643L999.34 106.632C998.744 107.229 998.744 108.196 999.34 108.793L1008.81 118.26V131.65Z" stroke="#009592"/>
<path d="M1030.71 111.054C1030.71 111.173 1030.8 111.268 1030.92 111.268H1032.8L1034.13 112.597C1034.21 112.68 1034.35 112.68 1034.43 112.597L1035.76 111.268H1037.64C1037.76 111.268 1037.85 111.173 1037.85 111.054V109.176L1039.18 107.848C1039.27 107.764 1039.27 107.628 1039.18 107.544L1037.85 106.216V104.338C1037.85 104.22 1037.76 104.124 1037.64 104.124H1035.76L1034.43 102.795C1034.35 102.712 1034.21 102.712 1034.13 102.795L1032.8 104.124H1030.92C1030.8 104.124 1030.71 104.22 1030.71 104.338V106.216L1029.38 107.544C1029.3 107.628 1029.3 107.764 1029.38 107.848L1030.71 109.176V111.054Z" stroke="#009592"/>
<path d="M1013.92 90.3877C1013.92 88.7008 1015.28 87.3333 1016.97 87.3333H1051.59C1053.28 87.3333 1054.65 88.7008 1054.65 90.3877V125.004C1054.65 126.691 1053.28 128.059 1051.59 128.059H1016.97C1015.28 128.059 1013.92 126.691 1013.92 125.004V90.3877Z" stroke="#009592"/>
<path d="M1018.56 108.715C1017.96 108.119 1017.96 107.152 1018.56 106.555L1033.14 91.9766C1033.74 91.3802 1034.7 91.3802 1035.3 91.9766L1049.88 106.555C1050.48 107.152 1050.48 108.119 1049.88 108.715L1035.3 123.294C1034.7 123.89 1033.74 123.89 1033.14 123.294L1018.56 108.715Z" stroke="#009592"/>
<path d="M1080.09 60.3962C1080.09 61.24 1080.77 61.9241 1081.61 61.9241H1095L1104.47 71.3917C1105.07 71.9884 1106.04 71.9884 1106.63 71.3917L1116.1 61.9241H1129.49C1130.34 61.9241 1131.02 61.24 1131.02 60.3962V47.0069L1140.49 37.5393C1141.09 36.9426 1141.09 35.9752 1140.49 35.3785L1131.02 25.9109V12.5217C1131.02 11.6778 1130.34 10.9937 1129.49 10.9937L1116.1 10.9937L1106.63 1.52613C1106.04 0.929442 1105.07 0.929441 1104.47 1.52613L1095 10.9937H1081.61C1080.77 10.9937 1080.09 11.6778 1080.09 12.5217V25.9109L1070.62 35.3785C1070.02 35.9752 1070.02 36.9426 1070.62 37.5393L1080.09 47.0069V60.3962Z" stroke="#009592"/>
<path d="M1101.98 39.8007C1101.98 39.9191 1102.08 40.0151 1102.2 40.0151H1104.08L1105.41 41.3433C1105.49 41.427 1105.63 41.427 1105.71 41.3433L1107.04 40.0151H1108.92C1109.03 40.0151 1109.13 39.9191 1109.13 39.8007V37.9224L1110.46 36.5942C1110.54 36.5105 1110.54 36.3748 1110.46 36.2911L1109.13 34.9629V33.0845C1109.13 32.9662 1109.03 32.8702 1108.92 32.8702H1107.04L1105.71 31.542C1105.63 31.4583 1105.49 31.4583 1105.41 31.542L1104.08 32.8702H1102.2C1102.08 32.8702 1101.98 32.9662 1101.98 33.0845V34.9629L1100.66 36.2911C1100.57 36.3748 1100.57 36.5105 1100.66 36.5942L1101.98 37.9224V39.8007Z" stroke="#009592"/>
<path d="M1085.19 19.1343C1085.19 17.4474 1086.56 16.0799 1088.25 16.0799L1122.87 16.0799C1124.55 16.0799 1125.92 17.4474 1125.92 19.1343V53.751C1125.92 55.4379 1124.55 56.8054 1122.87 56.8054H1088.25C1086.56 56.8054 1085.19 55.4379 1085.19 53.751V19.1343Z" stroke="#009592"/>
<path d="M1089.84 37.4617C1089.24 36.8653 1089.24 35.8983 1089.84 35.3019L1104.42 20.7233C1105.01 20.1268 1105.98 20.1268 1106.58 20.7233L1121.16 35.3019C1121.75 35.8983 1121.75 36.8653 1121.16 37.4617L1106.58 52.0403C1105.98 52.6367 1105.01 52.6367 1104.42 52.0403L1089.84 37.4617Z" stroke="#009592"/>
<path d="M1080.09 131.65C1080.09 132.493 1080.77 133.177 1081.61 133.177H1095L1104.47 142.645C1105.07 143.242 1106.04 143.242 1106.63 142.645L1116.1 133.177H1129.49C1130.34 133.177 1131.02 132.493 1131.02 131.65V118.26L1140.49 108.793C1141.09 108.196 1141.09 107.229 1140.49 106.632L1131.02 97.1643V83.775C1131.02 82.9312 1130.34 82.2471 1129.49 82.2471H1116.1L1106.63 72.7795C1106.04 72.1828 1105.07 72.1828 1104.47 72.7795L1095 82.2471H1081.61C1080.77 82.2471 1080.09 82.9312 1080.09 83.775V97.1643L1070.62 106.632C1070.02 107.229 1070.02 108.196 1070.62 108.793L1080.09 118.26V131.65Z" stroke="#009592"/>
<path d="M1101.98 111.054C1101.98 111.173 1102.08 111.268 1102.2 111.268H1104.08L1105.41 112.597C1105.49 112.68 1105.63 112.68 1105.71 112.597L1107.04 111.268H1108.92C1109.03 111.268 1109.13 111.173 1109.13 111.054V109.176L1110.46 107.848C1110.54 107.764 1110.54 107.628 1110.46 107.544L1109.13 106.216V104.338C1109.13 104.22 1109.03 104.124 1108.92 104.124H1107.04L1105.71 102.795C1105.63 102.712 1105.49 102.712 1105.41 102.795L1104.08 104.124H1102.2C1102.08 104.124 1101.98 104.22 1101.98 104.338V106.216L1100.66 107.544C1100.57 107.628 1100.57 107.764 1100.66 107.848L1101.98 109.176V111.054Z" stroke="#009592"/>
<path d="M1085.19 90.3877C1085.19 88.7008 1086.56 87.3333 1088.25 87.3333H1122.87C1124.55 87.3333 1125.92 88.7008 1125.92 90.3877V125.004C1125.92 126.691 1124.55 128.059 1122.87 128.059H1088.25C1086.56 128.059 1085.19 126.691 1085.19 125.004V90.3877Z" stroke="#009592"/>
<path d="M1089.84 108.715C1089.24 108.119 1089.24 107.152 1089.84 106.555L1104.42 91.9766C1105.01 91.3802 1105.98 91.3802 1106.58 91.9766L1121.16 106.555C1121.75 107.152 1121.75 108.119 1121.16 108.715L1106.58 123.294C1105.98 123.89 1105.01 123.89 1104.42 123.294L1089.84 108.715Z" stroke="#009592"/>
<path d="M1151.36 60.3962C1151.36 61.24 1152.05 61.9241 1152.89 61.9241H1166.28L1175.75 71.3917C1176.35 71.9884 1177.31 71.9884 1177.91 71.3917L1187.38 61.9241H1200.77C1201.61 61.9241 1202.3 61.24 1202.3 60.3962V47.0069L1211.77 37.5393C1212.36 36.9426 1212.36 35.9752 1211.77 35.3785L1202.3 25.9109V12.5217C1202.3 11.6778 1201.61 10.9937 1200.77 10.9937H1187.38L1177.91 1.52613C1177.31 0.929442 1176.35 0.929441 1175.75 1.52613L1166.28 10.9937H1152.89C1152.05 10.9937 1151.36 11.6778 1151.36 12.5217V25.9109L1141.89 35.3785C1141.3 35.9752 1141.3 36.9426 1141.89 37.5393L1151.36 47.0069V60.3962Z" stroke="#009592"/>
<path d="M1173.26 39.8007C1173.26 39.9191 1173.36 40.0151 1173.48 40.0151H1175.35L1176.68 41.3433C1176.77 41.427 1176.9 41.427 1176.99 41.3433L1178.31 40.0151H1180.19C1180.31 40.0151 1180.41 39.9191 1180.41 39.8007V37.9224L1181.74 36.5942C1181.82 36.5105 1181.82 36.3748 1181.74 36.2911L1180.41 34.9629V33.0845C1180.41 32.9662 1180.31 32.8702 1180.19 32.8702H1178.31L1176.99 31.542C1176.9 31.4583 1176.77 31.4583 1176.68 31.542L1175.35 32.8702H1173.48C1173.36 32.8702 1173.26 32.9662 1173.26 33.0845V34.9629L1171.93 36.2911C1171.85 36.3748 1171.85 36.5105 1171.93 36.5942L1173.26 37.9224V39.8007Z" stroke="#009592"/>
<path d="M1156.47 19.1343C1156.47 17.4474 1157.84 16.0799 1159.52 16.0799L1194.14 16.0799C1195.83 16.0799 1197.2 17.4474 1197.2 19.1343V53.751C1197.2 55.4379 1195.83 56.8054 1194.14 56.8054H1159.52C1157.84 56.8054 1156.47 55.4379 1156.47 53.751V19.1343Z" stroke="#009592"/>
<path d="M1161.11 37.4617C1160.52 36.8653 1160.52 35.8983 1161.11 35.3019L1175.69 20.7233C1176.29 20.1268 1177.26 20.1268 1177.85 20.7233L1192.43 35.3019C1193.03 35.8983 1193.03 36.8653 1192.43 37.4617L1177.85 52.0403C1177.26 52.6367 1176.29 52.6367 1175.69 52.0403L1161.11 37.4617Z" stroke="#009592"/>
<path d="M1151.36 131.65C1151.36 132.493 1152.05 133.177 1152.89 133.177H1166.28L1175.75 142.645C1176.35 143.242 1177.31 143.242 1177.91 142.645L1187.38 133.177H1200.77C1201.61 133.177 1202.3 132.493 1202.3 131.65V118.26L1211.77 108.793C1212.36 108.196 1212.36 107.229 1211.77 106.632L1202.3 97.1643V83.775C1202.3 82.9312 1201.61 82.2471 1200.77 82.2471H1187.38L1177.91 72.7795C1177.31 72.1828 1176.35 72.1828 1175.75 72.7795L1166.28 82.2471H1152.89C1152.05 82.2471 1151.36 82.9312 1151.36 83.775V97.1643L1141.89 106.632C1141.3 107.229 1141.3 108.196 1141.89 108.793L1151.36 118.26V131.65Z" stroke="#009592"/>
<path d="M1173.26 111.054C1173.26 111.173 1173.36 111.268 1173.48 111.268H1175.35L1176.68 112.597C1176.77 112.68 1176.9 112.68 1176.99 112.597L1178.31 111.268H1180.19C1180.31 111.268 1180.41 111.173 1180.41 111.054V109.176L1181.74 107.848C1181.82 107.764 1181.82 107.628 1181.74 107.544L1180.41 106.216V104.338C1180.41 104.22 1180.31 104.124 1180.19 104.124H1178.31L1176.99 102.795C1176.9 102.712 1176.77 102.712 1176.68 102.795L1175.35 104.124H1173.48C1173.36 104.124 1173.26 104.22 1173.26 104.338V106.216L1171.93 107.544C1171.85 107.628 1171.85 107.764 1171.93 107.848L1173.26 109.176V111.054Z" stroke="#009592"/>
<path d="M1156.47 90.3877C1156.47 88.7008 1157.84 87.3333 1159.52 87.3333H1194.14C1195.83 87.3333 1197.2 88.7008 1197.2 90.3877V125.004C1197.2 126.691 1195.83 128.059 1194.14 128.059H1159.52C1157.84 128.059 1156.47 126.691 1156.47 125.004V90.3877Z" stroke="#009592"/>
<path d="M1161.11 108.715C1160.52 108.119 1160.52 107.152 1161.11 106.555L1175.69 91.9766C1176.29 91.3802 1177.26 91.3802 1177.85 91.9766L1192.43 106.555C1193.03 107.152 1193.03 108.119 1192.43 108.715L1177.85 123.294C1177.26 123.89 1176.29 123.89 1175.69 123.294L1161.11 108.715Z" stroke="#009592"/>
<path d="M1222.64 60.3962C1222.64 61.24 1223.32 61.9241 1224.17 61.9241H1237.56L1247.03 71.3917C1247.62 71.9884 1248.59 71.9884 1249.19 71.3917L1258.66 61.9241H1272.05C1272.89 61.9241 1273.57 61.24 1273.57 60.3962V47.0069L1283.04 37.5393C1283.64 36.9426 1283.64 35.9752 1283.04 35.3785L1273.57 25.9109V12.5217C1273.57 11.6778 1272.89 10.9937 1272.05 10.9937H1258.66L1249.19 1.52613C1248.59 0.929442 1247.62 0.929441 1247.03 1.52613L1237.56 10.9937H1224.17C1223.32 10.9937 1222.64 11.6778 1222.64 12.5217V25.9109L1213.17 35.3785C1212.57 35.9752 1212.57 36.9426 1213.17 37.5393L1222.64 47.0069V60.3962Z" stroke="#009592"/>
<path d="M1244.54 39.8007C1244.54 39.9191 1244.63 40.0151 1244.75 40.0151H1246.63L1247.96 41.3433C1248.04 41.427 1248.18 41.427 1248.26 41.3433L1249.59 40.0151H1251.47C1251.59 40.0151 1251.68 39.9191 1251.68 39.8007V37.9224L1253.01 36.5942C1253.1 36.5105 1253.1 36.3748 1253.01 36.2911L1251.68 34.9629V33.0845C1251.68 32.9662 1251.59 32.8702 1251.47 32.8702H1249.59L1248.26 31.542C1248.18 31.4583 1248.04 31.4583 1247.96 31.542L1246.63 32.8702H1244.75C1244.63 32.8702 1244.54 32.9662 1244.54 33.0845V34.9629L1243.21 36.2911C1243.13 36.3748 1243.13 36.5105 1243.21 36.5942L1244.54 37.9224V39.8007Z" stroke="#009592"/>
<path d="M1227.75 19.1343C1227.75 17.4474 1229.11 16.0799 1230.8 16.0799H1265.42C1267.11 16.0799 1268.48 17.4474 1268.48 19.1343V53.751C1268.48 55.4379 1267.11 56.8054 1265.42 56.8054H1230.8C1229.11 56.8054 1227.75 55.4379 1227.75 53.751V19.1343Z" stroke="#009592"/>
<path d="M1232.39 37.4617C1231.79 36.8653 1231.79 35.8983 1232.39 35.3019L1246.97 20.7233C1247.57 20.1268 1248.53 20.1268 1249.13 20.7233L1263.71 35.3019C1264.31 35.8983 1264.31 36.8653 1263.71 37.4617L1249.13 52.0403C1248.53 52.6367 1247.57 52.6367 1246.97 52.0403L1232.39 37.4617Z" stroke="#009592"/>
<path d="M1222.64 131.65C1222.64 132.493 1223.32 133.177 1224.17 133.177H1237.56L1247.03 142.645C1247.62 143.242 1248.59 143.242 1249.19 142.645L1258.66 133.177H1272.05C1272.89 133.177 1273.57 132.493 1273.57 131.65V118.26L1283.04 108.793C1283.64 108.196 1283.64 107.229 1283.04 106.632L1273.57 97.1643V83.775C1273.57 82.9312 1272.89 82.2471 1272.05 82.2471H1258.66L1249.19 72.7795C1248.59 72.1828 1247.62 72.1828 1247.03 72.7795L1237.56 82.2471H1224.17C1223.32 82.2471 1222.64 82.9312 1222.64 83.775V97.1643L1213.17 106.632C1212.57 107.229 1212.57 108.196 1213.17 108.793L1222.64 118.26V131.65Z" stroke="#009592"/>
<path d="M1244.54 111.054C1244.54 111.173 1244.63 111.268 1244.75 111.268H1246.63L1247.96 112.597C1248.04 112.68 1248.18 112.68 1248.26 112.597L1249.59 111.268H1251.47C1251.59 111.268 1251.68 111.173 1251.68 111.054V109.176L1253.01 107.848C1253.1 107.764 1253.1 107.628 1253.01 107.544L1251.68 106.216V104.338C1251.68 104.22 1251.59 104.124 1251.47 104.124H1249.59L1248.26 102.795C1248.18 102.712 1248.04 102.712 1247.96 102.795L1246.63 104.124H1244.75C1244.63 104.124 1244.54 104.22 1244.54 104.338V106.216L1243.21 107.544C1243.13 107.628 1243.13 107.764 1243.21 107.848L1244.54 109.176V111.054Z" stroke="#009592"/>
<path d="M1227.75 90.3877C1227.75 88.7008 1229.11 87.3333 1230.8 87.3333H1265.42C1267.11 87.3333 1268.48 88.7008 1268.48 90.3877V125.004C1268.48 126.691 1267.11 128.059 1265.42 128.059H1230.8C1229.11 128.059 1227.75 126.691 1227.75 125.004V90.3877Z" stroke="#009592"/>
<path d="M1232.39 108.715C1231.79 108.119 1231.79 107.152 1232.39 106.555L1246.97 91.9766C1247.57 91.3802 1248.53 91.3802 1249.13 91.9766L1263.71 106.555C1264.31 107.152 1264.31 108.119 1263.71 108.715L1249.13 123.294C1248.53 123.89 1247.57 123.89 1246.97 123.294L1232.39 108.715Z" stroke="#009592"/>
<path d="M1294.93 60.3962C1294.93 61.24 1295.62 61.9241 1296.46 61.9241H1309.85L1319.32 71.3917C1319.92 71.9884 1320.89 71.9884 1321.48 71.3917L1330.95 61.9241H1344.34C1345.19 61.9241 1345.87 61.24 1345.87 60.3962V47.0069L1355.34 37.5393C1355.93 36.9426 1355.93 35.9752 1355.34 35.3785L1345.87 25.9109V12.5217C1345.87 11.6778 1345.19 10.9937 1344.34 10.9937H1330.95L1321.48 1.52613C1320.89 0.929442 1319.92 0.929441 1319.32 1.52613L1309.85 10.9937H1296.46C1295.62 10.9937 1294.93 11.6778 1294.93 12.5217V25.9109L1285.47 35.3785C1284.87 35.9752 1284.87 36.9426 1285.47 37.5393L1294.93 47.0069V60.3962Z" stroke="#009592"/>
<path d="M1316.83 39.8007C1316.83 39.9191 1316.93 40.0151 1317.05 40.0151H1318.93L1320.25 41.3433C1320.34 41.427 1320.47 41.427 1320.56 41.3433L1321.89 40.0151H1323.76C1323.88 40.0151 1323.98 39.9191 1323.98 39.8007V37.9224L1325.31 36.5942C1325.39 36.5105 1325.39 36.3748 1325.31 36.2911L1323.98 34.9629V33.0845C1323.98 32.9662 1323.88 32.8702 1323.76 32.8702H1321.89L1320.56 31.542C1320.47 31.4583 1320.34 31.4583 1320.25 31.542L1318.93 32.8702H1317.05C1316.93 32.8702 1316.83 32.9662 1316.83 33.0845V34.9629L1315.5 36.2911C1315.42 36.3748 1315.42 36.5105 1315.5 36.5942L1316.83 37.9224V39.8007Z" stroke="#009592"/>
<path d="M1300.04 19.1343C1300.04 17.4474 1301.41 16.0799 1303.1 16.0799H1337.72C1339.4 16.0799 1340.77 17.4474 1340.77 19.1343V53.751C1340.77 55.4379 1339.4 56.8054 1337.72 56.8054H1303.1C1301.41 56.8054 1300.04 55.4379 1300.04 53.751V19.1343Z" stroke="#009592"/>
<path d="M1304.68 37.4617C1304.09 36.8653 1304.09 35.8983 1304.68 35.3019L1319.26 20.7233C1319.86 20.1268 1320.83 20.1268 1321.42 20.7233L1336 35.3019C1336.6 35.8983 1336.6 36.8653 1336 37.4617L1321.42 52.0403C1320.83 52.6367 1319.86 52.6367 1319.26 52.0403L1304.68 37.4617Z" stroke="#009592"/>
<path d="M1294.93 131.65C1294.93 132.493 1295.62 133.177 1296.46 133.177H1309.85L1319.32 142.645C1319.92 143.242 1320.89 143.242 1321.48 142.645L1330.95 133.177H1344.34C1345.19 133.177 1345.87 132.493 1345.87 131.65V118.26L1355.34 108.793C1355.93 108.196 1355.93 107.229 1355.34 106.632L1345.87 97.1643V83.775C1345.87 82.9312 1345.19 82.2471 1344.34 82.2471H1330.95L1321.48 72.7795C1320.89 72.1828 1319.92 72.1828 1319.32 72.7795L1309.85 82.2471H1296.46C1295.62 82.2471 1294.93 82.9312 1294.93 83.775V97.1643L1285.47 106.632C1284.87 107.229 1284.87 108.196 1285.47 108.793L1294.93 118.26V131.65Z" stroke="#009592"/>
<path d="M1316.83 111.054C1316.83 111.173 1316.93 111.268 1317.05 111.268H1318.93L1320.25 112.597C1320.34 112.68 1320.47 112.68 1320.56 112.597L1321.89 111.268H1323.76C1323.88 111.268 1323.98 111.173 1323.98 111.054V109.176L1325.31 107.848C1325.39 107.764 1325.39 107.628 1325.31 107.544L1323.98 106.216V104.338C1323.98 104.22 1323.88 104.124 1323.76 104.124H1321.89L1320.56 102.795C1320.47 102.712 1320.34 102.712 1320.25 102.795L1318.93 104.124H1317.05C1316.93 104.124 1316.83 104.22 1316.83 104.338V106.216L1315.5 107.544C1315.42 107.628 1315.42 107.764 1315.5 107.848L1316.83 109.176V111.054Z" stroke="#009592"/>
<path d="M1300.04 90.3877C1300.04 88.7008 1301.41 87.3333 1303.1 87.3333H1337.72C1339.4 87.3333 1340.77 88.7008 1340.77 90.3877V125.004C1340.77 126.691 1339.4 128.059 1337.72 128.059H1303.1C1301.41 128.059 1300.04 126.691 1300.04 125.004V90.3877Z" stroke="#009592"/>
<path d="M1304.68 108.715C1304.09 108.119 1304.09 107.152 1304.68 106.555L1319.26 91.9766C1319.86 91.3802 1320.83 91.3802 1321.42 91.9766L1336 106.555C1336.6 107.152 1336.6 108.119 1336 108.715L1321.42 123.294C1320.83 123.89 1319.86 123.89 1319.26 123.294L1304.68 108.715Z" stroke="#009592"/>
<path d="M1366.21 60.3962C1366.21 61.24 1366.9 61.9241 1367.74 61.9241H1381.13L1390.6 71.3917C1391.19 71.9884 1392.16 71.9884 1392.76 71.3917L1402.23 61.9241L1415.62 61.9241C1416.46 61.9241 1417.15 61.24 1417.15 60.3962V47.0069L1426.61 37.5393C1427.21 36.9426 1427.21 35.9752 1426.61 35.3785L1417.15 25.9109V12.5217C1417.15 11.6778 1416.46 10.9937 1415.62 10.9937H1402.23L1392.76 1.52613C1392.16 0.929442 1391.19 0.929441 1390.6 1.52613L1381.13 10.9937L1367.74 10.9937C1366.9 10.9937 1366.21 11.6778 1366.21 12.5217V25.9109L1356.74 35.3785C1356.15 35.9752 1356.15 36.9426 1356.74 37.5393L1366.21 47.0069V60.3962Z" stroke="#009592"/>
<path d="M1388.11 39.8007C1388.11 39.9191 1388.21 40.0151 1388.32 40.0151H1390.2L1391.53 41.3433C1391.61 41.427 1391.75 41.427 1391.83 41.3433L1393.16 40.0151H1395.04C1395.16 40.0151 1395.26 39.9191 1395.26 39.8007V37.9224L1396.58 36.5942C1396.67 36.5105 1396.67 36.3748 1396.58 36.2911L1395.26 34.9629V33.0845C1395.26 32.9662 1395.16 32.8702 1395.04 32.8702H1393.16L1391.83 31.542C1391.75 31.4583 1391.61 31.4583 1391.53 31.542L1390.2 32.8702H1388.32C1388.21 32.8702 1388.11 32.9662 1388.11 33.0845V34.9629L1386.78 36.2911C1386.7 36.3748 1386.7 36.5105 1386.78 36.5942L1388.11 37.9224V39.8007Z" stroke="#009592"/>
<path d="M1371.32 19.1343C1371.32 17.4474 1372.69 16.0799 1374.37 16.0799L1408.99 16.0799C1410.68 16.0799 1412.05 17.4474 1412.05 19.1343V53.751C1412.05 55.4379 1410.68 56.8054 1408.99 56.8054L1374.37 56.8054C1372.69 56.8054 1371.32 55.4379 1371.32 53.751V19.1343Z" stroke="#009592"/>
<path d="M1375.96 37.4617C1375.36 36.8653 1375.36 35.8983 1375.96 35.3019L1390.54 20.7233C1391.14 20.1268 1392.11 20.1268 1392.7 20.7233L1407.28 35.3019C1407.88 35.8983 1407.88 36.8653 1407.28 37.4617L1392.7 52.0403C1392.11 52.6367 1391.14 52.6367 1390.54 52.0403L1375.96 37.4617Z" stroke="#009592"/>
<path d="M1366.21 131.65C1366.21 132.493 1366.9 133.177 1367.74 133.177H1381.13L1390.6 142.645C1391.19 143.242 1392.16 143.242 1392.76 142.645L1402.23 133.177H1415.62C1416.46 133.177 1417.15 132.493 1417.15 131.65V118.26L1426.61 108.793C1427.21 108.196 1427.21 107.229 1426.61 106.632L1417.15 97.1643V83.775C1417.15 82.9312 1416.46 82.2471 1415.62 82.2471H1402.23L1392.76 72.7795C1392.16 72.1828 1391.19 72.1828 1390.6 72.7795L1381.13 82.2471H1367.74C1366.9 82.2471 1366.21 82.9312 1366.21 83.775V97.1643L1356.74 106.632C1356.15 107.229 1356.15 108.196 1356.74 108.793L1366.21 118.26V131.65Z" stroke="#009592"/>
<path d="M1388.11 111.054C1388.11 111.173 1388.21 111.268 1388.32 111.268H1390.2L1391.53 112.597C1391.61 112.68 1391.75 112.68 1391.83 112.597L1393.16 111.268H1395.04C1395.16 111.268 1395.26 111.173 1395.26 111.054V109.176L1396.58 107.848C1396.67 107.764 1396.67 107.628 1396.58 107.544L1395.26 106.216V104.338C1395.26 104.22 1395.16 104.124 1395.04 104.124H1393.16L1391.83 102.795C1391.75 102.712 1391.61 102.712 1391.53 102.795L1390.2 104.124H1388.32C1388.21 104.124 1388.11 104.22 1388.11 104.338V106.216L1386.78 107.544C1386.7 107.628 1386.7 107.764 1386.78 107.848L1388.11 109.176V111.054Z" stroke="#009592"/>
<path d="M1371.32 90.3877C1371.32 88.7008 1372.69 87.3333 1374.37 87.3333H1408.99C1410.68 87.3333 1412.05 88.7008 1412.05 90.3877V125.004C1412.05 126.691 1410.68 128.059 1408.99 128.059H1374.37C1372.69 128.059 1371.32 126.691 1371.32 125.004V90.3877Z" stroke="#009592"/>
<path d="M1375.96 108.715C1375.36 108.119 1375.36 107.152 1375.96 106.555L1390.54 91.9766C1391.14 91.3802 1392.11 91.3802 1392.7 91.9766L1407.28 106.555C1407.88 107.152 1407.88 108.119 1407.28 108.715L1392.7 123.294C1392.11 123.89 1391.14 123.89 1390.54 123.294L1375.96 108.715Z" stroke="#009592"/>
<path d="M1437.49 60.3962C1437.49 61.24 1438.17 61.9241 1439.02 61.9241H1452.41L1461.87 71.3917C1462.47 71.9884 1463.44 71.9884 1464.04 71.3917L1473.5 61.9241H1486.9C1487.74 61.9241 1488.42 61.24 1488.42 60.3962V47.0069L1497.89 37.5393C1498.49 36.9426 1498.49 35.9752 1497.89 35.3785L1488.42 25.9109V12.5217C1488.42 11.6778 1487.74 10.9937 1486.9 10.9937H1473.5L1464.04 1.52613C1463.44 0.929442 1462.47 0.929441 1461.87 1.52613L1452.41 10.9937L1439.02 10.9937C1438.17 10.9937 1437.49 11.6778 1437.49 12.5217V25.9109L1428.02 35.3785C1427.42 35.9752 1427.42 36.9426 1428.02 37.5393L1437.49 47.0069V60.3962Z" stroke="#009592"/>
<path d="M1459.39 39.8007C1459.39 39.9191 1459.48 40.0151 1459.6 40.0151H1461.48L1462.81 41.3433C1462.89 41.427 1463.03 41.427 1463.11 41.3433L1464.44 40.0151H1466.32C1466.44 40.0151 1466.53 39.9191 1466.53 39.8007V37.9224L1467.86 36.5942C1467.94 36.5105 1467.94 36.3748 1467.86 36.2911L1466.53 34.9629V33.0845C1466.53 32.9662 1466.44 32.8702 1466.32 32.8702H1464.44L1463.11 31.542C1463.03 31.4583 1462.89 31.4583 1462.81 31.542L1461.48 32.8702H1459.6C1459.48 32.8702 1459.39 32.9662 1459.39 33.0845V34.9629L1458.06 36.2911C1457.97 36.3748 1457.97 36.5105 1458.06 36.5942L1459.39 37.9224V39.8007Z" stroke="#009592"/>
<path d="M1442.59 19.1343C1442.59 17.4474 1443.96 16.0799 1445.65 16.0799H1480.27C1481.96 16.0799 1483.32 17.4474 1483.32 19.1343V53.751C1483.32 55.4379 1481.96 56.8054 1480.27 56.8054H1445.65C1443.96 56.8054 1442.59 55.4379 1442.59 53.751V19.1343Z" stroke="#009592"/>
<path d="M1447.24 37.4617C1446.64 36.8653 1446.64 35.8983 1447.24 35.3019L1461.82 20.7233C1462.41 20.1268 1463.38 20.1268 1463.98 20.7233L1478.56 35.3019C1479.15 35.8983 1479.15 36.8653 1478.56 37.4617L1463.98 52.0403C1463.38 52.6367 1462.41 52.6367 1461.82 52.0403L1447.24 37.4617Z" stroke="#009592"/>
<path d="M1437.49 131.65C1437.49 132.493 1438.17 133.177 1439.02 133.177H1452.41L1461.87 142.645C1462.47 143.242 1463.44 143.242 1464.04 142.645L1473.5 133.177H1486.9C1487.74 133.177 1488.42 132.493 1488.42 131.65V118.26L1497.89 108.793C1498.49 108.196 1498.49 107.229 1497.89 106.632L1488.42 97.1643V83.775C1488.42 82.9312 1487.74 82.2471 1486.9 82.2471H1473.5L1464.04 72.7795C1463.44 72.1828 1462.47 72.1828 1461.87 72.7795L1452.41 82.2471H1439.02C1438.17 82.2471 1437.49 82.9312 1437.49 83.775V97.1643L1428.02 106.632C1427.42 107.229 1427.42 108.196 1428.02 108.793L1437.49 118.26V131.65Z" stroke="#009592"/>
<path d="M1459.39 111.054C1459.39 111.173 1459.48 111.268 1459.6 111.268H1461.48L1462.81 112.597C1462.89 112.68 1463.03 112.68 1463.11 112.597L1464.44 111.268H1466.32C1466.44 111.268 1466.53 111.173 1466.53 111.054V109.176L1467.86 107.848C1467.94 107.764 1467.94 107.628 1467.86 107.544L1466.53 106.216V104.338C1466.53 104.22 1466.44 104.124 1466.32 104.124H1464.44L1463.11 102.795C1463.03 102.712 1462.89 102.712 1462.81 102.795L1461.48 104.124H1459.6C1459.48 104.124 1459.39 104.22 1459.39 104.338V106.216L1458.06 107.544C1457.97 107.628 1457.97 107.764 1458.06 107.848L1459.39 109.176V111.054Z" stroke="#009592"/>
<path d="M1442.59 90.3877C1442.59 88.7008 1443.96 87.3333 1445.65 87.3333H1480.27C1481.96 87.3333 1483.32 88.7008 1483.32 90.3877V125.004C1483.32 126.691 1481.96 128.059 1480.27 128.059H1445.65C1443.96 128.059 1442.59 126.691 1442.59 125.004V90.3877Z" stroke="#009592"/>
<path d="M1447.24 108.715C1446.64 108.119 1446.64 107.152 1447.24 106.555L1461.82 91.9766C1462.41 91.3802 1463.38 91.3802 1463.98 91.9766L1478.56 106.555C1479.15 107.152 1479.15 108.119 1478.56 108.715L1463.98 123.294C1463.38 123.89 1462.41 123.89 1461.82 123.294L1447.24 108.715Z" stroke="#009592"/>
<path d="M1508.76 60.3962C1508.76 61.24 1509.45 61.9241 1510.29 61.9241H1523.68L1533.15 71.3917C1533.75 71.9884 1534.72 71.9884 1535.31 71.3917L1544.78 61.9241H1558.17C1559.02 61.9241 1559.7 61.24 1559.7 60.3962V47.0069L1569.17 37.5393C1569.77 36.9426 1569.77 35.9752 1569.17 35.3785L1559.7 25.9109V12.5217C1559.7 11.6778 1559.02 10.9937 1558.17 10.9937H1544.78L1535.31 1.52613C1534.72 0.929442 1533.75 0.929441 1533.15 1.52613L1523.68 10.9937H1510.29C1509.45 10.9937 1508.76 11.6778 1508.76 12.5217V25.9109L1499.3 35.3785C1498.7 35.9752 1498.7 36.9426 1499.3 37.5393L1508.76 47.0069V60.3962Z" stroke="#009592"/>
<path d="M1530.66 39.8007C1530.66 39.9191 1530.76 40.0151 1530.88 40.0151H1532.76L1534.08 41.3433C1534.17 41.427 1534.3 41.427 1534.39 41.3433L1535.72 40.0151H1537.59C1537.71 40.0151 1537.81 39.9191 1537.81 39.8007V37.9224L1539.14 36.5942C1539.22 36.5105 1539.22 36.3748 1539.14 36.2911L1537.81 34.9629V33.0845C1537.81 32.9662 1537.71 32.8702 1537.59 32.8702H1535.72L1534.39 31.542C1534.3 31.4583 1534.17 31.4583 1534.08 31.542L1532.76 32.8702H1530.88C1530.76 32.8702 1530.66 32.9662 1530.66 33.0845V34.9629L1529.33 36.2911C1529.25 36.3748 1529.25 36.5105 1529.33 36.5942L1530.66 37.9224V39.8007Z" stroke="#009592"/>
<path d="M1513.87 19.1343C1513.87 17.4474 1515.24 16.0799 1516.93 16.0799H1551.55C1553.23 16.0799 1554.6 17.4474 1554.6 19.1343V53.751C1554.6 55.4379 1553.23 56.8054 1551.55 56.8054H1516.93C1515.24 56.8054 1513.87 55.4379 1513.87 53.751V19.1343Z" stroke="#009592"/>
<path d="M1518.51 37.4617C1517.92 36.8653 1517.92 35.8983 1518.51 35.3019L1533.1 20.7233C1533.69 20.1268 1534.66 20.1268 1535.26 20.7233L1549.84 35.3019C1550.43 35.8983 1550.43 36.8653 1549.84 37.4617L1535.26 52.0403C1534.66 52.6367 1533.69 52.6367 1533.1 52.0403L1518.51 37.4617Z" stroke="#009592"/>
<path d="M1508.76 131.65C1508.76 132.493 1509.45 133.177 1510.29 133.177H1523.68L1533.15 142.645C1533.75 143.242 1534.72 143.242 1535.31 142.645L1544.78 133.177H1558.17C1559.02 133.177 1559.7 132.493 1559.7 131.65V118.26L1569.17 108.793C1569.77 108.196 1569.77 107.229 1569.17 106.632L1559.7 97.1643V83.775C1559.7 82.9312 1559.02 82.2471 1558.17 82.2471H1544.78L1535.31 72.7795C1534.72 72.1828 1533.75 72.1828 1533.15 72.7795L1523.68 82.2471H1510.29C1509.45 82.2471 1508.76 82.9312 1508.76 83.775V97.1643L1499.3 106.632C1498.7 107.229 1498.7 108.196 1499.3 108.793L1508.76 118.26V131.65Z" stroke="#009592"/>
<path d="M1530.66 111.054C1530.66 111.173 1530.76 111.268 1530.88 111.268H1532.76L1534.08 112.597C1534.17 112.68 1534.3 112.68 1534.39 112.597L1535.72 111.268H1537.59C1537.71 111.268 1537.81 111.173 1537.81 111.054V109.176L1539.14 107.848C1539.22 107.764 1539.22 107.628 1539.14 107.544L1537.81 106.216V104.338C1537.81 104.22 1537.71 104.124 1537.59 104.124H1535.72L1534.39 102.795C1534.3 102.712 1534.17 102.712 1534.08 102.795L1532.76 104.124H1530.88C1530.76 104.124 1530.66 104.22 1530.66 104.338V106.216L1529.33 107.544C1529.25 107.628 1529.25 107.764 1529.33 107.848L1530.66 109.176V111.054Z" stroke="#009592"/>
<path d="M1513.87 90.3877C1513.87 88.7008 1515.24 87.3333 1516.93 87.3333H1551.55C1553.23 87.3333 1554.6 88.7008 1554.6 90.3877V125.004C1554.6 126.691 1553.23 128.059 1551.55 128.059H1516.93C1515.24 128.059 1513.87 126.691 1513.87 125.004V90.3877Z" stroke="#009592"/>
<path d="M1518.51 108.715C1517.92 108.119 1517.92 107.152 1518.51 106.555L1533.1 91.9766C1533.69 91.3802 1534.66 91.3802 1535.26 91.9766L1549.84 106.555C1550.43 107.152 1550.43 108.119 1549.84 108.715L1535.26 123.294C1534.66 123.89 1533.69 123.89 1533.1 123.294L1518.51 108.715Z" stroke="#009592"/>
<path d="M1580.04 60.3962C1580.04 61.24 1580.73 61.9241 1581.57 61.9241H1594.96L1604.43 71.3917C1605.03 71.9884 1605.99 71.9884 1606.59 71.3917L1616.06 61.9241H1629.45C1630.29 61.9241 1630.98 61.24 1630.98 60.3962V47.0069L1640.45 37.5393C1641.04 36.9426 1641.04 35.9752 1640.45 35.3785L1630.98 25.9109V12.5217C1630.98 11.6778 1630.29 10.9937 1629.45 10.9937H1616.06L1606.59 1.52613C1605.99 0.929442 1605.03 0.929441 1604.43 1.52613L1594.96 10.9937H1581.57C1580.73 10.9937 1580.04 11.6778 1580.04 12.5217V25.9109L1570.57 35.3785C1569.98 35.9752 1569.98 36.9426 1570.57 37.5393L1580.04 47.0069V60.3962Z" stroke="#009592"/>
<path d="M1601.94 39.8007C1601.94 39.9191 1602.04 40.0151 1602.15 40.0151H1604.03L1605.36 41.3433C1605.44 41.427 1605.58 41.427 1605.66 41.3433L1606.99 40.0151H1608.87C1608.99 40.0151 1609.09 39.9191 1609.09 39.8007V37.9224L1610.41 36.5942C1610.5 36.5105 1610.5 36.3748 1610.41 36.2911L1609.09 34.9629V33.0845C1609.09 32.9662 1608.99 32.8702 1608.87 32.8702H1606.99L1605.66 31.542C1605.58 31.4583 1605.44 31.4583 1605.36 31.542L1604.03 32.8702H1602.15C1602.04 32.8702 1601.94 32.9662 1601.94 33.0845V34.9629L1600.61 36.2911C1600.53 36.3748 1600.53 36.5105 1600.61 36.5942L1601.94 37.9224V39.8007Z" stroke="#009592"/>
<path d="M1585.15 19.1343C1585.15 17.4474 1586.52 16.0799 1588.2 16.0799H1622.82C1624.51 16.0799 1625.88 17.4474 1625.88 19.1343V53.751C1625.88 55.4379 1624.51 56.8054 1622.82 56.8054H1588.2C1586.52 56.8054 1585.15 55.4379 1585.15 53.751V19.1343Z" stroke="#009592"/>
<path d="M1589.79 37.4617C1589.2 36.8653 1589.2 35.8983 1589.79 35.3019L1604.37 20.7233C1604.97 20.1268 1605.94 20.1268 1606.53 20.7233L1621.11 35.3019C1621.71 35.8983 1621.71 36.8653 1621.11 37.4617L1606.53 52.0403C1605.94 52.6367 1604.97 52.6367 1604.37 52.0403L1589.79 37.4617Z" stroke="#009592"/>
<path d="M1580.04 131.65C1580.04 132.493 1580.73 133.177 1581.57 133.177H1594.96L1604.43 142.645C1605.03 143.242 1605.99 143.242 1606.59 142.645L1616.06 133.177H1629.45C1630.29 133.177 1630.98 132.493 1630.98 131.65V118.26L1640.45 108.793C1641.04 108.196 1641.04 107.229 1640.45 106.632L1630.98 97.1643V83.775C1630.98 82.9312 1630.29 82.2471 1629.45 82.2471H1616.06L1606.59 72.7795C1605.99 72.1828 1605.03 72.1828 1604.43 72.7795L1594.96 82.2471H1581.57C1580.73 82.2471 1580.04 82.9312 1580.04 83.775V97.1643L1570.57 106.632C1569.98 107.229 1569.98 108.196 1570.57 108.793L1580.04 118.26V131.65Z" stroke="#009592"/>
<path d="M1601.94 111.054C1601.94 111.173 1602.04 111.268 1602.15 111.268H1604.03L1605.36 112.597C1605.44 112.68 1605.58 112.68 1605.66 112.597L1606.99 111.268H1608.87C1608.99 111.268 1609.09 111.173 1609.09 111.054V109.176L1610.41 107.848C1610.5 107.764 1610.5 107.628 1610.41 107.544L1609.09 106.216V104.338C1609.09 104.22 1608.99 104.124 1608.87 104.124H1606.99L1605.66 102.795C1605.58 102.712 1605.44 102.712 1605.36 102.795L1604.03 104.124H1602.15C1602.04 104.124 1601.94 104.22 1601.94 104.338V106.216L1600.61 107.544C1600.53 107.628 1600.53 107.764 1600.61 107.848L1601.94 109.176V111.054Z" stroke="#009592"/>
<path d="M1585.15 90.3877C1585.15 88.7008 1586.52 87.3333 1588.2 87.3333H1622.82C1624.51 87.3333 1625.88 88.7008 1625.88 90.3877V125.004C1625.88 126.691 1624.51 128.059 1622.82 128.059H1588.2C1586.52 128.059 1585.15 126.691 1585.15 125.004V90.3877Z" stroke="#009592"/>
<path d="M1589.79 108.715C1589.2 108.119 1589.2 107.152 1589.79 106.555L1604.37 91.9766C1604.97 91.3802 1605.94 91.3802 1606.53 91.9766L1621.11 106.555C1621.71 107.152 1621.71 108.119 1621.11 108.715L1606.53 123.294C1605.94 123.89 1604.97 123.89 1604.37 123.294L1589.79 108.715Z" stroke="#009592"/>
<path d="M1651.32 60.3962C1651.32 61.24 1652 61.9241 1652.85 61.9241L1666.24 61.9241L1675.71 71.3917C1676.3 71.9884 1677.27 71.9884 1677.87 71.3917L1687.33 61.9241H1700.73C1701.57 61.9241 1702.25 61.24 1702.25 60.3962V47.0069L1711.72 37.5393C1712.32 36.9426 1712.32 35.9752 1711.72 35.3785L1702.25 25.9109V12.5217C1702.25 11.6778 1701.57 10.9937 1700.73 10.9937L1687.33 10.9937L1677.87 1.52613C1677.27 0.929442 1676.3 0.929441 1675.71 1.52613L1666.24 10.9937H1652.85C1652 10.9937 1651.32 11.6778 1651.32 12.5217V25.9109L1641.85 35.3785C1641.25 35.9752 1641.25 36.9426 1641.85 37.5393L1651.32 47.0069V60.3962Z" stroke="#009592"/>
<path d="M1673.22 39.8007C1673.22 39.9191 1673.31 40.0151 1673.43 40.0151H1675.31L1676.64 41.3433C1676.72 41.427 1676.86 41.427 1676.94 41.3433L1678.27 40.0151H1680.15C1680.27 40.0151 1680.36 39.9191 1680.36 39.8007V37.9224L1681.69 36.5942C1681.77 36.5105 1681.77 36.3748 1681.69 36.2911L1680.36 34.9629V33.0845C1680.36 32.9662 1680.27 32.8702 1680.15 32.8702H1678.27L1676.94 31.542C1676.86 31.4583 1676.72 31.4583 1676.64 31.542L1675.31 32.8702H1673.43C1673.31 32.8702 1673.22 32.9662 1673.22 33.0845V34.9629L1671.89 36.2911C1671.8 36.3748 1671.8 36.5105 1671.89 36.5942L1673.22 37.9224V39.8007Z" stroke="#009592"/>
<path d="M1656.42 19.1343C1656.42 17.4474 1657.79 16.0799 1659.48 16.0799H1694.1C1695.79 16.0799 1697.15 17.4474 1697.15 19.1343V53.751C1697.15 55.4379 1695.79 56.8054 1694.1 56.8054L1659.48 56.8054C1657.79 56.8054 1656.42 55.4379 1656.42 53.751V19.1343Z" stroke="#009592"/>
<path d="M1661.07 37.4617C1660.47 36.8653 1660.47 35.8983 1661.07 35.3019L1675.65 20.7233C1676.25 20.1268 1677.21 20.1268 1677.81 20.7233L1692.39 35.3019C1692.99 35.8983 1692.99 36.8653 1692.39 37.4617L1677.81 52.0403C1677.21 52.6367 1676.25 52.6367 1675.65 52.0403L1661.07 37.4617Z" stroke="#009592"/>
<path d="M1651.32 131.65C1651.32 132.493 1652 133.177 1652.85 133.177H1666.24L1675.71 142.645C1676.3 143.242 1677.27 143.242 1677.87 142.645L1687.33 133.177H1700.73C1701.57 133.177 1702.25 132.493 1702.25 131.65V118.26L1711.72 108.793C1712.32 108.196 1712.32 107.229 1711.72 106.632L1702.25 97.1643V83.775C1702.25 82.9312 1701.57 82.2471 1700.73 82.2471H1687.33L1677.87 72.7795C1677.27 72.1828 1676.3 72.1828 1675.71 72.7795L1666.24 82.2471H1652.85C1652 82.2471 1651.32 82.9312 1651.32 83.775V97.1643L1641.85 106.632C1641.25 107.229 1641.25 108.196 1641.85 108.793L1651.32 118.26V131.65Z" stroke="#009592"/>
<path d="M1673.22 111.054C1673.22 111.173 1673.31 111.268 1673.43 111.268H1675.31L1676.64 112.597C1676.72 112.68 1676.86 112.68 1676.94 112.597L1678.27 111.268H1680.15C1680.27 111.268 1680.36 111.173 1680.36 111.054V109.176L1681.69 107.848C1681.77 107.764 1681.77 107.628 1681.69 107.544L1680.36 106.216V104.338C1680.36 104.22 1680.27 104.124 1680.15 104.124H1678.27L1676.94 102.795C1676.86 102.712 1676.72 102.712 1676.64 102.795L1675.31 104.124H1673.43C1673.31 104.124 1673.22 104.22 1673.22 104.338V106.216L1671.89 107.544C1671.8 107.628 1671.8 107.764 1671.89 107.848L1673.22 109.176V111.054Z" stroke="#009592"/>
<path d="M1656.42 90.3877C1656.42 88.7008 1657.79 87.3333 1659.48 87.3333H1694.1C1695.79 87.3333 1697.15 88.7008 1697.15 90.3877V125.004C1697.15 126.691 1695.79 128.059 1694.1 128.059H1659.48C1657.79 128.059 1656.42 126.691 1656.42 125.004V90.3877Z" stroke="#009592"/>
<path d="M1661.07 108.715C1660.47 108.119 1660.47 107.152 1661.07 106.555L1675.65 91.9766C1676.25 91.3802 1677.21 91.3802 1677.81 91.9766L1692.39 106.555C1692.99 107.152 1692.99 108.119 1692.39 108.715L1677.81 123.294C1677.21 123.89 1676.25 123.89 1675.65 123.294L1661.07 108.715Z" stroke="#009592"/>
<path d="M1722.59 60.3962C1722.59 61.24 1723.28 61.9241 1724.12 61.9241H1737.51L1746.98 71.3917C1747.58 71.9884 1748.55 71.9884 1749.14 71.3917L1758.61 61.9241H1772C1772.85 61.9241 1773.53 61.24 1773.53 60.3962V47.0069L1783 37.5393C1783.6 36.9426 1783.6 35.9752 1783 35.3785L1773.53 25.9109V12.5217C1773.53 11.6778 1772.85 10.9937 1772 10.9937L1758.61 10.9937L1749.14 1.52613C1748.55 0.929442 1747.58 0.929441 1746.98 1.52613L1737.51 10.9937H1724.12C1723.28 10.9937 1722.59 11.6778 1722.59 12.5217V25.9109L1713.13 35.3785C1712.53 35.9752 1712.53 36.9426 1713.13 37.5393L1722.59 47.0069V60.3962Z" stroke="#009592"/>
<path d="M1744.49 39.8007C1744.49 39.9191 1744.59 40.0151 1744.71 40.0151H1746.59L1747.91 41.3433C1748 41.427 1748.13 41.427 1748.22 41.3433L1749.55 40.0151H1751.42C1751.54 40.0151 1751.64 39.9191 1751.64 39.8007V37.9224L1752.97 36.5942C1753.05 36.5105 1753.05 36.3748 1752.97 36.2911L1751.64 34.9629V33.0845C1751.64 32.9662 1751.54 32.8702 1751.42 32.8702H1749.55L1748.22 31.542C1748.13 31.4583 1748 31.4583 1747.91 31.542L1746.59 32.8702H1744.71C1744.59 32.8702 1744.49 32.9662 1744.49 33.0845V34.9629L1743.17 36.2911C1743.08 36.3748 1743.08 36.5105 1743.17 36.5942L1744.49 37.9224V39.8007Z" stroke="#009592"/>
<path d="M1727.7 19.1343C1727.7 17.4474 1729.07 16.0799 1730.76 16.0799H1765.38C1767.06 16.0799 1768.43 17.4474 1768.43 19.1343V53.751C1768.43 55.4379 1767.06 56.8054 1765.38 56.8054H1730.76C1729.07 56.8054 1727.7 55.4379 1727.7 53.751V19.1343Z" stroke="#009592"/>
<path d="M1732.35 37.4617C1731.75 36.8653 1731.75 35.8983 1732.35 35.3019L1746.93 20.7233C1747.52 20.1268 1748.49 20.1268 1749.09 20.7233L1763.67 35.3019C1764.26 35.8983 1764.26 36.8653 1763.67 37.4617L1749.09 52.0403C1748.49 52.6367 1747.52 52.6367 1746.93 52.0403L1732.35 37.4617Z" stroke="#009592"/>
<path d="M1722.59 131.65C1722.59 132.493 1723.28 133.177 1724.12 133.177H1737.51L1746.98 142.645C1747.58 143.242 1748.55 143.242 1749.14 142.645L1758.61 133.177H1772C1772.85 133.177 1773.53 132.493 1773.53 131.65V118.26L1783 108.793C1783.6 108.196 1783.6 107.229 1783 106.632L1773.53 97.1643V83.775C1773.53 82.9312 1772.85 82.2471 1772 82.2471H1758.61L1749.14 72.7795C1748.55 72.1828 1747.58 72.1828 1746.98 72.7795L1737.51 82.2471H1724.12C1723.28 82.2471 1722.59 82.9312 1722.59 83.775V97.1643L1713.13 106.632C1712.53 107.229 1712.53 108.196 1713.13 108.793L1722.59 118.26V131.65Z" stroke="#009592"/>
<path d="M1744.49 111.054C1744.49 111.173 1744.59 111.268 1744.71 111.268H1746.59L1747.91 112.597C1748 112.68 1748.13 112.68 1748.22 112.597L1749.55 111.268H1751.42C1751.54 111.268 1751.64 111.173 1751.64 111.054V109.176L1752.97 107.848C1753.05 107.764 1753.05 107.628 1752.97 107.544L1751.64 106.216V104.338C1751.64 104.22 1751.54 104.124 1751.42 104.124H1749.55L1748.22 102.795C1748.13 102.712 1748 102.712 1747.91 102.795L1746.59 104.124H1744.71C1744.59 104.124 1744.49 104.22 1744.49 104.338V106.216L1743.17 107.544C1743.08 107.628 1743.08 107.764 1743.17 107.848L1744.49 109.176V111.054Z" stroke="#009592"/>
<path d="M1727.7 90.3877C1727.7 88.7008 1729.07 87.3333 1730.76 87.3333H1765.38C1767.06 87.3333 1768.43 88.7008 1768.43 90.3877V125.004C1768.43 126.691 1767.06 128.059 1765.38 128.059H1730.76C1729.07 128.059 1727.7 126.691 1727.7 125.004V90.3877Z" stroke="#009592"/>
<path d="M1732.35 108.715C1731.75 108.119 1731.75 107.152 1732.35 106.555L1746.93 91.9766C1747.52 91.3802 1748.49 91.3802 1749.09 91.9766L1763.67 106.555C1764.26 107.152 1764.26 108.119 1763.67 108.715L1749.09 123.294C1748.49 123.89 1747.52 123.89 1746.93 123.294L1732.35 108.715Z" stroke="#009592"/>
<path d="M1793.87 60.3962C1793.87 61.24 1794.56 61.9241 1795.4 61.9241H1808.79L1818.26 71.3917C1818.86 71.9884 1819.82 71.9884 1820.42 71.3917L1829.89 61.9241H1843.28C1844.12 61.9241 1844.81 61.24 1844.81 60.3962V47.0069L1854.28 37.5393C1854.87 36.9426 1854.87 35.9752 1854.28 35.3785L1844.81 25.9109V12.5217C1844.81 11.6778 1844.12 10.9937 1843.28 10.9937H1829.89L1820.42 1.52613C1819.82 0.929442 1818.86 0.929441 1818.26 1.52613L1808.79 10.9937H1795.4C1794.56 10.9937 1793.87 11.6778 1793.87 12.5217V25.9109L1784.4 35.3785C1783.81 35.9752 1783.81 36.9426 1784.4 37.5393L1793.87 47.0069V60.3962Z" stroke="#009592"/>
<path d="M1815.77 39.8007C1815.77 39.9191 1815.87 40.0151 1815.98 40.0151H1817.86L1819.19 41.3433C1819.28 41.427 1819.41 41.427 1819.49 41.3433L1820.82 40.0151H1822.7C1822.82 40.0151 1822.92 39.9191 1822.92 39.8007V37.9224L1824.24 36.5942C1824.33 36.5105 1824.33 36.3748 1824.24 36.2911L1822.92 34.9629V33.0845C1822.92 32.9662 1822.82 32.8702 1822.7 32.8702H1820.82L1819.49 31.542C1819.41 31.4583 1819.28 31.4583 1819.19 31.542L1817.86 32.8702H1815.98C1815.87 32.8702 1815.77 32.9662 1815.77 33.0845V34.9629L1814.44 36.2911C1814.36 36.3748 1814.36 36.5105 1814.44 36.5942L1815.77 37.9224V39.8007Z" stroke="#009592"/>
<path d="M1798.98 19.1343C1798.98 17.4474 1800.35 16.0799 1802.03 16.0799H1836.65C1838.34 16.0799 1839.71 17.4474 1839.71 19.1343V53.751C1839.71 55.4379 1838.34 56.8054 1836.65 56.8054H1802.03C1800.35 56.8054 1798.98 55.4379 1798.98 53.751V19.1343Z" stroke="#009592"/>
<path d="M1803.62 37.4617C1803.03 36.8653 1803.03 35.8983 1803.62 35.3019L1818.2 20.7233C1818.8 20.1268 1819.77 20.1268 1820.36 20.7233L1834.94 35.3019C1835.54 35.8983 1835.54 36.8653 1834.94 37.4617L1820.36 52.0403C1819.77 52.6367 1818.8 52.6367 1818.2 52.0403L1803.62 37.4617Z" stroke="#009592"/>
<path d="M1793.87 131.65C1793.87 132.493 1794.56 133.177 1795.4 133.177H1808.79L1818.26 142.645C1818.86 143.242 1819.82 143.242 1820.42 142.645L1829.89 133.177H1843.28C1844.12 133.177 1844.81 132.493 1844.81 131.65V118.26L1854.28 108.793C1854.87 108.196 1854.87 107.229 1854.28 106.632L1844.81 97.1643V83.775C1844.81 82.9312 1844.12 82.2471 1843.28 82.2471H1829.89L1820.42 72.7795C1819.82 72.1828 1818.86 72.1828 1818.26 72.7795L1808.79 82.2471H1795.4C1794.56 82.2471 1793.87 82.9312 1793.87 83.775V97.1643L1784.4 106.632C1783.81 107.229 1783.81 108.196 1784.4 108.793L1793.87 118.26V131.65Z" stroke="#009592"/>
<path d="M1815.77 111.054C1815.77 111.173 1815.87 111.268 1815.98 111.268H1817.86L1819.19 112.597C1819.28 112.68 1819.41 112.68 1819.49 112.597L1820.82 111.268H1822.7C1822.82 111.268 1822.92 111.173 1822.92 111.054V109.176L1824.24 107.848C1824.33 107.764 1824.33 107.628 1824.24 107.544L1822.92 106.216V104.338C1822.92 104.22 1822.82 104.124 1822.7 104.124H1820.82L1819.49 102.795C1819.41 102.712 1819.28 102.712 1819.19 102.795L1817.86 104.124H1815.98C1815.87 104.124 1815.77 104.22 1815.77 104.338V106.216L1814.44 107.544C1814.36 107.628 1814.36 107.764 1814.44 107.848L1815.77 109.176V111.054Z" stroke="#009592"/>
<path d="M1798.98 90.3877C1798.98 88.7008 1800.35 87.3333 1802.03 87.3333H1836.65C1838.34 87.3333 1839.71 88.7008 1839.71 90.3877V125.004C1839.71 126.691 1838.34 128.059 1836.65 128.059H1802.03C1800.35 128.059 1798.98 126.691 1798.98 125.004V90.3877Z" stroke="#009592"/>
<path d="M1803.62 108.715C1803.03 108.119 1803.03 107.152 1803.62 106.555L1818.2 91.9766C1818.8 91.3802 1819.77 91.3802 1820.36 91.9766L1834.94 106.555C1835.54 107.152 1835.54 108.119 1834.94 108.715L1820.36 123.294C1819.77 123.89 1818.8 123.89 1818.2 123.294L1803.62 108.715Z" stroke="#009592"/>
<path d="M1865.15 60.3962C1865.15 61.24 1865.83 61.9241 1866.68 61.9241H1880.07L1889.54 71.3917C1890.13 71.9884 1891.1 71.9884 1891.7 71.3917L1901.17 61.9241H1914.56C1915.4 61.9241 1916.08 61.24 1916.08 60.3962V47.0069L1925.55 37.5393C1926.15 36.9426 1926.15 35.9752 1925.55 35.3785L1916.08 25.9109V12.5217C1916.08 11.6778 1915.4 10.9937 1914.56 10.9937H1901.17L1891.7 1.52613C1891.1 0.929442 1890.13 0.929441 1889.54 1.52613L1880.07 10.9937H1866.68C1865.83 10.9937 1865.15 11.6778 1865.15 12.5217V25.9109L1855.68 35.3785C1855.08 35.9752 1855.08 36.9426 1855.68 37.5393L1865.15 47.0069V60.3962Z" stroke="#009592"/>
<path d="M1887.05 39.8007C1887.05 39.9191 1887.14 40.0151 1887.26 40.0151H1889.14L1890.47 41.3433C1890.55 41.427 1890.69 41.427 1890.77 41.3433L1892.1 40.0151H1893.98C1894.1 40.0151 1894.19 39.9191 1894.19 39.8007V37.9224L1895.52 36.5942C1895.6 36.5105 1895.6 36.3748 1895.52 36.2911L1894.19 34.9629V33.0845C1894.19 32.9662 1894.1 32.8702 1893.98 32.8702H1892.1L1890.77 31.542C1890.69 31.4583 1890.55 31.4583 1890.47 31.542L1889.14 32.8702H1887.26C1887.14 32.8702 1887.05 32.9662 1887.05 33.0845V34.9629L1885.72 36.2911C1885.63 36.3748 1885.63 36.5105 1885.72 36.5942L1887.05 37.9224V39.8007Z" stroke="#009592"/>
<path d="M1870.26 19.1343C1870.26 17.4474 1871.62 16.0799 1873.31 16.0799L1907.93 16.0799C1909.62 16.0799 1910.98 17.4474 1910.98 19.1343V53.751C1910.98 55.4379 1909.62 56.8054 1907.93 56.8054H1873.31C1871.62 56.8054 1870.26 55.4379 1870.26 53.751V19.1343Z" stroke="#009592"/>
<path d="M1874.9 37.4617C1874.3 36.8653 1874.3 35.8983 1874.9 35.3019L1889.48 20.7233C1890.08 20.1268 1891.04 20.1268 1891.64 20.7233L1906.22 35.3019C1906.82 35.8983 1906.82 36.8653 1906.22 37.4617L1891.64 52.0403C1891.04 52.6367 1890.08 52.6367 1889.48 52.0403L1874.9 37.4617Z" stroke="#009592"/>
<path d="M1865.15 131.65C1865.15 132.493 1865.83 133.177 1866.68 133.177H1880.07L1889.54 142.645C1890.13 143.242 1891.1 143.242 1891.7 142.645L1901.17 133.177H1914.56C1915.4 133.177 1916.08 132.493 1916.08 131.65V118.26L1925.55 108.793C1926.15 108.196 1926.15 107.229 1925.55 106.632L1916.08 97.1643V83.775C1916.08 82.9312 1915.4 82.2471 1914.56 82.2471H1901.17L1891.7 72.7795C1891.1 72.1828 1890.13 72.1828 1889.54 72.7795L1880.07 82.2471H1866.68C1865.83 82.2471 1865.15 82.9312 1865.15 83.775V97.1643L1855.68 106.632C1855.08 107.229 1855.08 108.196 1855.68 108.793L1865.15 118.26V131.65Z" stroke="#009592"/>
<path d="M1887.05 111.054C1887.05 111.173 1887.14 111.268 1887.26 111.268H1889.14L1890.47 112.597C1890.55 112.68 1890.69 112.68 1890.77 112.597L1892.1 111.268H1893.98C1894.1 111.268 1894.19 111.173 1894.19 111.054V109.176L1895.52 107.848C1895.6 107.764 1895.6 107.628 1895.52 107.544L1894.19 106.216V104.338C1894.19 104.22 1894.1 104.124 1893.98 104.124H1892.1L1890.77 102.795C1890.69 102.712 1890.55 102.712 1890.47 102.795L1889.14 104.124H1887.26C1887.14 104.124 1887.05 104.22 1887.05 104.338V106.216L1885.72 107.544C1885.63 107.628 1885.63 107.764 1885.72 107.848L1887.05 109.176V111.054Z" stroke="#009592"/>
<path d="M1870.26 90.3877C1870.26 88.7008 1871.62 87.3333 1873.31 87.3333H1907.93C1909.62 87.3333 1910.98 88.7008 1910.98 90.3877V125.004C1910.98 126.691 1909.62 128.059 1907.93 128.059H1873.31C1871.62 128.059 1870.26 126.691 1870.26 125.004V90.3877Z" stroke="#009592"/>
<path d="M1874.9 108.715C1874.3 108.119 1874.3 107.152 1874.9 106.555L1889.48 91.9766C1890.08 91.3802 1891.04 91.3802 1891.64 91.9766L1906.22 106.555C1906.82 107.152 1906.82 108.119 1906.22 108.715L1891.64 123.294C1891.04 123.89 1890.08 123.89 1889.48 123.294L1874.9 108.715Z" stroke="#009592"/>
</svg>
