<svg width="1920" height="144" viewBox="0 0 1920 144" fill="none" xmlns="http://www.w3.org/2000/svg">
<path d="M9.91613 60.7442C9.91613 61.588 10.6003 62.2721 11.4442 62.2721H24.8348L34.3033 71.7397C34.9001 72.3364 35.8676 72.3364 36.4643 71.7397L45.9329 62.2721H59.3235C60.1674 62.2721 60.8515 61.588 60.8515 60.7442V47.3549L70.3201 37.8873C70.9168 37.2906 70.9168 36.3232 70.3201 35.7265L60.8515 26.2589V12.8697C60.8515 12.0258 60.1674 11.3418 59.3235 11.3418H45.9329L36.4643 1.87415C35.8676 1.27746 34.9001 1.27746 34.3033 1.87415L24.8348 11.3418H11.4442C10.6003 11.3418 9.91613 12.0258 9.91613 12.8697V26.2589L0.447559 35.7265C-0.149186 36.3232 -0.149187 37.2906 0.447558 37.8873L9.91613 47.355V60.7442Z" stroke="#EDEDED"/>
<path d="M31.8148 40.1488C31.8148 40.2671 31.9107 40.3631 32.0291 40.3631H33.9077L35.236 41.6913C35.3197 41.775 35.4554 41.775 35.5392 41.6913L36.8675 40.3631H38.746C38.8644 40.3631 38.9604 40.2671 38.9604 40.1488V38.2704L40.2887 36.9422C40.3724 36.8585 40.3724 36.7228 40.2887 36.6391L38.9604 35.3109V33.4326C38.9604 33.3142 38.8644 33.2182 38.746 33.2182H36.8675L35.5392 31.89C35.4554 31.8063 35.3197 31.8063 35.236 31.89L33.9077 33.2182H32.0291C31.9107 33.2182 31.8148 33.3142 31.8148 33.4326V35.3109L30.4864 36.6391C30.4027 36.7228 30.4027 36.8585 30.4864 36.9422L31.8148 38.2704V40.1488Z" stroke="#EDEDED"/>
<path d="M15.0228 19.4823C15.0228 17.7954 16.3904 16.4279 18.0775 16.4279H52.6976C54.3847 16.4279 55.7524 17.7954 55.7524 19.4823V54.099C55.7524 55.7859 54.3847 57.1534 52.6976 57.1534H18.0775C16.3904 57.1534 15.0228 55.7859 15.0228 54.099L15.0228 19.4823Z" stroke="#EDEDED"/>
<path d="M19.6666 37.8097C19.0702 37.2133 19.0702 36.2463 19.6666 35.6499L34.2467 21.0713C34.8432 20.4749 35.8103 20.4749 36.4067 21.0713L50.9868 35.6499C51.5833 36.2463 51.5833 37.2133 50.9868 37.8097L36.4067 52.3883C35.8103 52.9847 34.8432 52.9847 34.2467 52.3883L19.6666 37.8097Z" stroke="#EDEDED"/>
<path d="M9.91613 131.998C9.91613 132.841 10.6003 133.525 11.4442 133.525H24.8348L34.3033 142.993C34.9001 143.59 35.8676 143.59 36.4643 142.993L45.9329 133.525H59.3235C60.1674 133.525 60.8515 132.841 60.8515 131.998L60.8515 118.608L70.3201 109.141C70.9168 108.544 70.9168 107.577 70.3201 106.98L60.8515 97.5123V84.1231C60.8515 83.2792 60.1674 82.5952 59.3235 82.5952H45.9329L36.4643 73.1275C35.8676 72.5308 34.9001 72.5308 34.3033 73.1275L24.8348 82.5952H11.4442C10.6003 82.5952 9.91613 83.2792 9.91613 84.1231L9.91613 97.5123L0.447559 106.98C-0.149186 107.577 -0.149187 108.544 0.447558 109.141L9.91613 118.608V131.998Z" stroke="#EDEDED"/>
<path d="M31.8148 111.402C31.8148 111.521 31.9107 111.616 32.0291 111.616H33.9077L35.236 112.945C35.3197 113.028 35.4554 113.028 35.5392 112.945L36.8675 111.616H38.746C38.8644 111.616 38.9604 111.521 38.9604 111.402V109.524L40.2887 108.196C40.3724 108.112 40.3724 107.976 40.2887 107.892L38.9604 106.564V104.686C38.9604 104.568 38.8644 104.472 38.746 104.472H36.8675L35.5392 103.143C35.4554 103.06 35.3197 103.06 35.236 103.143L33.9077 104.472H32.0291C31.9107 104.472 31.8148 104.568 31.8148 104.686V106.564L30.4864 107.892C30.4027 107.976 30.4027 108.112 30.4864 108.196L31.8148 109.524V111.402Z" stroke="#EDEDED"/>
<path d="M15.0228 90.7357C15.0228 89.0488 16.3904 87.6813 18.0775 87.6813H52.6976C54.3847 87.6813 55.7524 89.0488 55.7524 90.7357V125.352C55.7524 127.039 54.3847 128.407 52.6976 128.407H18.0775C16.3904 128.407 15.0228 127.039 15.0228 125.352L15.0228 90.7357Z" stroke="#EDEDED"/>
<path d="M19.6666 109.063C19.0702 108.467 19.0702 107.5 19.6666 106.903L34.2467 92.3247C34.8432 91.7283 35.8103 91.7283 36.4067 92.3247L50.9868 106.903C51.5833 107.5 51.5833 108.467 50.9868 109.063L36.4067 123.642C35.8103 124.238 34.8432 124.238 34.2467 123.642L19.6666 109.063Z" stroke="#EDEDED"/>
<path d="M81.1929 60.7442C81.1929 61.588 81.877 62.2721 82.7209 62.2721H96.1115L105.58 71.7397C106.177 72.3364 107.144 72.3364 107.741 71.7397L117.21 62.2721L130.6 62.2721C131.444 62.2721 132.128 61.588 132.128 60.7442V47.3549L141.597 37.8873C142.194 37.2906 142.194 36.3232 141.597 35.7265L132.128 26.2589V12.8697C132.128 12.0258 131.444 11.3418 130.6 11.3418H117.21L107.741 1.87415C107.144 1.27746 106.177 1.27746 105.58 1.87415L96.1115 11.3418L82.7209 11.3418C81.877 11.3418 81.1929 12.0258 81.1929 12.8697V26.2589L71.7243 35.7265C71.1276 36.3232 71.1276 37.2906 71.7243 37.8873L81.1929 47.355V60.7442Z" stroke="#EDEDED"/>
<path d="M103.092 40.1488C103.092 40.2671 103.188 40.3631 103.306 40.3631H105.184L106.513 41.6913C106.596 41.775 106.732 41.775 106.816 41.6913L108.144 40.3631H110.023C110.141 40.3631 110.237 40.2671 110.237 40.1488V38.2704L111.565 36.9422C111.649 36.8585 111.649 36.7228 111.565 36.6391L110.237 35.3109V33.4326C110.237 33.3142 110.141 33.2182 110.023 33.2182H108.144L106.816 31.89C106.732 31.8063 106.596 31.8063 106.513 31.89L105.184 33.2182H103.306C103.188 33.2182 103.092 33.3142 103.092 33.4326V35.3109L101.763 36.6391C101.679 36.7228 101.679 36.8585 101.763 36.9422L103.092 38.2704V40.1488Z" stroke="#EDEDED"/>
<path d="M86.2995 19.4823C86.2995 17.7954 87.6672 16.4279 89.3543 16.4279L123.974 16.4279C125.661 16.4279 127.029 17.7954 127.029 19.4823V54.099C127.029 55.7859 125.661 57.1534 123.974 57.1534H89.3543C87.6672 57.1534 86.2995 55.7859 86.2995 54.099V19.4823Z" stroke="#EDEDED"/>
<path d="M90.9434 37.8097C90.3469 37.2133 90.3469 36.2463 90.9434 35.6499L105.523 21.0713C106.12 20.4749 107.087 20.4749 107.683 21.0713L122.264 35.6499C122.86 36.2463 122.86 37.2133 122.264 37.8097L107.683 52.3883C107.087 52.9847 106.12 52.9847 105.523 52.3883L90.9434 37.8097Z" stroke="#EDEDED"/>
<path d="M81.1929 131.998C81.1929 132.841 81.877 133.525 82.7209 133.525H96.1115L105.58 142.993C106.177 143.59 107.144 143.59 107.741 142.993L117.21 133.525H130.6C131.444 133.525 132.128 132.841 132.128 131.998V118.608L141.597 109.141C142.194 108.544 142.194 107.577 141.597 106.98L132.128 97.5123V84.1231C132.128 83.2792 131.444 82.5952 130.6 82.5952H117.21L107.741 73.1275C107.144 72.5308 106.177 72.5308 105.58 73.1275L96.1115 82.5952H82.7209C81.877 82.5952 81.1929 83.2792 81.1929 84.1231V97.5123L71.7243 106.98C71.1276 107.577 71.1276 108.544 71.7243 109.141L81.1929 118.608V131.998Z" stroke="#EDEDED"/>
<path d="M103.092 111.402C103.092 111.521 103.188 111.616 103.306 111.616H105.184L106.513 112.945C106.596 113.028 106.732 113.028 106.816 112.945L108.144 111.616H110.023C110.141 111.616 110.237 111.521 110.237 111.402V109.524L111.565 108.196C111.649 108.112 111.649 107.976 111.565 107.892L110.237 106.564V104.686C110.237 104.568 110.141 104.472 110.023 104.472H108.144L106.816 103.143C106.732 103.06 106.596 103.06 106.513 103.143L105.184 104.472H103.306C103.188 104.472 103.092 104.568 103.092 104.686V106.564L101.763 107.892C101.679 107.976 101.679 108.112 101.763 108.196L103.092 109.524V111.402Z" stroke="#EDEDED"/>
<path d="M86.2995 90.7357C86.2995 89.0488 87.6672 87.6813 89.3543 87.6813H123.974C125.661 87.6813 127.029 89.0488 127.029 90.7357V125.352C127.029 127.039 125.661 128.407 123.974 128.407H89.3543C87.6672 128.407 86.2995 127.039 86.2995 125.352V90.7357Z" stroke="#EDEDED"/>
<path d="M90.9434 109.063C90.3469 108.467 90.3469 107.5 90.9434 106.903L105.523 92.3247C106.12 91.7283 107.087 91.7283 107.683 92.3247L122.264 106.903C122.86 107.5 122.86 108.467 122.264 109.063L107.683 123.642C107.087 124.238 106.12 124.238 105.523 123.642L90.9434 109.063Z" stroke="#EDEDED"/>
<path d="M152.47 60.7442C152.47 61.588 153.154 62.2721 153.998 62.2721H167.388L176.857 71.7397C177.454 72.3364 178.421 72.3364 179.018 71.7397L188.486 62.2721H201.877C202.721 62.2721 203.405 61.588 203.405 60.7442V47.3549L212.874 37.8873C213.47 37.2906 213.47 36.3232 212.874 35.7265L203.405 26.2589V12.8697C203.405 12.0258 202.721 11.3418 201.877 11.3418H188.486L179.018 1.87415C178.421 1.27746 177.454 1.27746 176.857 1.87415L167.388 11.3418L153.998 11.3418C153.154 11.3418 152.47 12.0258 152.47 12.8697V26.2589L143.001 35.7265C142.404 36.3232 142.404 37.2906 143.001 37.8873L152.47 47.355V60.7442Z" stroke="#EDEDED"/>
<path d="M174.368 40.1488C174.368 40.2671 174.464 40.3631 174.583 40.3631H176.461L177.79 41.6913C177.873 41.775 178.009 41.775 178.093 41.6913L179.421 40.3631H181.3C181.418 40.3631 181.514 40.2671 181.514 40.1488V38.2704L182.842 36.9422C182.926 36.8585 182.926 36.7228 182.842 36.6391L181.514 35.3109V33.4326C181.514 33.3142 181.418 33.2182 181.3 33.2182H179.421L178.093 31.89C178.009 31.8063 177.873 31.8063 177.79 31.89L176.461 33.2182H174.583C174.464 33.2182 174.368 33.3142 174.368 33.4326V35.3109L173.04 36.6391C172.956 36.7228 172.956 36.8585 173.04 36.9422L174.368 38.2704V40.1488Z" stroke="#EDEDED"/>
<path d="M157.576 19.4823C157.576 17.7954 158.944 16.4279 160.631 16.4279H195.251C196.938 16.4279 198.306 17.7954 198.306 19.4823V54.099C198.306 55.7859 196.938 57.1534 195.251 57.1534H160.631C158.944 57.1534 157.576 55.7859 157.576 54.099V19.4823Z" stroke="#EDEDED"/>
<path d="M162.22 37.8097C161.624 37.2133 161.624 36.2463 162.22 35.6499L176.8 21.0713C177.397 20.4749 178.364 20.4749 178.96 21.0713L193.54 35.6499C194.137 36.2463 194.137 37.2133 193.54 37.8097L178.96 52.3883C178.364 52.9847 177.397 52.9847 176.8 52.3883L162.22 37.8097Z" stroke="#EDEDED"/>
<path d="M152.47 131.998C152.47 132.841 153.154 133.525 153.998 133.525H167.388L176.857 142.993C177.454 143.59 178.421 143.59 179.018 142.993L188.486 133.525H201.877C202.721 133.525 203.405 132.841 203.405 131.998V118.608L212.874 109.141C213.47 108.544 213.47 107.577 212.874 106.98L203.405 97.5123V84.1231C203.405 83.2792 202.721 82.5952 201.877 82.5952H188.486L179.018 73.1275C178.421 72.5308 177.454 72.5308 176.857 73.1275L167.388 82.5952H153.998C153.154 82.5952 152.47 83.2792 152.47 84.1231V97.5123L143.001 106.98C142.404 107.577 142.404 108.544 143.001 109.141L152.47 118.608V131.998Z" stroke="#EDEDED"/>
<path d="M174.368 111.402C174.368 111.521 174.464 111.616 174.583 111.616H176.461L177.79 112.945C177.873 113.028 178.009 113.028 178.093 112.945L179.421 111.616H181.3C181.418 111.616 181.514 111.521 181.514 111.402V109.524L182.842 108.196C182.926 108.112 182.926 107.976 182.842 107.892L181.514 106.564V104.686C181.514 104.568 181.418 104.472 181.3 104.472H179.421L178.093 103.143C178.009 103.06 177.873 103.06 177.79 103.143L176.461 104.472H174.583C174.464 104.472 174.368 104.568 174.368 104.686V106.564L173.04 107.892C172.956 107.976 172.956 108.112 173.04 108.196L174.368 109.524V111.402Z" stroke="#EDEDED"/>
<path d="M157.576 90.7357C157.576 89.0488 158.944 87.6813 160.631 87.6813H195.251C196.938 87.6813 198.306 89.0488 198.306 90.7357V125.352C198.306 127.039 196.938 128.407 195.251 128.407H160.631C158.944 128.407 157.576 127.039 157.576 125.352V90.7357Z" stroke="#EDEDED"/>
<path d="M162.22 109.063C161.624 108.467 161.624 107.5 162.22 106.903L176.8 92.3247C177.397 91.7283 178.364 91.7283 178.96 92.3247L193.54 106.903C194.137 107.5 194.137 108.467 193.54 109.063L178.96 123.642C178.364 124.238 177.397 124.238 176.8 123.642L162.22 109.063Z" stroke="#EDEDED"/>
<path d="M223.746 60.7442C223.746 61.588 224.431 62.2721 225.274 62.2721H238.665L248.134 71.7397C248.73 72.3364 249.698 72.3364 250.295 71.7397L259.763 62.2721H273.154C273.998 62.2721 274.682 61.588 274.682 60.7442V47.3549L284.15 37.8873C284.747 37.2906 284.747 36.3232 284.15 35.7265L274.682 26.2589V12.8697C274.682 12.0258 273.998 11.3418 273.154 11.3418H259.763L250.295 1.87415C249.698 1.27746 248.73 1.27746 248.134 1.87415L238.665 11.3418H225.274C224.431 11.3418 223.746 12.0258 223.746 12.8697V26.2589L214.278 35.7265C213.681 36.3232 213.681 37.2906 214.278 37.8873L223.746 47.355V60.7442Z" stroke="#EDEDED"/>
<path d="M245.645 40.1488C245.645 40.2671 245.741 40.3631 245.859 40.3631H247.738L249.066 41.6913C249.15 41.775 249.286 41.775 249.369 41.6913L250.698 40.3631H252.576C252.695 40.3631 252.791 40.2671 252.791 40.1488V38.2704L254.119 36.9422C254.203 36.8585 254.203 36.7228 254.119 36.6391L252.791 35.3109V33.4326C252.791 33.3142 252.695 33.2182 252.576 33.2182H250.698L249.369 31.89C249.286 31.8063 249.15 31.8063 249.066 31.89L247.738 33.2182H245.859C245.741 33.2182 245.645 33.3142 245.645 33.4326V35.3109L244.317 36.6391C244.233 36.7228 244.233 36.8585 244.317 36.9422L245.645 38.2704V40.1488Z" stroke="#EDEDED"/>
<path d="M228.853 19.4823C228.853 17.7954 230.221 16.4279 231.908 16.4279H266.528C268.215 16.4279 269.583 17.7954 269.583 19.4823V54.099C269.583 55.7859 268.215 57.1534 266.528 57.1534H231.908C230.221 57.1534 228.853 55.7859 228.853 54.099V19.4823Z" stroke="#EDEDED"/>
<path d="M233.497 37.8097C232.9 37.2133 232.9 36.2463 233.497 35.6499L248.077 21.0713C248.673 20.4749 249.641 20.4749 250.237 21.0713L264.817 35.6499C265.414 36.2463 265.414 37.2133 264.817 37.8097L250.237 52.3883C249.641 52.9847 248.673 52.9847 248.077 52.3883L233.497 37.8097Z" stroke="#EDEDED"/>
<path d="M223.746 131.998C223.746 132.841 224.431 133.525 225.274 133.525H238.665L248.134 142.993C248.73 143.59 249.698 143.59 250.295 142.993L259.763 133.525H273.154C273.998 133.525 274.682 132.841 274.682 131.998V118.608L284.15 109.141C284.747 108.544 284.747 107.577 284.15 106.98L274.682 97.5123V84.1231C274.682 83.2792 273.998 82.5952 273.154 82.5952H259.763L250.295 73.1275C249.698 72.5308 248.73 72.5308 248.134 73.1275L238.665 82.5952H225.274C224.431 82.5952 223.746 83.2792 223.746 84.1231V97.5123L214.278 106.98C213.681 107.577 213.681 108.544 214.278 109.141L223.746 118.608V131.998Z" stroke="#EDEDED"/>
<path d="M245.645 111.402C245.645 111.521 245.741 111.616 245.859 111.616H247.738L249.066 112.945C249.15 113.028 249.286 113.028 249.369 112.945L250.698 111.616H252.576C252.695 111.616 252.791 111.521 252.791 111.402V109.524L254.119 108.196C254.203 108.112 254.203 107.976 254.119 107.892L252.791 106.564V104.686C252.791 104.568 252.695 104.472 252.576 104.472H250.698L249.369 103.143C249.286 103.06 249.15 103.06 249.066 103.143L247.738 104.472H245.859C245.741 104.472 245.645 104.568 245.645 104.686V106.564L244.317 107.892C244.233 107.976 244.233 108.112 244.317 108.196L245.645 109.524V111.402Z" stroke="#EDEDED"/>
<path d="M228.853 90.7357C228.853 89.0488 230.221 87.6813 231.908 87.6813L266.528 87.6813C268.215 87.6813 269.583 89.0488 269.583 90.7357V125.352C269.583 127.039 268.215 128.407 266.528 128.407H231.908C230.221 128.407 228.853 127.039 228.853 125.352V90.7357Z" stroke="#EDEDED"/>
<path d="M233.497 109.063C232.9 108.467 232.9 107.5 233.497 106.903L248.077 92.3247C248.673 91.7283 249.641 91.7283 250.237 92.3247L264.817 106.903C265.414 107.5 265.414 108.467 264.817 109.063L250.237 123.642C249.641 124.238 248.673 124.238 248.077 123.642L233.497 109.063Z" stroke="#EDEDED"/>
<path d="M295.023 60.7442C295.023 61.588 295.707 62.2721 296.551 62.2721H309.942L319.41 71.7397C320.007 72.3364 320.975 72.3364 321.571 71.7397L331.04 62.2721H344.431C345.274 62.2721 345.959 61.588 345.959 60.7442V47.3549L355.427 37.8873C356.024 37.2906 356.024 36.3232 355.427 35.7265L345.959 26.2589V12.8697C345.959 12.0258 345.274 11.3418 344.431 11.3418H331.04L321.571 1.87415C320.975 1.27746 320.007 1.27746 319.41 1.87415L309.942 11.3418H296.551C295.707 11.3418 295.023 12.0258 295.023 12.8697V26.2589L285.555 35.7265C284.958 36.3232 284.958 37.2906 285.555 37.8873L295.023 47.355V60.7442Z" stroke="#EDEDED"/>
<path d="M316.922 40.1488C316.922 40.2671 317.018 40.3631 317.136 40.3631H319.015L320.343 41.6913C320.427 41.775 320.562 41.775 320.646 41.6913L321.975 40.3631H323.853C323.971 40.3631 324.067 40.2671 324.067 40.1488V38.2704L325.396 36.9422C325.479 36.8585 325.479 36.7228 325.396 36.6391L324.067 35.3109V33.4326C324.067 33.3142 323.971 33.2182 323.853 33.2182H321.975L320.646 31.89C320.562 31.8063 320.427 31.8063 320.343 31.89L319.015 33.2182H317.136C317.018 33.2182 316.922 33.3142 316.922 33.4326V35.3109L315.593 36.6391C315.51 36.7228 315.51 36.8585 315.593 36.9422L316.922 38.2704V40.1488Z" stroke="#EDEDED"/>
<path d="M300.13 19.4823C300.13 17.7954 301.497 16.4279 303.185 16.4279H337.805C339.492 16.4279 340.859 17.7954 340.859 19.4823V54.099C340.859 55.7859 339.492 57.1534 337.805 57.1534H303.185C301.497 57.1534 300.13 55.7859 300.13 54.099V19.4823Z" stroke="#EDEDED"/>
<path d="M304.774 37.8097C304.177 37.2133 304.177 36.2463 304.774 35.6499L319.354 21.0713C319.95 20.4749 320.917 20.4749 321.514 21.0713L336.094 35.6499C336.69 36.2463 336.69 37.2133 336.094 37.8097L321.514 52.3883C320.917 52.9847 319.95 52.9847 319.354 52.3883L304.774 37.8097Z" stroke="#EDEDED"/>
<path d="M295.023 131.998C295.023 132.841 295.707 133.525 296.551 133.525H309.942L319.41 142.993C320.007 143.59 320.975 143.59 321.571 142.993L331.04 133.525H344.431C345.274 133.525 345.959 132.841 345.959 131.998V118.608L355.427 109.141C356.024 108.544 356.024 107.577 355.427 106.98L345.959 97.5123V84.1231C345.959 83.2792 345.274 82.5952 344.431 82.5952H331.04L321.571 73.1275C320.975 72.5308 320.007 72.5308 319.41 73.1275L309.942 82.5952H296.551C295.707 82.5952 295.023 83.2792 295.023 84.1231V97.5123L285.555 106.98C284.958 107.577 284.958 108.544 285.555 109.141L295.023 118.608V131.998Z" stroke="#EDEDED"/>
<path d="M316.922 111.402C316.922 111.521 317.018 111.616 317.136 111.616H319.015L320.343 112.945C320.427 113.028 320.562 113.028 320.646 112.945L321.975 111.616H323.853C323.971 111.616 324.067 111.521 324.067 111.402V109.524L325.396 108.196C325.479 108.112 325.479 107.976 325.396 107.892L324.067 106.564V104.686C324.067 104.568 323.971 104.472 323.853 104.472H321.975L320.646 103.143C320.562 103.06 320.427 103.06 320.343 103.143L319.015 104.472H317.136C317.018 104.472 316.922 104.568 316.922 104.686V106.564L315.593 107.892C315.51 107.976 315.51 108.112 315.593 108.196L316.922 109.524V111.402Z" stroke="#EDEDED"/>
<path d="M300.13 90.7357C300.13 89.0488 301.497 87.6813 303.185 87.6813H337.805C339.492 87.6813 340.859 89.0488 340.859 90.7357V125.352C340.859 127.039 339.492 128.407 337.805 128.407H303.185C301.497 128.407 300.13 127.039 300.13 125.352V90.7357Z" stroke="#EDEDED"/>
<path d="M304.774 109.063C304.177 108.467 304.177 107.5 304.774 106.903L319.354 92.3247C319.95 91.7283 320.917 91.7283 321.514 92.3247L336.094 106.903C336.69 107.5 336.69 108.467 336.094 109.063L321.514 123.642C320.917 124.238 319.95 124.238 319.354 123.642L304.774 109.063Z" stroke="#EDEDED"/>
<path d="M366.3 60.7442C366.3 61.588 366.984 62.2721 367.828 62.2721H381.219L390.687 71.7397C391.284 72.3364 392.251 72.3364 392.848 71.7397L402.317 62.2721H415.707C416.551 62.2721 417.235 61.588 417.235 60.7442V47.3549L426.704 37.8873C427.301 37.2906 427.301 36.3232 426.704 35.7265L417.235 26.2589V12.8697C417.235 12.0258 416.551 11.3418 415.707 11.3418H402.317L392.848 1.87415C392.251 1.27746 391.284 1.27746 390.687 1.87415L381.219 11.3418H367.828C366.984 11.3418 366.3 12.0258 366.3 12.8697V26.2589L356.831 35.7265C356.235 36.3232 356.235 37.2906 356.831 37.8873L366.3 47.355V60.7442Z" stroke="#EDEDED"/>
<path d="M388.199 40.1488C388.199 40.2671 388.295 40.3631 388.413 40.3631H390.291L391.62 41.6913C391.703 41.775 391.839 41.775 391.923 41.6913L393.251 40.3631H395.13C395.248 40.3631 395.344 40.2671 395.344 40.1488V38.2704L396.673 36.9422C396.756 36.8585 396.756 36.7228 396.673 36.6391L395.344 35.3109V33.4326C395.344 33.3142 395.248 33.2182 395.13 33.2182H393.251L391.923 31.89C391.839 31.8063 391.703 31.8063 391.62 31.89L390.291 33.2182H388.413C388.295 33.2182 388.199 33.3142 388.199 33.4326V35.3109L386.87 36.6391C386.787 36.7228 386.787 36.8585 386.87 36.9422L388.199 38.2704V40.1488Z" stroke="#EDEDED"/>
<path d="M371.407 19.4823C371.407 17.7954 372.774 16.4279 374.461 16.4279H409.081C410.769 16.4279 412.136 17.7954 412.136 19.4823V54.099C412.136 55.7859 410.769 57.1534 409.081 57.1534L374.461 57.1534C372.774 57.1534 371.407 55.7859 371.407 54.099V19.4823Z" stroke="#EDEDED"/>
<path d="M376.05 37.8097C375.454 37.2133 375.454 36.2463 376.05 35.6499L390.631 21.0713C391.227 20.4749 392.194 20.4749 392.791 21.0713L407.371 35.6499C407.967 36.2463 407.967 37.2133 407.371 37.8097L392.791 52.3883C392.194 52.9847 391.227 52.9847 390.631 52.3883L376.05 37.8097Z" stroke="#EDEDED"/>
<path d="M366.3 131.998C366.3 132.841 366.984 133.525 367.828 133.525H381.219L390.687 142.993C391.284 143.59 392.251 143.59 392.848 142.993L402.317 133.525H415.707C416.551 133.525 417.235 132.841 417.235 131.998V118.608L426.704 109.141C427.301 108.544 427.301 107.577 426.704 106.98L417.235 97.5123V84.1231C417.235 83.2792 416.551 82.5952 415.707 82.5952H402.317L392.848 73.1275C392.251 72.5308 391.284 72.5308 390.687 73.1275L381.219 82.5952H367.828C366.984 82.5952 366.3 83.2792 366.3 84.1231V97.5123L356.831 106.98C356.235 107.577 356.235 108.544 356.831 109.141L366.3 118.608V131.998Z" stroke="#EDEDED"/>
<path d="M388.199 111.402C388.199 111.521 388.295 111.616 388.413 111.616H390.291L391.62 112.945C391.703 113.028 391.839 113.028 391.923 112.945L393.251 111.616H395.13C395.248 111.616 395.344 111.521 395.344 111.402V109.524L396.673 108.196C396.756 108.112 396.756 107.976 396.673 107.892L395.344 106.564V104.686C395.344 104.568 395.248 104.472 395.13 104.472H393.251L391.923 103.143C391.839 103.06 391.703 103.06 391.62 103.143L390.291 104.472H388.413C388.295 104.472 388.199 104.568 388.199 104.686V106.564L386.87 107.892C386.787 107.976 386.787 108.112 386.87 108.196L388.199 109.524V111.402Z" stroke="#EDEDED"/>
<path d="M371.407 90.7357C371.407 89.0488 372.774 87.6813 374.461 87.6813H409.081C410.769 87.6813 412.136 89.0488 412.136 90.7357V125.352C412.136 127.039 410.769 128.407 409.081 128.407H374.461C372.774 128.407 371.407 127.039 371.407 125.352V90.7357Z" stroke="#EDEDED"/>
<path d="M376.05 109.063C375.454 108.467 375.454 107.5 376.05 106.903L390.631 92.3247C391.227 91.7283 392.194 91.7283 392.791 92.3247L407.371 106.903C407.967 107.5 407.967 108.467 407.371 109.063L392.791 123.642C392.194 124.238 391.227 124.238 390.631 123.642L376.05 109.063Z" stroke="#EDEDED"/>
<path d="M437.577 60.7442C437.577 61.588 438.261 62.2721 439.105 62.2721H452.495L461.964 71.7397C462.561 72.3364 463.528 72.3364 464.125 71.7397L473.593 62.2721H486.984C487.828 62.2721 488.512 61.588 488.512 60.7442V47.3549L497.981 37.8873C498.577 37.2906 498.577 36.3232 497.981 35.7265L488.512 26.2589V12.8697C488.512 12.0258 487.828 11.3418 486.984 11.3418L473.593 11.3418L464.125 1.87415C463.528 1.27746 462.561 1.27746 461.964 1.87415L452.495 11.3418H439.105C438.261 11.3418 437.577 12.0258 437.577 12.8697V26.2589L428.108 35.7265C427.511 36.3232 427.511 37.2906 428.108 37.8873L437.577 47.355V60.7442Z" stroke="#EDEDED"/>
<path d="M459.475 40.1488C459.475 40.2671 459.571 40.3631 459.69 40.3631H461.568L462.897 41.6913C462.98 41.775 463.116 41.775 463.2 41.6913L464.528 40.3631H466.407C466.525 40.3631 466.621 40.2671 466.621 40.1488V38.2704L467.949 36.9422C468.033 36.8585 468.033 36.7228 467.949 36.6391L466.621 35.3109V33.4326C466.621 33.3142 466.525 33.2182 466.407 33.2182H464.528L463.2 31.89C463.116 31.8063 462.98 31.8063 462.897 31.89L461.568 33.2182H459.69C459.571 33.2182 459.475 33.3142 459.475 33.4326V35.3109L458.147 36.6391C458.063 36.7228 458.063 36.8585 458.147 36.9422L459.475 38.2704V40.1488Z" stroke="#EDEDED"/>
<path d="M442.683 19.4823C442.683 17.7954 444.051 16.4279 445.738 16.4279H480.358C482.045 16.4279 483.413 17.7954 483.413 19.4823V54.099C483.413 55.7859 482.045 57.1534 480.358 57.1534H445.738C444.051 57.1534 442.683 55.7859 442.683 54.099V19.4823Z" stroke="#EDEDED"/>
<path d="M447.327 37.8097C446.731 37.2133 446.731 36.2463 447.327 35.6499L461.907 21.0713C462.504 20.4749 463.471 20.4749 464.067 21.0713L478.647 35.6499C479.244 36.2463 479.244 37.2133 478.647 37.8097L464.067 52.3883C463.471 52.9847 462.504 52.9847 461.907 52.3883L447.327 37.8097Z" stroke="#EDEDED"/>
<path d="M437.577 131.998C437.577 132.841 438.261 133.525 439.105 133.525H452.495L461.964 142.993C462.561 143.59 463.528 143.59 464.125 142.993L473.593 133.525H486.984C487.828 133.525 488.512 132.841 488.512 131.998V118.608L497.981 109.141C498.577 108.544 498.577 107.577 497.981 106.98L488.512 97.5123V84.1231C488.512 83.2792 487.828 82.5952 486.984 82.5952H473.593L464.125 73.1275C463.528 72.5308 462.561 72.5308 461.964 73.1275L452.495 82.5952H439.105C438.261 82.5952 437.577 83.2792 437.577 84.1231V97.5123L428.108 106.98C427.511 107.577 427.511 108.544 428.108 109.141L437.577 118.608V131.998Z" stroke="#EDEDED"/>
<path d="M459.475 111.402C459.475 111.521 459.571 111.616 459.69 111.616H461.568L462.897 112.945C462.98 113.028 463.116 113.028 463.2 112.945L464.528 111.616H466.407C466.525 111.616 466.621 111.521 466.621 111.402V109.524L467.949 108.196C468.033 108.112 468.033 107.976 467.949 107.892L466.621 106.564V104.686C466.621 104.568 466.525 104.472 466.407 104.472H464.528L463.2 103.143C463.116 103.06 462.98 103.06 462.897 103.143L461.568 104.472H459.69C459.571 104.472 459.475 104.568 459.475 104.686V106.564L458.147 107.892C458.063 107.976 458.063 108.112 458.147 108.196L459.475 109.524V111.402Z" stroke="#EDEDED"/>
<path d="M442.683 90.7357C442.683 89.0488 444.051 87.6813 445.738 87.6813H480.358C482.045 87.6813 483.413 89.0488 483.413 90.7357V125.352C483.413 127.039 482.045 128.407 480.358 128.407H445.738C444.051 128.407 442.683 127.039 442.683 125.352V90.7357Z" stroke="#EDEDED"/>
<path d="M447.327 109.063C446.731 108.467 446.731 107.5 447.327 106.903L461.907 92.3247C462.504 91.7283 463.471 91.7283 464.067 92.3247L478.647 106.903C479.244 107.5 479.244 108.467 478.647 109.063L464.067 123.642C463.471 124.238 462.504 124.238 461.907 123.642L447.327 109.063Z" stroke="#EDEDED"/>
<path d="M508.853 60.7442C508.853 61.588 509.538 62.2721 510.381 62.2721H523.772L533.241 71.7397C533.837 72.3364 534.805 72.3364 535.402 71.7397L544.87 62.2721H558.261C559.105 62.2721 559.789 61.588 559.789 60.7442V47.3549L569.257 37.8873C569.854 37.2906 569.854 36.3232 569.257 35.7265L559.789 26.2589V12.8697C559.789 12.0258 559.105 11.3418 558.261 11.3418H544.87L535.402 1.87415C534.805 1.27746 533.837 1.27746 533.241 1.87415L523.772 11.3418H510.381C509.538 11.3418 508.853 12.0258 508.853 12.8697V26.2589L499.385 35.7265C498.788 36.3232 498.788 37.2906 499.385 37.8873L508.853 47.355V60.7442Z" stroke="#EDEDED"/>
<path d="M530.752 40.1488C530.752 40.2671 530.848 40.3631 530.966 40.3631H532.845L534.173 41.6913C534.257 41.775 534.393 41.775 534.476 41.6913L535.805 40.3631H537.683C537.802 40.3631 537.898 40.2671 537.898 40.1488V38.2704L539.226 36.9422C539.31 36.8585 539.31 36.7228 539.226 36.6391L537.898 35.3109V33.4326C537.898 33.3142 537.802 33.2182 537.683 33.2182H535.805L534.476 31.89C534.393 31.8063 534.257 31.8063 534.173 31.89L532.845 33.2182H530.966C530.848 33.2182 530.752 33.3142 530.752 33.4326V35.3109L529.424 36.6391C529.34 36.7228 529.34 36.8585 529.424 36.9422L530.752 38.2704V40.1488Z" stroke="#EDEDED"/>
<path d="M513.96 19.4823C513.96 17.7954 515.328 16.4279 517.015 16.4279H551.635C553.322 16.4279 554.69 17.7954 554.69 19.4823V54.099C554.69 55.7859 553.322 57.1534 551.635 57.1534H517.015C515.328 57.1534 513.96 55.7859 513.96 54.099V19.4823Z" stroke="#EDEDED"/>
<path d="M518.604 37.8097C518.007 37.2133 518.007 36.2463 518.604 35.6499L533.184 21.0713C533.78 20.4749 534.748 20.4749 535.344 21.0713L549.924 35.6499C550.521 36.2463 550.521 37.2133 549.924 37.8097L535.344 52.3883C534.748 52.9847 533.78 52.9847 533.184 52.3883L518.604 37.8097Z" stroke="#EDEDED"/>
<path d="M508.853 131.998C508.853 132.841 509.538 133.525 510.381 133.525L523.772 133.525L533.241 142.993C533.837 143.59 534.805 143.59 535.402 142.993L544.87 133.525H558.261C559.105 133.525 559.789 132.841 559.789 131.998V118.608L569.257 109.141C569.854 108.544 569.854 107.577 569.257 106.98L559.789 97.5123V84.1231C559.789 83.2792 559.105 82.5952 558.261 82.5952H544.87L535.402 73.1275C534.805 72.5308 533.837 72.5308 533.241 73.1275L523.772 82.5952H510.381C509.538 82.5952 508.853 83.2792 508.853 84.1231V97.5123L499.385 106.98C498.788 107.577 498.788 108.544 499.385 109.141L508.853 118.608V131.998Z" stroke="#EDEDED"/>
<path d="M530.752 111.402C530.752 111.521 530.848 111.616 530.966 111.616H532.845L534.173 112.945C534.257 113.028 534.393 113.028 534.476 112.945L535.805 111.616H537.683C537.802 111.616 537.898 111.521 537.898 111.402V109.524L539.226 108.196C539.31 108.112 539.31 107.976 539.226 107.892L537.898 106.564V104.686C537.898 104.568 537.802 104.472 537.683 104.472H535.805L534.476 103.143C534.393 103.06 534.257 103.06 534.173 103.143L532.845 104.472H530.966C530.848 104.472 530.752 104.568 530.752 104.686V106.564L529.424 107.892C529.34 107.976 529.34 108.112 529.424 108.196L530.752 109.524V111.402Z" stroke="#EDEDED"/>
<path d="M513.96 90.7357C513.96 89.0488 515.328 87.6813 517.015 87.6813H551.635C553.322 87.6813 554.69 89.0488 554.69 90.7357V125.352C554.69 127.039 553.322 128.407 551.635 128.407H517.015C515.328 128.407 513.96 127.039 513.96 125.352V90.7357Z" stroke="#EDEDED"/>
<path d="M518.604 109.063C518.007 108.467 518.007 107.5 518.604 106.903L533.184 92.3247C533.78 91.7283 534.748 91.7283 535.344 92.3247L549.924 106.903C550.521 107.5 550.521 108.467 549.924 109.063L535.344 123.642C534.748 124.238 533.78 124.238 533.184 123.642L518.604 109.063Z" stroke="#EDEDED"/>
<path d="M580.13 60.7442C580.13 61.588 580.814 62.2721 581.658 62.2721H595.049L604.517 71.7397C605.114 72.3364 606.082 72.3364 606.678 71.7397L616.147 62.2721H629.537C630.381 62.2721 631.066 61.588 631.066 60.7442V47.3549L640.534 37.8873C641.131 37.2906 641.131 36.3232 640.534 35.7265L631.066 26.2589V12.8697C631.066 12.0258 630.381 11.3418 629.537 11.3418H616.147L606.678 1.87415C606.082 1.27746 605.114 1.27746 604.517 1.87415L595.049 11.3418H581.658C580.814 11.3418 580.13 12.0258 580.13 12.8697V26.2589L570.662 35.7265C570.065 36.3232 570.065 37.2906 570.662 37.8873L580.13 47.355V60.7442Z" stroke="#EDEDED"/>
<path d="M602.029 40.1488C602.029 40.2671 602.125 40.3631 602.243 40.3631H604.122L605.45 41.6913C605.534 41.775 605.67 41.775 605.753 41.6913L607.082 40.3631H608.96C609.078 40.3631 609.174 40.2671 609.174 40.1488V38.2704L610.503 36.9422C610.586 36.8585 610.586 36.7228 610.503 36.6391L609.174 35.3109V33.4326C609.174 33.3142 609.078 33.2182 608.96 33.2182H607.082L605.753 31.89C605.67 31.8063 605.534 31.8063 605.45 31.89L604.122 33.2182H602.243C602.125 33.2182 602.029 33.3142 602.029 33.4326V35.3109L600.701 36.6391C600.617 36.7228 600.617 36.8585 600.701 36.9422L602.029 38.2704V40.1488Z" stroke="#EDEDED"/>
<path d="M585.237 19.4823C585.237 17.7954 586.605 16.4279 588.292 16.4279L622.912 16.4279C624.599 16.4279 625.966 17.7954 625.966 19.4823V54.099C625.966 55.7859 624.599 57.1534 622.912 57.1534H588.292C586.605 57.1534 585.237 55.7859 585.237 54.099V19.4823Z" stroke="#EDEDED"/>
<path d="M589.881 37.8097C589.284 37.2133 589.284 36.2463 589.881 35.6499L604.461 21.0713C605.057 20.4749 606.024 20.4749 606.621 21.0713L621.201 35.6499C621.797 36.2463 621.797 37.2133 621.201 37.8097L606.621 52.3883C606.024 52.9847 605.057 52.9847 604.461 52.3883L589.881 37.8097Z" stroke="#EDEDED"/>
<path d="M580.13 131.998C580.13 132.841 580.814 133.525 581.658 133.525H595.049L604.517 142.993C605.114 143.59 606.082 143.59 606.678 142.993L616.147 133.525H629.537C630.381 133.525 631.066 132.841 631.066 131.998V118.608L640.534 109.141C641.131 108.544 641.131 107.577 640.534 106.98L631.066 97.5123V84.1231C631.066 83.2792 630.381 82.5952 629.537 82.5952H616.147L606.678 73.1275C606.082 72.5308 605.114 72.5308 604.517 73.1275L595.049 82.5952H581.658C580.814 82.5952 580.13 83.2792 580.13 84.1231V97.5123L570.662 106.98C570.065 107.577 570.065 108.544 570.662 109.141L580.13 118.608V131.998Z" stroke="#EDEDED"/>
<path d="M602.029 111.402C602.029 111.521 602.125 111.616 602.243 111.616H604.122L605.45 112.945C605.534 113.028 605.67 113.028 605.753 112.945L607.082 111.616H608.96C609.078 111.616 609.174 111.521 609.174 111.402V109.524L610.503 108.196C610.586 108.112 610.586 107.976 610.503 107.892L609.174 106.564V104.686C609.174 104.568 609.078 104.472 608.96 104.472H607.082L605.753 103.143C605.67 103.06 605.534 103.06 605.45 103.143L604.122 104.472H602.243C602.125 104.472 602.029 104.568 602.029 104.686V106.564L600.701 107.892C600.617 107.976 600.617 108.112 600.701 108.196L602.029 109.524V111.402Z" stroke="#EDEDED"/>
<path d="M585.237 90.7357C585.237 89.0488 586.605 87.6813 588.292 87.6813H622.912C624.599 87.6813 625.966 89.0488 625.966 90.7357V125.352C625.966 127.039 624.599 128.407 622.912 128.407H588.292C586.605 128.407 585.237 127.039 585.237 125.352V90.7357Z" stroke="#EDEDED"/>
<path d="M589.881 109.063C589.284 108.467 589.284 107.5 589.881 106.903L604.461 92.3247C605.057 91.7283 606.024 91.7283 606.621 92.3247L621.201 106.903C621.797 107.5 621.797 108.467 621.201 109.063L606.621 123.642C606.024 124.238 605.057 124.238 604.461 123.642L589.881 109.063Z" stroke="#EDEDED"/>
<path d="M652.425 60.7442C652.425 61.588 653.109 62.2721 653.953 62.2721H667.344L676.812 71.7397C677.409 72.3364 678.377 72.3364 678.973 71.7397L688.442 62.2721H701.832C702.676 62.2721 703.361 61.588 703.361 60.7442V47.3549L712.829 37.8873C713.426 37.2906 713.426 36.3232 712.829 35.7265L703.361 26.2589V12.8697C703.361 12.0258 702.676 11.3418 701.832 11.3418H688.442L678.973 1.87415C678.377 1.27746 677.409 1.27746 676.812 1.87415L667.344 11.3418H653.953C653.109 11.3418 652.425 12.0258 652.425 12.8697V26.2589L642.957 35.7265C642.36 36.3232 642.36 37.2906 642.957 37.8873L652.425 47.355V60.7442Z" stroke="#EDEDED"/>
<path d="M674.324 40.1488C674.324 40.2671 674.42 40.3631 674.538 40.3631H676.417L677.745 41.6913C677.829 41.775 677.965 41.775 678.048 41.6913L679.377 40.3631H681.255C681.373 40.3631 681.469 40.2671 681.469 40.1488V38.2704L682.798 36.9422C682.881 36.8585 682.881 36.7228 682.798 36.6391L681.469 35.3109V33.4326C681.469 33.3142 681.373 33.2182 681.255 33.2182H679.377L678.048 31.89C677.965 31.8063 677.829 31.8063 677.745 31.89L676.417 33.2182H674.538C674.42 33.2182 674.324 33.3142 674.324 33.4326V35.3109L672.996 36.6391C672.912 36.7228 672.912 36.8585 672.996 36.9422L674.324 38.2704V40.1488Z" stroke="#EDEDED"/>
<path d="M657.532 19.4823C657.532 17.7954 658.9 16.4279 660.587 16.4279L695.207 16.4279C696.894 16.4279 698.261 17.7954 698.261 19.4823V54.099C698.261 55.7859 696.894 57.1534 695.207 57.1534H660.587C658.9 57.1534 657.532 55.7859 657.532 54.099V19.4823Z" stroke="#EDEDED"/>
<path d="M662.176 37.8097C661.579 37.2133 661.579 36.2463 662.176 35.6499L676.756 21.0713C677.352 20.4749 678.319 20.4749 678.916 21.0713L693.496 35.6499C694.092 36.2463 694.092 37.2133 693.496 37.8097L678.916 52.3883C678.319 52.9847 677.352 52.9847 676.756 52.3883L662.176 37.8097Z" stroke="#EDEDED"/>
<path d="M652.425 131.998C652.425 132.841 653.109 133.525 653.953 133.525H667.344L676.812 142.993C677.409 143.59 678.377 143.59 678.973 142.993L688.442 133.525H701.832C702.676 133.525 703.361 132.841 703.361 131.998V118.608L712.829 109.141C713.426 108.544 713.426 107.577 712.829 106.98L703.361 97.5123V84.1231C703.361 83.2792 702.676 82.5952 701.832 82.5952H688.442L678.973 73.1275C678.377 72.5308 677.409 72.5308 676.812 73.1275L667.344 82.5952H653.953C653.109 82.5952 652.425 83.2792 652.425 84.1231V97.5123L642.957 106.98C642.36 107.577 642.36 108.544 642.957 109.141L652.425 118.608V131.998Z" stroke="#EDEDED"/>
<path d="M674.324 111.402C674.324 111.521 674.42 111.616 674.538 111.616H676.417L677.745 112.945C677.829 113.028 677.965 113.028 678.048 112.945L679.377 111.616H681.255C681.373 111.616 681.469 111.521 681.469 111.402V109.524L682.798 108.196C682.881 108.112 682.881 107.976 682.798 107.892L681.469 106.564V104.686C681.469 104.568 681.373 104.472 681.255 104.472H679.377L678.048 103.143C677.965 103.06 677.829 103.06 677.745 103.143L676.417 104.472H674.538C674.42 104.472 674.324 104.568 674.324 104.686V106.564L672.996 107.892C672.912 107.976 672.912 108.112 672.996 108.196L674.324 109.524V111.402Z" stroke="#EDEDED"/>
<path d="M657.532 90.7357C657.532 89.0488 658.9 87.6813 660.587 87.6813H695.207C696.894 87.6813 698.261 89.0488 698.261 90.7357V125.352C698.261 127.039 696.894 128.407 695.207 128.407H660.587C658.9 128.407 657.532 127.039 657.532 125.352V90.7357Z" stroke="#EDEDED"/>
<path d="M662.176 109.063C661.579 108.467 661.579 107.5 662.176 106.903L676.756 92.3247C677.352 91.7283 678.319 91.7283 678.916 92.3247L693.496 106.903C694.092 107.5 694.092 108.467 693.496 109.063L678.916 123.642C678.319 124.238 677.352 124.238 676.756 123.642L662.176 109.063Z" stroke="#EDEDED"/>
<path d="M723.702 60.7442C723.702 61.588 724.386 62.2721 725.23 62.2721H738.621L748.089 71.7397C748.686 72.3364 749.653 72.3364 750.25 71.7397L759.719 62.2721H773.109C773.953 62.2721 774.637 61.588 774.637 60.7442V47.3549L784.106 37.8873C784.703 37.2906 784.703 36.3232 784.106 35.7265L774.637 26.2589V12.8697C774.637 12.0258 773.953 11.3418 773.109 11.3418H759.719L750.25 1.87415C749.653 1.27746 748.686 1.27746 748.089 1.87415L738.621 11.3418L725.23 11.3418C724.386 11.3418 723.702 12.0258 723.702 12.8697V26.2589L714.233 35.7265C713.637 36.3232 713.637 37.2906 714.233 37.8873L723.702 47.355V60.7442Z" stroke="#EDEDED"/>
<path d="M745.601 40.1488C745.601 40.2671 745.697 40.3631 745.815 40.3631H747.693L749.022 41.6913C749.106 41.775 749.241 41.775 749.325 41.6913L750.653 40.3631H752.532C752.65 40.3631 752.746 40.2671 752.746 40.1488V38.2704L754.074 36.9422C754.158 36.8585 754.158 36.7228 754.074 36.6391L752.746 35.3109V33.4326C752.746 33.3142 752.65 33.2182 752.532 33.2182H750.653L749.325 31.89C749.241 31.8063 749.106 31.8063 749.022 31.89L747.693 33.2182H745.815C745.697 33.2182 745.601 33.3142 745.601 33.4326V35.3109L744.272 36.6391C744.189 36.7228 744.189 36.8585 744.272 36.9422L745.601 38.2704V40.1488Z" stroke="#EDEDED"/>
<path d="M728.809 19.4823C728.809 17.7954 730.176 16.4279 731.863 16.4279H766.483C768.171 16.4279 769.538 17.7954 769.538 19.4823V54.099C769.538 55.7859 768.171 57.1534 766.483 57.1534H731.863C730.176 57.1534 728.809 55.7859 728.809 54.099V19.4823Z" stroke="#EDEDED"/>
<path d="M733.452 37.8097C732.856 37.2133 732.856 36.2463 733.452 35.6499L748.033 21.0713C748.629 20.4749 749.596 20.4749 750.193 21.0713L764.773 35.6499C765.369 36.2463 765.369 37.2133 764.773 37.8097L750.193 52.3883C749.596 52.9847 748.629 52.9847 748.033 52.3883L733.452 37.8097Z" stroke="#EDEDED"/>
<path d="M723.702 131.998C723.702 132.841 724.386 133.525 725.23 133.525H738.621L748.089 142.993C748.686 143.59 749.653 143.59 750.25 142.993L759.719 133.525H773.109C773.953 133.525 774.637 132.841 774.637 131.998V118.608L784.106 109.141C784.703 108.544 784.703 107.577 784.106 106.98L774.637 97.5123V84.1231C774.637 83.2792 773.953 82.5952 773.109 82.5952L759.719 82.5952L750.25 73.1275C749.653 72.5308 748.686 72.5308 748.089 73.1275L738.621 82.5952H725.23C724.386 82.5952 723.702 83.2792 723.702 84.1231V97.5123L714.233 106.98C713.637 107.577 713.637 108.544 714.233 109.141L723.702 118.608V131.998Z" stroke="#EDEDED"/>
<path d="M745.601 111.402C745.601 111.521 745.697 111.616 745.815 111.616H747.693L749.022 112.945C749.106 113.028 749.241 113.028 749.325 112.945L750.653 111.616H752.532C752.65 111.616 752.746 111.521 752.746 111.402V109.524L754.074 108.196C754.158 108.112 754.158 107.976 754.074 107.892L752.746 106.564V104.686C752.746 104.568 752.65 104.472 752.532 104.472H750.653L749.325 103.143C749.241 103.06 749.106 103.06 749.022 103.143L747.693 104.472H745.815C745.697 104.472 745.601 104.568 745.601 104.686V106.564L744.272 107.892C744.189 107.976 744.189 108.112 744.272 108.196L745.601 109.524V111.402Z" stroke="#EDEDED"/>
<path d="M728.809 90.7357C728.809 89.0488 730.176 87.6813 731.863 87.6813H766.483C768.171 87.6813 769.538 89.0488 769.538 90.7357V125.352C769.538 127.039 768.171 128.407 766.483 128.407H731.863C730.176 128.407 728.809 127.039 728.809 125.352V90.7357Z" stroke="#EDEDED"/>
<path d="M733.452 109.063C732.856 108.467 732.856 107.5 733.452 106.903L748.033 92.3247C748.629 91.7283 749.596 91.7283 750.193 92.3247L764.773 106.903C765.369 107.5 765.369 108.467 764.773 109.063L750.193 123.642C749.596 124.238 748.629 124.238 748.033 123.642L733.452 109.063Z" stroke="#EDEDED"/>
<path d="M794.979 60.7442C794.979 61.588 795.663 62.2721 796.507 62.2721H809.897L819.366 71.7397C819.963 72.3364 820.93 72.3364 821.527 71.7397L830.995 62.2721H844.386C845.23 62.2721 845.914 61.588 845.914 60.7442V47.3549L855.383 37.8873C855.979 37.2906 855.979 36.3232 855.383 35.7265L845.914 26.2589V12.8697C845.914 12.0258 845.23 11.3418 844.386 11.3418H830.995L821.527 1.87415C820.93 1.27746 819.963 1.27746 819.366 1.87415L809.897 11.3418L796.507 11.3418C795.663 11.3418 794.979 12.0258 794.979 12.8697V26.2589L785.51 35.7265C784.913 36.3232 784.913 37.2906 785.51 37.8873L794.979 47.355V60.7442Z" stroke="#EDEDED"/>
<path d="M816.877 40.1488C816.877 40.2671 816.973 40.3631 817.092 40.3631H818.97L820.299 41.6913C820.382 41.775 820.518 41.775 820.602 41.6913L821.93 40.3631H823.809C823.927 40.3631 824.023 40.2671 824.023 40.1488V38.2704L825.351 36.9422C825.435 36.8585 825.435 36.7228 825.351 36.6391L824.023 35.3109V33.4326C824.023 33.3142 823.927 33.2182 823.809 33.2182H821.93L820.602 31.89C820.518 31.8063 820.382 31.8063 820.299 31.89L818.97 33.2182H817.092C816.973 33.2182 816.877 33.3142 816.877 33.4326V35.3109L815.549 36.6391C815.465 36.7228 815.465 36.8585 815.549 36.9422L816.877 38.2704V40.1488Z" stroke="#EDEDED"/>
<path d="M800.085 19.4823C800.085 17.7954 801.453 16.4279 803.14 16.4279H837.76C839.447 16.4279 840.815 17.7954 840.815 19.4823V54.099C840.815 55.7859 839.447 57.1534 837.76 57.1534H803.14C801.453 57.1534 800.085 55.7859 800.085 54.099V19.4823Z" stroke="#EDEDED"/>
<path d="M804.729 37.8097C804.133 37.2133 804.133 36.2463 804.729 35.6499L819.309 21.0713C819.906 20.4749 820.873 20.4749 821.469 21.0713L836.049 35.6499C836.646 36.2463 836.646 37.2133 836.049 37.8097L821.469 52.3883C820.873 52.9847 819.906 52.9847 819.309 52.3883L804.729 37.8097Z" stroke="#EDEDED"/>
<path d="M794.979 131.998C794.979 132.841 795.663 133.525 796.507 133.525H809.897L819.366 142.993C819.963 143.59 820.93 143.59 821.527 142.993L830.995 133.525H844.386C845.23 133.525 845.914 132.841 845.914 131.998V118.608L855.383 109.141C855.979 108.544 855.979 107.577 855.383 106.98L845.914 97.5123V84.1231C845.914 83.2792 845.23 82.5952 844.386 82.5952H830.995L821.527 73.1275C820.93 72.5308 819.963 72.5308 819.366 73.1275L809.897 82.5952H796.507C795.663 82.5952 794.979 83.2792 794.979 84.1231V97.5123L785.51 106.98C784.913 107.577 784.913 108.544 785.51 109.141L794.979 118.608V131.998Z" stroke="#EDEDED"/>
<path d="M816.877 111.402C816.877 111.521 816.973 111.616 817.092 111.616H818.97L820.299 112.945C820.382 113.028 820.518 113.028 820.602 112.945L821.93 111.616H823.809C823.927 111.616 824.023 111.521 824.023 111.402V109.524L825.351 108.196C825.435 108.112 825.435 107.976 825.351 107.892L824.023 106.564V104.686C824.023 104.568 823.927 104.472 823.809 104.472H821.93L820.602 103.143C820.518 103.06 820.382 103.06 820.299 103.143L818.97 104.472H817.092C816.973 104.472 816.877 104.568 816.877 104.686V106.564L815.549 107.892C815.465 107.976 815.465 108.112 815.549 108.196L816.877 109.524V111.402Z" stroke="#EDEDED"/>
<path d="M800.085 90.7357C800.085 89.0488 801.453 87.6813 803.14 87.6813H837.76C839.447 87.6813 840.815 89.0488 840.815 90.7357V125.352C840.815 127.039 839.447 128.407 837.76 128.407H803.14C801.453 128.407 800.085 127.039 800.085 125.352V90.7357Z" stroke="#EDEDED"/>
<path d="M804.729 109.063C804.133 108.467 804.133 107.5 804.729 106.903L819.309 92.3247C819.906 91.7283 820.873 91.7283 821.469 92.3247L836.049 106.903C836.646 107.5 836.646 108.467 836.049 109.063L821.469 123.642C820.873 124.238 819.906 124.238 819.309 123.642L804.729 109.063Z" stroke="#EDEDED"/>
<path d="M866.255 60.7442C866.255 61.588 866.94 62.2721 867.784 62.2721H881.174L890.643 71.7397C891.239 72.3364 892.207 72.3364 892.804 71.7397L902.272 62.2721H915.663C916.507 62.2721 917.191 61.588 917.191 60.7442V47.3549L926.659 37.8873C927.256 37.2906 927.256 36.3232 926.659 35.7265L917.191 26.2589V12.8697C917.191 12.0258 916.507 11.3418 915.663 11.3418H902.272L892.804 1.87415C892.207 1.27746 891.239 1.27746 890.643 1.87415L881.174 11.3418H867.784C866.94 11.3418 866.255 12.0258 866.255 12.8697V26.2589L856.787 35.7265C856.19 36.3232 856.19 37.2906 856.787 37.8873L866.255 47.355V60.7442Z" stroke="#EDEDED"/>
<path d="M888.154 40.1488C888.154 40.2671 888.25 40.3631 888.368 40.3631H890.247L891.575 41.6913C891.659 41.775 891.795 41.775 891.879 41.6913L893.207 40.3631H895.085C895.204 40.3631 895.3 40.2671 895.3 40.1488V38.2704L896.628 36.9422C896.712 36.8585 896.712 36.7228 896.628 36.6391L895.3 35.3109V33.4326C895.3 33.3142 895.204 33.2182 895.085 33.2182H893.207L891.879 31.89C891.795 31.8063 891.659 31.8063 891.575 31.89L890.247 33.2182H888.368C888.25 33.2182 888.154 33.3142 888.154 33.4326V35.3109L886.826 36.6391C886.742 36.7228 886.742 36.8585 886.826 36.9422L888.154 38.2704V40.1488Z" stroke="#EDEDED"/>
<path d="M871.362 19.4823C871.362 17.7954 872.73 16.4279 874.417 16.4279H909.037C910.724 16.4279 912.092 17.7954 912.092 19.4823V54.099C912.092 55.7859 910.724 57.1534 909.037 57.1534L874.417 57.1534C872.73 57.1534 871.362 55.7859 871.362 54.099V19.4823Z" stroke="#EDEDED"/>
<path d="M876.006 37.8097C875.409 37.2133 875.409 36.2463 876.006 35.6499L890.586 21.0713C891.183 20.4749 892.15 20.4749 892.746 21.0713L907.326 35.6499C907.923 36.2463 907.923 37.2133 907.326 37.8097L892.746 52.3883C892.15 52.9847 891.183 52.9847 890.586 52.3883L876.006 37.8097Z" stroke="#EDEDED"/>
<path d="M866.255 131.998C866.255 132.841 866.94 133.525 867.784 133.525H881.174L890.643 142.993C891.239 143.59 892.207 143.59 892.804 142.993L902.272 133.525H915.663C916.507 133.525 917.191 132.841 917.191 131.998V118.608L926.659 109.141C927.256 108.544 927.256 107.577 926.659 106.98L917.191 97.5123V84.1231C917.191 83.2792 916.507 82.5952 915.663 82.5952H902.272L892.804 73.1275C892.207 72.5308 891.239 72.5308 890.643 73.1275L881.174 82.5952H867.784C866.94 82.5952 866.255 83.2792 866.255 84.1231V97.5123L856.787 106.98C856.19 107.577 856.19 108.544 856.787 109.141L866.255 118.608V131.998Z" stroke="#EDEDED"/>
<path d="M888.154 111.402C888.154 111.521 888.25 111.616 888.368 111.616H890.247L891.575 112.945C891.659 113.028 891.795 113.028 891.879 112.945L893.207 111.616H895.085C895.204 111.616 895.3 111.521 895.3 111.402V109.524L896.628 108.196C896.712 108.112 896.712 107.976 896.628 107.892L895.3 106.564V104.686C895.3 104.568 895.204 104.472 895.085 104.472H893.207L891.879 103.143C891.795 103.06 891.659 103.06 891.575 103.143L890.247 104.472H888.368C888.25 104.472 888.154 104.568 888.154 104.686V106.564L886.826 107.892C886.742 107.976 886.742 108.112 886.826 108.196L888.154 109.524V111.402Z" stroke="#EDEDED"/>
<path d="M871.362 90.7357C871.362 89.0488 872.73 87.6813 874.417 87.6813H909.037C910.724 87.6813 912.092 89.0488 912.092 90.7357V125.352C912.092 127.039 910.724 128.407 909.037 128.407H874.417C872.73 128.407 871.362 127.039 871.362 125.352V90.7357Z" stroke="#EDEDED"/>
<path d="M876.006 109.063C875.409 108.467 875.409 107.5 876.006 106.903L890.586 92.3247C891.183 91.7283 892.15 91.7283 892.746 92.3247L907.326 106.903C907.923 107.5 907.923 108.467 907.326 109.063L892.746 123.642C892.15 124.238 891.183 124.238 890.586 123.642L876.006 109.063Z" stroke="#EDEDED"/>
<path d="M937.532 60.7442C937.532 61.588 938.216 62.2721 939.06 62.2721H952.451L961.919 71.7397C962.516 72.3364 963.484 72.3364 964.08 71.7397L973.549 62.2721H986.94C987.784 62.2721 988.468 61.588 988.468 60.7442V47.3549L997.936 37.8873C998.533 37.2906 998.533 36.3232 997.936 35.7265L988.468 26.2589V12.8697C988.468 12.0258 987.784 11.3418 986.94 11.3418H973.549L964.08 1.87415C963.484 1.27746 962.516 1.27746 961.919 1.87415L952.451 11.3418H939.06C938.216 11.3418 937.532 12.0258 937.532 12.8697V26.2589L928.064 35.7265C927.467 36.3232 927.467 37.2906 928.064 37.8873L937.532 47.355V60.7442Z" stroke="#EDEDED"/>
<path d="M959.431 40.1488C959.431 40.2671 959.527 40.3631 959.645 40.3631H961.524L962.852 41.6913C962.936 41.775 963.072 41.775 963.155 41.6913L964.484 40.3631H966.362C966.481 40.3631 966.576 40.2671 966.576 40.1488V38.2704L967.905 36.9422C967.989 36.8585 967.989 36.7228 967.905 36.6391L966.576 35.3109V33.4326C966.576 33.3142 966.481 33.2182 966.362 33.2182H964.484L963.155 31.89C963.072 31.8063 962.936 31.8063 962.852 31.89L961.524 33.2182H959.645C959.527 33.2182 959.431 33.3142 959.431 33.4326V35.3109L958.103 36.6391C958.019 36.7228 958.019 36.8585 958.103 36.9422L959.431 38.2704V40.1488Z" stroke="#EDEDED"/>
<path d="M942.639 19.4823C942.639 17.7954 944.007 16.4279 945.694 16.4279H980.314C982.001 16.4279 983.368 17.7954 983.368 19.4823V54.099C983.368 55.7859 982.001 57.1534 980.314 57.1534H945.694C944.007 57.1534 942.639 55.7859 942.639 54.099V19.4823Z" stroke="#EDEDED"/>
<path d="M947.283 37.8097C946.686 37.2133 946.686 36.2463 947.283 35.6499L961.863 21.0713C962.459 20.4749 963.426 20.4749 964.023 21.0713L978.603 35.6499C979.199 36.2463 979.199 37.2133 978.603 37.8097L964.023 52.3883C963.426 52.9847 962.459 52.9847 961.863 52.3883L947.283 37.8097Z" stroke="#EDEDED"/>
<path d="M937.532 131.998C937.532 132.841 938.216 133.525 939.06 133.525H952.451L961.919 142.993C962.516 143.59 963.484 143.59 964.08 142.993L973.549 133.525H986.94C987.784 133.525 988.468 132.841 988.468 131.998V118.608L997.936 109.141C998.533 108.544 998.533 107.577 997.936 106.98L988.468 97.5123V84.1231C988.468 83.2792 987.784 82.5952 986.94 82.5952H973.549L964.08 73.1275C963.484 72.5308 962.516 72.5308 961.919 73.1275L952.451 82.5952H939.06C938.216 82.5952 937.532 83.2792 937.532 84.1231V97.5123L928.064 106.98C927.467 107.577 927.467 108.544 928.064 109.141L937.532 118.608V131.998Z" stroke="#EDEDED"/>
<path d="M959.431 111.402C959.431 111.521 959.527 111.616 959.645 111.616H961.524L962.852 112.945C962.936 113.028 963.072 113.028 963.155 112.945L964.484 111.616H966.362C966.481 111.616 966.576 111.521 966.576 111.402V109.524L967.905 108.196C967.989 108.112 967.989 107.976 967.905 107.892L966.576 106.564V104.686C966.576 104.568 966.481 104.472 966.362 104.472H964.484L963.155 103.143C963.072 103.06 962.936 103.06 962.852 103.143L961.524 104.472H959.645C959.527 104.472 959.431 104.568 959.431 104.686V106.564L958.103 107.892C958.019 107.976 958.019 108.112 958.103 108.196L959.431 109.524V111.402Z" stroke="#EDEDED"/>
<path d="M942.639 90.7357C942.639 89.0488 944.007 87.6813 945.694 87.6813H980.314C982.001 87.6813 983.368 89.0488 983.368 90.7357V125.352C983.368 127.039 982.001 128.407 980.314 128.407H945.694C944.007 128.407 942.639 127.039 942.639 125.352V90.7357Z" stroke="#EDEDED"/>
<path d="M947.283 109.063C946.686 108.467 946.686 107.5 947.283 106.903L961.863 92.3247C962.459 91.7283 963.426 91.7283 964.023 92.3247L978.603 106.903C979.199 107.5 979.199 108.467 978.603 109.063L964.023 123.642C963.426 124.238 962.459 124.238 961.863 123.642L947.283 109.063Z" stroke="#EDEDED"/>
<path d="M1008.81 60.7442C1008.81 61.588 1009.49 62.2721 1010.34 62.2721H1023.73L1033.2 71.7397C1033.79 72.3364 1034.76 72.3364 1035.36 71.7397L1044.83 62.2721H1058.22C1059.06 62.2721 1059.74 61.588 1059.74 60.7442V47.3549L1069.21 37.8873C1069.81 37.2906 1069.81 36.3232 1069.21 35.7265L1059.74 26.2589V12.8697C1059.74 12.0258 1059.06 11.3418 1058.22 11.3418L1044.83 11.3418L1035.36 1.87415C1034.76 1.27746 1033.79 1.27746 1033.2 1.87415L1023.73 11.3418H1010.34C1009.49 11.3418 1008.81 12.0258 1008.81 12.8697V26.2589L999.34 35.7265C998.744 36.3232 998.744 37.2906 999.34 37.8873L1008.81 47.355V60.7442Z" stroke="#EDEDED"/>
<path d="M1030.71 40.1488C1030.71 40.2671 1030.8 40.3631 1030.92 40.3631H1032.8L1034.13 41.6913C1034.21 41.775 1034.35 41.775 1034.43 41.6913L1035.76 40.3631H1037.64C1037.76 40.3631 1037.85 40.2671 1037.85 40.1488V38.2704L1039.18 36.9422C1039.27 36.8585 1039.27 36.7228 1039.18 36.6391L1037.85 35.3109V33.4326C1037.85 33.3142 1037.76 33.2182 1037.64 33.2182H1035.76L1034.43 31.89C1034.35 31.8063 1034.21 31.8063 1034.13 31.89L1032.8 33.2182H1030.92C1030.8 33.2182 1030.71 33.3142 1030.71 33.4326V35.3109L1029.38 36.6391C1029.3 36.7228 1029.3 36.8585 1029.38 36.9422L1030.71 38.2704V40.1488Z" stroke="#EDEDED"/>
<path d="M1013.92 19.4823C1013.92 17.7954 1015.28 16.4279 1016.97 16.4279H1051.59C1053.28 16.4279 1054.65 17.7954 1054.65 19.4823V54.099C1054.65 55.7859 1053.28 57.1534 1051.59 57.1534H1016.97C1015.28 57.1534 1013.92 55.7859 1013.92 54.099V19.4823Z" stroke="#EDEDED"/>
<path d="M1018.56 37.8097C1017.96 37.2133 1017.96 36.2463 1018.56 35.6499L1033.14 21.0713C1033.74 20.4749 1034.7 20.4749 1035.3 21.0713L1049.88 35.6499C1050.48 36.2463 1050.48 37.2133 1049.88 37.8097L1035.3 52.3883C1034.7 52.9847 1033.74 52.9847 1033.14 52.3883L1018.56 37.8097Z" stroke="#EDEDED"/>
<path d="M1008.81 131.998C1008.81 132.841 1009.49 133.525 1010.34 133.525H1023.73L1033.2 142.993C1033.79 143.59 1034.76 143.59 1035.36 142.993L1044.83 133.525H1058.22C1059.06 133.525 1059.74 132.841 1059.74 131.998V118.608L1069.21 109.141C1069.81 108.544 1069.81 107.577 1069.21 106.98L1059.74 97.5123V84.1231C1059.74 83.2792 1059.06 82.5952 1058.22 82.5952H1044.83L1035.36 73.1275C1034.76 72.5308 1033.79 72.5308 1033.2 73.1275L1023.73 82.5952H1010.34C1009.49 82.5952 1008.81 83.2792 1008.81 84.1231V97.5123L999.34 106.98C998.744 107.577 998.744 108.544 999.34 109.141L1008.81 118.608V131.998Z" stroke="#EDEDED"/>
<path d="M1030.71 111.402C1030.71 111.521 1030.8 111.616 1030.92 111.616H1032.8L1034.13 112.945C1034.21 113.028 1034.35 113.028 1034.43 112.945L1035.76 111.616H1037.64C1037.76 111.616 1037.85 111.521 1037.85 111.402V109.524L1039.18 108.196C1039.27 108.112 1039.27 107.976 1039.18 107.892L1037.85 106.564V104.686C1037.85 104.568 1037.76 104.472 1037.64 104.472H1035.76L1034.43 103.143C1034.35 103.06 1034.21 103.06 1034.13 103.143L1032.8 104.472H1030.92C1030.8 104.472 1030.71 104.568 1030.71 104.686V106.564L1029.38 107.892C1029.3 107.976 1029.3 108.112 1029.38 108.196L1030.71 109.524V111.402Z" stroke="#EDEDED"/>
<path d="M1013.92 90.7357C1013.92 89.0488 1015.28 87.6813 1016.97 87.6813H1051.59C1053.28 87.6813 1054.65 89.0488 1054.65 90.7357V125.352C1054.65 127.039 1053.28 128.407 1051.59 128.407H1016.97C1015.28 128.407 1013.92 127.039 1013.92 125.352V90.7357Z" stroke="#EDEDED"/>
<path d="M1018.56 109.063C1017.96 108.467 1017.96 107.5 1018.56 106.903L1033.14 92.3247C1033.74 91.7283 1034.7 91.7283 1035.3 92.3247L1049.88 106.903C1050.48 107.5 1050.48 108.467 1049.88 109.063L1035.3 123.642C1034.7 124.238 1033.74 124.238 1033.14 123.642L1018.56 109.063Z" stroke="#EDEDED"/>
<path d="M1080.09 60.7442C1080.09 61.588 1080.77 62.2721 1081.61 62.2721H1095L1104.47 71.7397C1105.07 72.3364 1106.04 72.3364 1106.63 71.7397L1116.1 62.2721H1129.49C1130.34 62.2721 1131.02 61.588 1131.02 60.7442V47.3549L1140.49 37.8873C1141.09 37.2906 1141.09 36.3232 1140.49 35.7265L1131.02 26.2589V12.8697C1131.02 12.0258 1130.34 11.3418 1129.49 11.3418L1116.1 11.3418L1106.63 1.87415C1106.04 1.27746 1105.07 1.27746 1104.47 1.87415L1095 11.3418H1081.61C1080.77 11.3418 1080.09 12.0258 1080.09 12.8697V26.2589L1070.62 35.7265C1070.02 36.3232 1070.02 37.2906 1070.62 37.8873L1080.09 47.355V60.7442Z" stroke="#EDEDED"/>
<path d="M1101.98 40.1488C1101.98 40.2671 1102.08 40.3631 1102.2 40.3631H1104.08L1105.41 41.6913C1105.49 41.775 1105.63 41.775 1105.71 41.6913L1107.04 40.3631H1108.92C1109.03 40.3631 1109.13 40.2671 1109.13 40.1488V38.2704L1110.46 36.9422C1110.54 36.8585 1110.54 36.7228 1110.46 36.6391L1109.13 35.3109V33.4326C1109.13 33.3142 1109.03 33.2182 1108.92 33.2182H1107.04L1105.71 31.89C1105.63 31.8063 1105.49 31.8063 1105.41 31.89L1104.08 33.2182H1102.2C1102.08 33.2182 1101.98 33.3142 1101.98 33.4326V35.3109L1100.66 36.6391C1100.57 36.7228 1100.57 36.8585 1100.66 36.9422L1101.98 38.2704V40.1488Z" stroke="#EDEDED"/>
<path d="M1085.19 19.4823C1085.19 17.7954 1086.56 16.4279 1088.25 16.4279L1122.87 16.4279C1124.55 16.4279 1125.92 17.7954 1125.92 19.4823V54.099C1125.92 55.7859 1124.55 57.1534 1122.87 57.1534H1088.25C1086.56 57.1534 1085.19 55.7859 1085.19 54.099V19.4823Z" stroke="#EDEDED"/>
<path d="M1089.84 37.8097C1089.24 37.2133 1089.24 36.2463 1089.84 35.6499L1104.42 21.0713C1105.01 20.4749 1105.98 20.4749 1106.58 21.0713L1121.16 35.6499C1121.75 36.2463 1121.75 37.2133 1121.16 37.8097L1106.58 52.3883C1105.98 52.9847 1105.01 52.9847 1104.42 52.3883L1089.84 37.8097Z" stroke="#EDEDED"/>
<path d="M1080.09 131.998C1080.09 132.841 1080.77 133.525 1081.61 133.525H1095L1104.47 142.993C1105.07 143.59 1106.04 143.59 1106.63 142.993L1116.1 133.525H1129.49C1130.34 133.525 1131.02 132.841 1131.02 131.998V118.608L1140.49 109.141C1141.09 108.544 1141.09 107.577 1140.49 106.98L1131.02 97.5123V84.1231C1131.02 83.2792 1130.34 82.5952 1129.49 82.5952H1116.1L1106.63 73.1275C1106.04 72.5308 1105.07 72.5308 1104.47 73.1275L1095 82.5952H1081.61C1080.77 82.5952 1080.09 83.2792 1080.09 84.1231V97.5123L1070.62 106.98C1070.02 107.577 1070.02 108.544 1070.62 109.141L1080.09 118.608V131.998Z" stroke="#EDEDED"/>
<path d="M1101.98 111.402C1101.98 111.521 1102.08 111.616 1102.2 111.616H1104.08L1105.41 112.945C1105.49 113.028 1105.63 113.028 1105.71 112.945L1107.04 111.616H1108.92C1109.03 111.616 1109.13 111.521 1109.13 111.402V109.524L1110.46 108.196C1110.54 108.112 1110.54 107.976 1110.46 107.892L1109.13 106.564V104.686C1109.13 104.568 1109.03 104.472 1108.92 104.472H1107.04L1105.71 103.143C1105.63 103.06 1105.49 103.06 1105.41 103.143L1104.08 104.472H1102.2C1102.08 104.472 1101.98 104.568 1101.98 104.686V106.564L1100.66 107.892C1100.57 107.976 1100.57 108.112 1100.66 108.196L1101.98 109.524V111.402Z" stroke="#EDEDED"/>
<path d="M1085.19 90.7357C1085.19 89.0488 1086.56 87.6813 1088.25 87.6813H1122.87C1124.55 87.6813 1125.92 89.0488 1125.92 90.7357V125.352C1125.92 127.039 1124.55 128.407 1122.87 128.407H1088.25C1086.56 128.407 1085.19 127.039 1085.19 125.352V90.7357Z" stroke="#EDEDED"/>
<path d="M1089.84 109.063C1089.24 108.467 1089.24 107.5 1089.84 106.903L1104.42 92.3247C1105.01 91.7283 1105.98 91.7283 1106.58 92.3247L1121.16 106.903C1121.75 107.5 1121.75 108.467 1121.16 109.063L1106.58 123.642C1105.98 124.238 1105.01 124.238 1104.42 123.642L1089.84 109.063Z" stroke="#EDEDED"/>
<path d="M1151.36 60.7442C1151.36 61.588 1152.05 62.2721 1152.89 62.2721H1166.28L1175.75 71.7397C1176.35 72.3364 1177.31 72.3364 1177.91 71.7397L1187.38 62.2721H1200.77C1201.61 62.2721 1202.3 61.588 1202.3 60.7442V47.3549L1211.77 37.8873C1212.36 37.2906 1212.36 36.3232 1211.77 35.7265L1202.3 26.2589V12.8697C1202.3 12.0258 1201.61 11.3418 1200.77 11.3418H1187.38L1177.91 1.87415C1177.31 1.27746 1176.35 1.27746 1175.75 1.87415L1166.28 11.3418H1152.89C1152.05 11.3418 1151.36 12.0258 1151.36 12.8697V26.2589L1141.89 35.7265C1141.3 36.3232 1141.3 37.2906 1141.89 37.8873L1151.36 47.355V60.7442Z" stroke="#EDEDED"/>
<path d="M1173.26 40.1488C1173.26 40.2671 1173.36 40.3631 1173.48 40.3631H1175.35L1176.68 41.6913C1176.77 41.775 1176.9 41.775 1176.99 41.6913L1178.31 40.3631H1180.19C1180.31 40.3631 1180.41 40.2671 1180.41 40.1488V38.2704L1181.74 36.9422C1181.82 36.8585 1181.82 36.7228 1181.74 36.6391L1180.41 35.3109V33.4326C1180.41 33.3142 1180.31 33.2182 1180.19 33.2182H1178.31L1176.99 31.89C1176.9 31.8063 1176.77 31.8063 1176.68 31.89L1175.35 33.2182H1173.48C1173.36 33.2182 1173.26 33.3142 1173.26 33.4326V35.3109L1171.93 36.6391C1171.85 36.7228 1171.85 36.8585 1171.93 36.9422L1173.26 38.2704V40.1488Z" stroke="#EDEDED"/>
<path d="M1156.47 19.4823C1156.47 17.7954 1157.84 16.4279 1159.52 16.4279L1194.14 16.4279C1195.83 16.4279 1197.2 17.7954 1197.2 19.4823V54.099C1197.2 55.7859 1195.83 57.1534 1194.14 57.1534H1159.52C1157.84 57.1534 1156.47 55.7859 1156.47 54.099V19.4823Z" stroke="#EDEDED"/>
<path d="M1161.11 37.8097C1160.52 37.2133 1160.52 36.2463 1161.11 35.6499L1175.69 21.0713C1176.29 20.4749 1177.26 20.4749 1177.85 21.0713L1192.43 35.6499C1193.03 36.2463 1193.03 37.2133 1192.43 37.8097L1177.85 52.3883C1177.26 52.9847 1176.29 52.9847 1175.69 52.3883L1161.11 37.8097Z" stroke="#EDEDED"/>
<path d="M1151.36 131.998C1151.36 132.841 1152.05 133.525 1152.89 133.525H1166.28L1175.75 142.993C1176.35 143.59 1177.31 143.59 1177.91 142.993L1187.38 133.525H1200.77C1201.61 133.525 1202.3 132.841 1202.3 131.998V118.608L1211.77 109.141C1212.36 108.544 1212.36 107.577 1211.77 106.98L1202.3 97.5123V84.1231C1202.3 83.2792 1201.61 82.5952 1200.77 82.5952H1187.38L1177.91 73.1275C1177.31 72.5308 1176.35 72.5308 1175.75 73.1275L1166.28 82.5952H1152.89C1152.05 82.5952 1151.36 83.2792 1151.36 84.1231V97.5123L1141.89 106.98C1141.3 107.577 1141.3 108.544 1141.89 109.141L1151.36 118.608V131.998Z" stroke="#EDEDED"/>
<path d="M1173.26 111.402C1173.26 111.521 1173.36 111.616 1173.48 111.616H1175.35L1176.68 112.945C1176.77 113.028 1176.9 113.028 1176.99 112.945L1178.31 111.616H1180.19C1180.31 111.616 1180.41 111.521 1180.41 111.402V109.524L1181.74 108.196C1181.82 108.112 1181.82 107.976 1181.74 107.892L1180.41 106.564V104.686C1180.41 104.568 1180.31 104.472 1180.19 104.472H1178.31L1176.99 103.143C1176.9 103.06 1176.77 103.06 1176.68 103.143L1175.35 104.472H1173.48C1173.36 104.472 1173.26 104.568 1173.26 104.686V106.564L1171.93 107.892C1171.85 107.976 1171.85 108.112 1171.93 108.196L1173.26 109.524V111.402Z" stroke="#EDEDED"/>
<path d="M1156.47 90.7357C1156.47 89.0488 1157.84 87.6813 1159.52 87.6813H1194.14C1195.83 87.6813 1197.2 89.0488 1197.2 90.7357V125.352C1197.2 127.039 1195.83 128.407 1194.14 128.407H1159.52C1157.84 128.407 1156.47 127.039 1156.47 125.352V90.7357Z" stroke="#EDEDED"/>
<path d="M1161.11 109.063C1160.52 108.467 1160.52 107.5 1161.11 106.903L1175.69 92.3247C1176.29 91.7283 1177.26 91.7283 1177.85 92.3247L1192.43 106.903C1193.03 107.5 1193.03 108.467 1192.43 109.063L1177.85 123.642C1177.26 124.238 1176.29 124.238 1175.69 123.642L1161.11 109.063Z" stroke="#EDEDED"/>
<path d="M1222.64 60.7442C1222.64 61.588 1223.32 62.2721 1224.17 62.2721H1237.56L1247.03 71.7397C1247.62 72.3364 1248.59 72.3364 1249.19 71.7397L1258.66 62.2721H1272.05C1272.89 62.2721 1273.57 61.588 1273.57 60.7442V47.3549L1283.04 37.8873C1283.64 37.2906 1283.64 36.3232 1283.04 35.7265L1273.57 26.2589V12.8697C1273.57 12.0258 1272.89 11.3418 1272.05 11.3418H1258.66L1249.19 1.87415C1248.59 1.27746 1247.62 1.27746 1247.03 1.87415L1237.56 11.3418H1224.17C1223.32 11.3418 1222.64 12.0258 1222.64 12.8697V26.2589L1213.17 35.7265C1212.57 36.3232 1212.57 37.2906 1213.17 37.8873L1222.64 47.355V60.7442Z" stroke="#EDEDED"/>
<path d="M1244.54 40.1488C1244.54 40.2671 1244.63 40.3631 1244.75 40.3631H1246.63L1247.96 41.6913C1248.04 41.775 1248.18 41.775 1248.26 41.6913L1249.59 40.3631H1251.47C1251.59 40.3631 1251.68 40.2671 1251.68 40.1488V38.2704L1253.01 36.9422C1253.1 36.8585 1253.1 36.7228 1253.01 36.6391L1251.68 35.3109V33.4326C1251.68 33.3142 1251.59 33.2182 1251.47 33.2182H1249.59L1248.26 31.89C1248.18 31.8063 1248.04 31.8063 1247.96 31.89L1246.63 33.2182H1244.75C1244.63 33.2182 1244.54 33.3142 1244.54 33.4326V35.3109L1243.21 36.6391C1243.13 36.7228 1243.13 36.8585 1243.21 36.9422L1244.54 38.2704V40.1488Z" stroke="#EDEDED"/>
<path d="M1227.75 19.4823C1227.75 17.7954 1229.11 16.4279 1230.8 16.4279H1265.42C1267.11 16.4279 1268.48 17.7954 1268.48 19.4823V54.099C1268.48 55.7859 1267.11 57.1534 1265.42 57.1534H1230.8C1229.11 57.1534 1227.75 55.7859 1227.75 54.099V19.4823Z" stroke="#EDEDED"/>
<path d="M1232.39 37.8097C1231.79 37.2133 1231.79 36.2463 1232.39 35.6499L1246.97 21.0713C1247.57 20.4749 1248.53 20.4749 1249.13 21.0713L1263.71 35.6499C1264.31 36.2463 1264.31 37.2133 1263.71 37.8097L1249.13 52.3883C1248.53 52.9847 1247.57 52.9847 1246.97 52.3883L1232.39 37.8097Z" stroke="#EDEDED"/>
<path d="M1222.64 131.998C1222.64 132.841 1223.32 133.525 1224.17 133.525H1237.56L1247.03 142.993C1247.62 143.59 1248.59 143.59 1249.19 142.993L1258.66 133.525H1272.05C1272.89 133.525 1273.57 132.841 1273.57 131.998V118.608L1283.04 109.141C1283.64 108.544 1283.64 107.577 1283.04 106.98L1273.57 97.5123V84.1231C1273.57 83.2792 1272.89 82.5952 1272.05 82.5952H1258.66L1249.19 73.1275C1248.59 72.5308 1247.62 72.5308 1247.03 73.1275L1237.56 82.5952H1224.17C1223.32 82.5952 1222.64 83.2792 1222.64 84.1231V97.5123L1213.17 106.98C1212.57 107.577 1212.57 108.544 1213.17 109.141L1222.64 118.608V131.998Z" stroke="#EDEDED"/>
<path d="M1244.54 111.402C1244.54 111.521 1244.63 111.616 1244.75 111.616H1246.63L1247.96 112.945C1248.04 113.028 1248.18 113.028 1248.26 112.945L1249.59 111.616H1251.47C1251.59 111.616 1251.68 111.521 1251.68 111.402V109.524L1253.01 108.196C1253.1 108.112 1253.1 107.976 1253.01 107.892L1251.68 106.564V104.686C1251.68 104.568 1251.59 104.472 1251.47 104.472H1249.59L1248.26 103.143C1248.18 103.06 1248.04 103.06 1247.96 103.143L1246.63 104.472H1244.75C1244.63 104.472 1244.54 104.568 1244.54 104.686V106.564L1243.21 107.892C1243.13 107.976 1243.13 108.112 1243.21 108.196L1244.54 109.524V111.402Z" stroke="#EDEDED"/>
<path d="M1227.75 90.7357C1227.75 89.0488 1229.11 87.6813 1230.8 87.6813H1265.42C1267.11 87.6813 1268.48 89.0488 1268.48 90.7357V125.352C1268.48 127.039 1267.11 128.407 1265.42 128.407H1230.8C1229.11 128.407 1227.75 127.039 1227.75 125.352V90.7357Z" stroke="#EDEDED"/>
<path d="M1232.39 109.063C1231.79 108.467 1231.79 107.5 1232.39 106.903L1246.97 92.3247C1247.57 91.7283 1248.53 91.7283 1249.13 92.3247L1263.71 106.903C1264.31 107.5 1264.31 108.467 1263.71 109.063L1249.13 123.642C1248.53 124.238 1247.57 124.238 1246.97 123.642L1232.39 109.063Z" stroke="#EDEDED"/>
<path d="M1294.93 60.7442C1294.93 61.588 1295.62 62.2721 1296.46 62.2721H1309.85L1319.32 71.7397C1319.92 72.3364 1320.89 72.3364 1321.48 71.7397L1330.95 62.2721H1344.34C1345.19 62.2721 1345.87 61.588 1345.87 60.7442V47.3549L1355.34 37.8873C1355.93 37.2906 1355.93 36.3232 1355.34 35.7265L1345.87 26.2589V12.8697C1345.87 12.0258 1345.19 11.3418 1344.34 11.3418H1330.95L1321.48 1.87415C1320.89 1.27746 1319.92 1.27746 1319.32 1.87415L1309.85 11.3418H1296.46C1295.62 11.3418 1294.93 12.0258 1294.93 12.8697V26.2589L1285.47 35.7265C1284.87 36.3232 1284.87 37.2906 1285.47 37.8873L1294.93 47.355V60.7442Z" stroke="#EDEDED"/>
<path d="M1316.83 40.1488C1316.83 40.2671 1316.93 40.3631 1317.05 40.3631H1318.93L1320.25 41.6913C1320.34 41.775 1320.47 41.775 1320.56 41.6913L1321.89 40.3631H1323.76C1323.88 40.3631 1323.98 40.2671 1323.98 40.1488V38.2704L1325.31 36.9422C1325.39 36.8585 1325.39 36.7228 1325.31 36.6391L1323.98 35.3109V33.4326C1323.98 33.3142 1323.88 33.2182 1323.76 33.2182H1321.89L1320.56 31.89C1320.47 31.8063 1320.34 31.8063 1320.25 31.89L1318.93 33.2182H1317.05C1316.93 33.2182 1316.83 33.3142 1316.83 33.4326V35.3109L1315.5 36.6391C1315.42 36.7228 1315.42 36.8585 1315.5 36.9422L1316.83 38.2704V40.1488Z" stroke="#EDEDED"/>
<path d="M1300.04 19.4823C1300.04 17.7954 1301.41 16.4279 1303.1 16.4279H1337.72C1339.4 16.4279 1340.77 17.7954 1340.77 19.4823V54.099C1340.77 55.7859 1339.4 57.1534 1337.72 57.1534H1303.1C1301.41 57.1534 1300.04 55.7859 1300.04 54.099V19.4823Z" stroke="#EDEDED"/>
<path d="M1304.68 37.8097C1304.09 37.2133 1304.09 36.2463 1304.68 35.6499L1319.26 21.0713C1319.86 20.4749 1320.83 20.4749 1321.42 21.0713L1336 35.6499C1336.6 36.2463 1336.6 37.2133 1336 37.8097L1321.42 52.3883C1320.83 52.9847 1319.86 52.9847 1319.26 52.3883L1304.68 37.8097Z" stroke="#EDEDED"/>
<path d="M1294.93 131.998C1294.93 132.841 1295.62 133.525 1296.46 133.525H1309.85L1319.32 142.993C1319.92 143.59 1320.89 143.59 1321.48 142.993L1330.95 133.525H1344.34C1345.19 133.525 1345.87 132.841 1345.87 131.998V118.608L1355.34 109.141C1355.93 108.544 1355.93 107.577 1355.34 106.98L1345.87 97.5123V84.1231C1345.87 83.2792 1345.19 82.5952 1344.34 82.5952H1330.95L1321.48 73.1275C1320.89 72.5308 1319.92 72.5308 1319.32 73.1275L1309.85 82.5952H1296.46C1295.62 82.5952 1294.93 83.2792 1294.93 84.1231V97.5123L1285.47 106.98C1284.87 107.577 1284.87 108.544 1285.47 109.141L1294.93 118.608V131.998Z" stroke="#EDEDED"/>
<path d="M1316.83 111.402C1316.83 111.521 1316.93 111.616 1317.05 111.616H1318.93L1320.25 112.945C1320.34 113.028 1320.47 113.028 1320.56 112.945L1321.89 111.616H1323.76C1323.88 111.616 1323.98 111.521 1323.98 111.402V109.524L1325.31 108.196C1325.39 108.112 1325.39 107.976 1325.31 107.892L1323.98 106.564V104.686C1323.98 104.568 1323.88 104.472 1323.76 104.472H1321.89L1320.56 103.143C1320.47 103.06 1320.34 103.06 1320.25 103.143L1318.93 104.472H1317.05C1316.93 104.472 1316.83 104.568 1316.83 104.686V106.564L1315.5 107.892C1315.42 107.976 1315.42 108.112 1315.5 108.196L1316.83 109.524V111.402Z" stroke="#EDEDED"/>
<path d="M1300.04 90.7357C1300.04 89.0488 1301.41 87.6813 1303.1 87.6813H1337.72C1339.4 87.6813 1340.77 89.0488 1340.77 90.7357V125.352C1340.77 127.039 1339.4 128.407 1337.72 128.407H1303.1C1301.41 128.407 1300.04 127.039 1300.04 125.352V90.7357Z" stroke="#EDEDED"/>
<path d="M1304.68 109.063C1304.09 108.467 1304.09 107.5 1304.68 106.903L1319.26 92.3247C1319.86 91.7283 1320.83 91.7283 1321.42 92.3247L1336 106.903C1336.6 107.5 1336.6 108.467 1336 109.063L1321.42 123.642C1320.83 124.238 1319.86 124.238 1319.26 123.642L1304.68 109.063Z" stroke="#EDEDED"/>
<path d="M1366.21 60.7442C1366.21 61.588 1366.9 62.2721 1367.74 62.2721H1381.13L1390.6 71.7397C1391.19 72.3364 1392.16 72.3364 1392.76 71.7397L1402.23 62.2721L1415.62 62.2721C1416.46 62.2721 1417.15 61.588 1417.15 60.7442V47.3549L1426.61 37.8873C1427.21 37.2906 1427.21 36.3232 1426.61 35.7265L1417.15 26.2589V12.8697C1417.15 12.0258 1416.46 11.3418 1415.62 11.3418H1402.23L1392.76 1.87415C1392.16 1.27746 1391.19 1.27746 1390.6 1.87415L1381.13 11.3418L1367.74 11.3418C1366.9 11.3418 1366.21 12.0258 1366.21 12.8697V26.2589L1356.74 35.7265C1356.15 36.3232 1356.15 37.2906 1356.74 37.8873L1366.21 47.355V60.7442Z" stroke="#EDEDED"/>
<path d="M1388.11 40.1488C1388.11 40.2671 1388.21 40.3631 1388.32 40.3631H1390.2L1391.53 41.6913C1391.61 41.775 1391.75 41.775 1391.83 41.6913L1393.16 40.3631H1395.04C1395.16 40.3631 1395.26 40.2671 1395.26 40.1488V38.2704L1396.58 36.9422C1396.67 36.8585 1396.67 36.7228 1396.58 36.6391L1395.26 35.3109V33.4326C1395.26 33.3142 1395.16 33.2182 1395.04 33.2182H1393.16L1391.83 31.89C1391.75 31.8063 1391.61 31.8063 1391.53 31.89L1390.2 33.2182H1388.32C1388.21 33.2182 1388.11 33.3142 1388.11 33.4326V35.3109L1386.78 36.6391C1386.7 36.7228 1386.7 36.8585 1386.78 36.9422L1388.11 38.2704V40.1488Z" stroke="#EDEDED"/>
<path d="M1371.32 19.4823C1371.32 17.7954 1372.69 16.4279 1374.37 16.4279L1408.99 16.4279C1410.68 16.4279 1412.05 17.7954 1412.05 19.4823V54.099C1412.05 55.7859 1410.68 57.1534 1408.99 57.1534L1374.37 57.1534C1372.69 57.1534 1371.32 55.7859 1371.32 54.099V19.4823Z" stroke="#EDEDED"/>
<path d="M1375.96 37.8097C1375.36 37.2133 1375.36 36.2463 1375.96 35.6499L1390.54 21.0713C1391.14 20.4749 1392.11 20.4749 1392.7 21.0713L1407.28 35.6499C1407.88 36.2463 1407.88 37.2133 1407.28 37.8097L1392.7 52.3883C1392.11 52.9847 1391.14 52.9847 1390.54 52.3883L1375.96 37.8097Z" stroke="#EDEDED"/>
<path d="M1366.21 131.998C1366.21 132.841 1366.9 133.525 1367.74 133.525H1381.13L1390.6 142.993C1391.19 143.59 1392.16 143.59 1392.76 142.993L1402.23 133.525H1415.62C1416.46 133.525 1417.15 132.841 1417.15 131.998V118.608L1426.61 109.141C1427.21 108.544 1427.21 107.577 1426.61 106.98L1417.15 97.5123V84.1231C1417.15 83.2792 1416.46 82.5952 1415.62 82.5952H1402.23L1392.76 73.1275C1392.16 72.5308 1391.19 72.5308 1390.6 73.1275L1381.13 82.5952H1367.74C1366.9 82.5952 1366.21 83.2792 1366.21 84.1231V97.5123L1356.74 106.98C1356.15 107.577 1356.15 108.544 1356.74 109.141L1366.21 118.608V131.998Z" stroke="#EDEDED"/>
<path d="M1388.11 111.402C1388.11 111.521 1388.21 111.616 1388.32 111.616H1390.2L1391.53 112.945C1391.61 113.028 1391.75 113.028 1391.83 112.945L1393.16 111.616H1395.04C1395.16 111.616 1395.26 111.521 1395.26 111.402V109.524L1396.58 108.196C1396.67 108.112 1396.67 107.976 1396.58 107.892L1395.26 106.564V104.686C1395.26 104.568 1395.16 104.472 1395.04 104.472H1393.16L1391.83 103.143C1391.75 103.06 1391.61 103.06 1391.53 103.143L1390.2 104.472H1388.32C1388.21 104.472 1388.11 104.568 1388.11 104.686V106.564L1386.78 107.892C1386.7 107.976 1386.7 108.112 1386.78 108.196L1388.11 109.524V111.402Z" stroke="#EDEDED"/>
<path d="M1371.32 90.7357C1371.32 89.0488 1372.69 87.6813 1374.37 87.6813H1408.99C1410.68 87.6813 1412.05 89.0488 1412.05 90.7357V125.352C1412.05 127.039 1410.68 128.407 1408.99 128.407H1374.37C1372.69 128.407 1371.32 127.039 1371.32 125.352V90.7357Z" stroke="#EDEDED"/>
<path d="M1375.96 109.063C1375.36 108.467 1375.36 107.5 1375.96 106.903L1390.54 92.3247C1391.14 91.7283 1392.11 91.7283 1392.7 92.3247L1407.28 106.903C1407.88 107.5 1407.88 108.467 1407.28 109.063L1392.7 123.642C1392.11 124.238 1391.14 124.238 1390.54 123.642L1375.96 109.063Z" stroke="#EDEDED"/>
<path d="M1437.49 60.7442C1437.49 61.588 1438.17 62.2721 1439.02 62.2721H1452.41L1461.87 71.7397C1462.47 72.3364 1463.44 72.3364 1464.04 71.7397L1473.5 62.2721H1486.9C1487.74 62.2721 1488.42 61.588 1488.42 60.7442V47.3549L1497.89 37.8873C1498.49 37.2906 1498.49 36.3232 1497.89 35.7265L1488.42 26.2589V12.8697C1488.42 12.0258 1487.74 11.3418 1486.9 11.3418H1473.5L1464.04 1.87415C1463.44 1.27746 1462.47 1.27746 1461.87 1.87415L1452.41 11.3418L1439.02 11.3418C1438.17 11.3418 1437.49 12.0258 1437.49 12.8697V26.2589L1428.02 35.7265C1427.42 36.3232 1427.42 37.2906 1428.02 37.8873L1437.49 47.355V60.7442Z" stroke="#EDEDED"/>
<path d="M1459.39 40.1488C1459.39 40.2671 1459.48 40.3631 1459.6 40.3631H1461.48L1462.81 41.6913C1462.89 41.775 1463.03 41.775 1463.11 41.6913L1464.44 40.3631H1466.32C1466.44 40.3631 1466.53 40.2671 1466.53 40.1488V38.2704L1467.86 36.9422C1467.94 36.8585 1467.94 36.7228 1467.86 36.6391L1466.53 35.3109V33.4326C1466.53 33.3142 1466.44 33.2182 1466.32 33.2182H1464.44L1463.11 31.89C1463.03 31.8063 1462.89 31.8063 1462.81 31.89L1461.48 33.2182H1459.6C1459.48 33.2182 1459.39 33.3142 1459.39 33.4326V35.3109L1458.06 36.6391C1457.97 36.7228 1457.97 36.8585 1458.06 36.9422L1459.39 38.2704V40.1488Z" stroke="#EDEDED"/>
<path d="M1442.59 19.4823C1442.59 17.7954 1443.96 16.4279 1445.65 16.4279H1480.27C1481.96 16.4279 1483.32 17.7954 1483.32 19.4823V54.099C1483.32 55.7859 1481.96 57.1534 1480.27 57.1534H1445.65C1443.96 57.1534 1442.59 55.7859 1442.59 54.099V19.4823Z" stroke="#EDEDED"/>
<path d="M1447.24 37.8097C1446.64 37.2133 1446.64 36.2463 1447.24 35.6499L1461.82 21.0713C1462.41 20.4749 1463.38 20.4749 1463.98 21.0713L1478.56 35.6499C1479.15 36.2463 1479.15 37.2133 1478.56 37.8097L1463.98 52.3883C1463.38 52.9847 1462.41 52.9847 1461.82 52.3883L1447.24 37.8097Z" stroke="#EDEDED"/>
<path d="M1437.49 131.998C1437.49 132.841 1438.17 133.525 1439.02 133.525H1452.41L1461.87 142.993C1462.47 143.59 1463.44 143.59 1464.04 142.993L1473.5 133.525H1486.9C1487.74 133.525 1488.42 132.841 1488.42 131.998V118.608L1497.89 109.141C1498.49 108.544 1498.49 107.577 1497.89 106.98L1488.42 97.5123V84.1231C1488.42 83.2792 1487.74 82.5952 1486.9 82.5952H1473.5L1464.04 73.1275C1463.44 72.5308 1462.47 72.5308 1461.87 73.1275L1452.41 82.5952H1439.02C1438.17 82.5952 1437.49 83.2792 1437.49 84.1231V97.5123L1428.02 106.98C1427.42 107.577 1427.42 108.544 1428.02 109.141L1437.49 118.608V131.998Z" stroke="#EDEDED"/>
<path d="M1459.39 111.402C1459.39 111.521 1459.48 111.616 1459.6 111.616H1461.48L1462.81 112.945C1462.89 113.028 1463.03 113.028 1463.11 112.945L1464.44 111.616H1466.32C1466.44 111.616 1466.53 111.521 1466.53 111.402V109.524L1467.86 108.196C1467.94 108.112 1467.94 107.976 1467.86 107.892L1466.53 106.564V104.686C1466.53 104.568 1466.44 104.472 1466.32 104.472H1464.44L1463.11 103.143C1463.03 103.06 1462.89 103.06 1462.81 103.143L1461.48 104.472H1459.6C1459.48 104.472 1459.39 104.568 1459.39 104.686V106.564L1458.06 107.892C1457.97 107.976 1457.97 108.112 1458.06 108.196L1459.39 109.524V111.402Z" stroke="#EDEDED"/>
<path d="M1442.59 90.7357C1442.59 89.0488 1443.96 87.6813 1445.65 87.6813H1480.27C1481.96 87.6813 1483.32 89.0488 1483.32 90.7357V125.352C1483.32 127.039 1481.96 128.407 1480.27 128.407H1445.65C1443.96 128.407 1442.59 127.039 1442.59 125.352V90.7357Z" stroke="#EDEDED"/>
<path d="M1447.24 109.063C1446.64 108.467 1446.64 107.5 1447.24 106.903L1461.82 92.3247C1462.41 91.7283 1463.38 91.7283 1463.98 92.3247L1478.56 106.903C1479.15 107.5 1479.15 108.467 1478.56 109.063L1463.98 123.642C1463.38 124.238 1462.41 124.238 1461.82 123.642L1447.24 109.063Z" stroke="#EDEDED"/>
<path d="M1508.76 60.7442C1508.76 61.588 1509.45 62.2721 1510.29 62.2721H1523.68L1533.15 71.7397C1533.75 72.3364 1534.72 72.3364 1535.31 71.7397L1544.78 62.2721H1558.17C1559.02 62.2721 1559.7 61.588 1559.7 60.7442V47.3549L1569.17 37.8873C1569.77 37.2906 1569.77 36.3232 1569.17 35.7265L1559.7 26.2589V12.8697C1559.7 12.0258 1559.02 11.3418 1558.17 11.3418H1544.78L1535.31 1.87415C1534.72 1.27746 1533.75 1.27746 1533.15 1.87415L1523.68 11.3418H1510.29C1509.45 11.3418 1508.76 12.0258 1508.76 12.8697V26.2589L1499.3 35.7265C1498.7 36.3232 1498.7 37.2906 1499.3 37.8873L1508.76 47.355V60.7442Z" stroke="#EDEDED"/>
<path d="M1530.66 40.1488C1530.66 40.2671 1530.76 40.3631 1530.88 40.3631H1532.76L1534.08 41.6913C1534.17 41.775 1534.3 41.775 1534.39 41.6913L1535.72 40.3631H1537.59C1537.71 40.3631 1537.81 40.2671 1537.81 40.1488V38.2704L1539.14 36.9422C1539.22 36.8585 1539.22 36.7228 1539.14 36.6391L1537.81 35.3109V33.4326C1537.81 33.3142 1537.71 33.2182 1537.59 33.2182H1535.72L1534.39 31.89C1534.3 31.8063 1534.17 31.8063 1534.08 31.89L1532.76 33.2182H1530.88C1530.76 33.2182 1530.66 33.3142 1530.66 33.4326V35.3109L1529.33 36.6391C1529.25 36.7228 1529.25 36.8585 1529.33 36.9422L1530.66 38.2704V40.1488Z" stroke="#EDEDED"/>
<path d="M1513.87 19.4823C1513.87 17.7954 1515.24 16.4279 1516.93 16.4279H1551.55C1553.23 16.4279 1554.6 17.7954 1554.6 19.4823V54.099C1554.6 55.7859 1553.23 57.1534 1551.55 57.1534H1516.93C1515.24 57.1534 1513.87 55.7859 1513.87 54.099V19.4823Z" stroke="#EDEDED"/>
<path d="M1518.51 37.8097C1517.92 37.2133 1517.92 36.2463 1518.51 35.6499L1533.1 21.0713C1533.69 20.4749 1534.66 20.4749 1535.26 21.0713L1549.84 35.6499C1550.43 36.2463 1550.43 37.2133 1549.84 37.8097L1535.26 52.3883C1534.66 52.9847 1533.69 52.9847 1533.1 52.3883L1518.51 37.8097Z" stroke="#EDEDED"/>
<path d="M1508.76 131.998C1508.76 132.841 1509.45 133.525 1510.29 133.525H1523.68L1533.15 142.993C1533.75 143.59 1534.72 143.59 1535.31 142.993L1544.78 133.525H1558.17C1559.02 133.525 1559.7 132.841 1559.7 131.998V118.608L1569.17 109.141C1569.77 108.544 1569.77 107.577 1569.17 106.98L1559.7 97.5123V84.1231C1559.7 83.2792 1559.02 82.5952 1558.17 82.5952H1544.78L1535.31 73.1275C1534.72 72.5308 1533.75 72.5308 1533.15 73.1275L1523.68 82.5952H1510.29C1509.45 82.5952 1508.76 83.2792 1508.76 84.1231V97.5123L1499.3 106.98C1498.7 107.577 1498.7 108.544 1499.3 109.141L1508.76 118.608V131.998Z" stroke="#EDEDED"/>
<path d="M1530.66 111.402C1530.66 111.521 1530.76 111.616 1530.88 111.616H1532.76L1534.08 112.945C1534.17 113.028 1534.3 113.028 1534.39 112.945L1535.72 111.616H1537.59C1537.71 111.616 1537.81 111.521 1537.81 111.402V109.524L1539.14 108.196C1539.22 108.112 1539.22 107.976 1539.14 107.892L1537.81 106.564V104.686C1537.81 104.568 1537.71 104.472 1537.59 104.472H1535.72L1534.39 103.143C1534.3 103.06 1534.17 103.06 1534.08 103.143L1532.76 104.472H1530.88C1530.76 104.472 1530.66 104.568 1530.66 104.686V106.564L1529.33 107.892C1529.25 107.976 1529.25 108.112 1529.33 108.196L1530.66 109.524V111.402Z" stroke="#EDEDED"/>
<path d="M1513.87 90.7357C1513.87 89.0488 1515.24 87.6813 1516.93 87.6813H1551.55C1553.23 87.6813 1554.6 89.0488 1554.6 90.7357V125.352C1554.6 127.039 1553.23 128.407 1551.55 128.407H1516.93C1515.24 128.407 1513.87 127.039 1513.87 125.352V90.7357Z" stroke="#EDEDED"/>
<path d="M1518.51 109.063C1517.92 108.467 1517.92 107.5 1518.51 106.903L1533.1 92.3247C1533.69 91.7283 1534.66 91.7283 1535.26 92.3247L1549.84 106.903C1550.43 107.5 1550.43 108.467 1549.84 109.063L1535.26 123.642C1534.66 124.238 1533.69 124.238 1533.1 123.642L1518.51 109.063Z" stroke="#EDEDED"/>
<path d="M1580.04 60.7442C1580.04 61.588 1580.73 62.2721 1581.57 62.2721H1594.96L1604.43 71.7397C1605.03 72.3364 1605.99 72.3364 1606.59 71.7397L1616.06 62.2721H1629.45C1630.29 62.2721 1630.98 61.588 1630.98 60.7442V47.3549L1640.45 37.8873C1641.04 37.2906 1641.04 36.3232 1640.45 35.7265L1630.98 26.2589V12.8697C1630.98 12.0258 1630.29 11.3418 1629.45 11.3418H1616.06L1606.59 1.87415C1605.99 1.27746 1605.03 1.27746 1604.43 1.87415L1594.96 11.3418H1581.57C1580.73 11.3418 1580.04 12.0258 1580.04 12.8697V26.2589L1570.57 35.7265C1569.98 36.3232 1569.98 37.2906 1570.57 37.8873L1580.04 47.355V60.7442Z" stroke="#EDEDED"/>
<path d="M1601.94 40.1488C1601.94 40.2671 1602.04 40.3631 1602.15 40.3631H1604.03L1605.36 41.6913C1605.44 41.775 1605.58 41.775 1605.66 41.6913L1606.99 40.3631H1608.87C1608.99 40.3631 1609.09 40.2671 1609.09 40.1488V38.2704L1610.41 36.9422C1610.5 36.8585 1610.5 36.7228 1610.41 36.6391L1609.09 35.3109V33.4326C1609.09 33.3142 1608.99 33.2182 1608.87 33.2182H1606.99L1605.66 31.89C1605.58 31.8063 1605.44 31.8063 1605.36 31.89L1604.03 33.2182H1602.15C1602.04 33.2182 1601.94 33.3142 1601.94 33.4326V35.3109L1600.61 36.6391C1600.53 36.7228 1600.53 36.8585 1600.61 36.9422L1601.94 38.2704V40.1488Z" stroke="#EDEDED"/>
<path d="M1585.15 19.4823C1585.15 17.7954 1586.52 16.4279 1588.2 16.4279H1622.82C1624.51 16.4279 1625.88 17.7954 1625.88 19.4823V54.099C1625.88 55.7859 1624.51 57.1534 1622.82 57.1534H1588.2C1586.52 57.1534 1585.15 55.7859 1585.15 54.099V19.4823Z" stroke="#EDEDED"/>
<path d="M1589.79 37.8097C1589.2 37.2133 1589.2 36.2463 1589.79 35.6499L1604.37 21.0713C1604.97 20.4749 1605.94 20.4749 1606.53 21.0713L1621.11 35.6499C1621.71 36.2463 1621.71 37.2133 1621.11 37.8097L1606.53 52.3883C1605.94 52.9847 1604.97 52.9847 1604.37 52.3883L1589.79 37.8097Z" stroke="#EDEDED"/>
<path d="M1580.04 131.998C1580.04 132.841 1580.73 133.525 1581.57 133.525H1594.96L1604.43 142.993C1605.03 143.59 1605.99 143.59 1606.59 142.993L1616.06 133.525H1629.45C1630.29 133.525 1630.98 132.841 1630.98 131.998V118.608L1640.45 109.141C1641.04 108.544 1641.04 107.577 1640.45 106.98L1630.98 97.5123V84.1231C1630.98 83.2792 1630.29 82.5952 1629.45 82.5952H1616.06L1606.59 73.1275C1605.99 72.5308 1605.03 72.5308 1604.43 73.1275L1594.96 82.5952H1581.57C1580.73 82.5952 1580.04 83.2792 1580.04 84.1231V97.5123L1570.57 106.98C1569.98 107.577 1569.98 108.544 1570.57 109.141L1580.04 118.608V131.998Z" stroke="#EDEDED"/>
<path d="M1601.94 111.402C1601.94 111.521 1602.04 111.616 1602.15 111.616H1604.03L1605.36 112.945C1605.44 113.028 1605.58 113.028 1605.66 112.945L1606.99 111.616H1608.87C1608.99 111.616 1609.09 111.521 1609.09 111.402V109.524L1610.41 108.196C1610.5 108.112 1610.5 107.976 1610.41 107.892L1609.09 106.564V104.686C1609.09 104.568 1608.99 104.472 1608.87 104.472H1606.99L1605.66 103.143C1605.58 103.06 1605.44 103.06 1605.36 103.143L1604.03 104.472H1602.15C1602.04 104.472 1601.94 104.568 1601.94 104.686V106.564L1600.61 107.892C1600.53 107.976 1600.53 108.112 1600.61 108.196L1601.94 109.524V111.402Z" stroke="#EDEDED"/>
<path d="M1585.15 90.7357C1585.15 89.0488 1586.52 87.6813 1588.2 87.6813H1622.82C1624.51 87.6813 1625.88 89.0488 1625.88 90.7357V125.352C1625.88 127.039 1624.51 128.407 1622.82 128.407H1588.2C1586.52 128.407 1585.15 127.039 1585.15 125.352V90.7357Z" stroke="#EDEDED"/>
<path d="M1589.79 109.063C1589.2 108.467 1589.2 107.5 1589.79 106.903L1604.37 92.3247C1604.97 91.7283 1605.94 91.7283 1606.53 92.3247L1621.11 106.903C1621.71 107.5 1621.71 108.467 1621.11 109.063L1606.53 123.642C1605.94 124.238 1604.97 124.238 1604.37 123.642L1589.79 109.063Z" stroke="#EDEDED"/>
<path d="M1651.32 60.7442C1651.32 61.588 1652 62.2721 1652.85 62.2721L1666.24 62.2721L1675.71 71.7397C1676.3 72.3364 1677.27 72.3364 1677.87 71.7397L1687.33 62.2721H1700.73C1701.57 62.2721 1702.25 61.588 1702.25 60.7442V47.3549L1711.72 37.8873C1712.32 37.2906 1712.32 36.3232 1711.72 35.7265L1702.25 26.2589V12.8697C1702.25 12.0258 1701.57 11.3418 1700.73 11.3418L1687.33 11.3418L1677.87 1.87415C1677.27 1.27746 1676.3 1.27746 1675.71 1.87415L1666.24 11.3418H1652.85C1652 11.3418 1651.32 12.0258 1651.32 12.8697V26.2589L1641.85 35.7265C1641.25 36.3232 1641.25 37.2906 1641.85 37.8873L1651.32 47.355V60.7442Z" stroke="#EDEDED"/>
<path d="M1673.22 40.1488C1673.22 40.2671 1673.31 40.3631 1673.43 40.3631H1675.31L1676.64 41.6913C1676.72 41.775 1676.86 41.775 1676.94 41.6913L1678.27 40.3631H1680.15C1680.27 40.3631 1680.36 40.2671 1680.36 40.1488V38.2704L1681.69 36.9422C1681.77 36.8585 1681.77 36.7228 1681.69 36.6391L1680.36 35.3109V33.4326C1680.36 33.3142 1680.27 33.2182 1680.15 33.2182H1678.27L1676.94 31.89C1676.86 31.8063 1676.72 31.8063 1676.64 31.89L1675.31 33.2182H1673.43C1673.31 33.2182 1673.22 33.3142 1673.22 33.4326V35.3109L1671.89 36.6391C1671.8 36.7228 1671.8 36.8585 1671.89 36.9422L1673.22 38.2704V40.1488Z" stroke="#EDEDED"/>
<path d="M1656.42 19.4823C1656.42 17.7954 1657.79 16.4279 1659.48 16.4279H1694.1C1695.79 16.4279 1697.15 17.7954 1697.15 19.4823V54.099C1697.15 55.7859 1695.79 57.1534 1694.1 57.1534L1659.48 57.1534C1657.79 57.1534 1656.42 55.7859 1656.42 54.099V19.4823Z" stroke="#EDEDED"/>
<path d="M1661.07 37.8097C1660.47 37.2133 1660.47 36.2463 1661.07 35.6499L1675.65 21.0713C1676.25 20.4749 1677.21 20.4749 1677.81 21.0713L1692.39 35.6499C1692.99 36.2463 1692.99 37.2133 1692.39 37.8097L1677.81 52.3883C1677.21 52.9847 1676.25 52.9847 1675.65 52.3883L1661.07 37.8097Z" stroke="#EDEDED"/>
<path d="M1651.32 131.998C1651.32 132.841 1652 133.525 1652.85 133.525H1666.24L1675.71 142.993C1676.3 143.59 1677.27 143.59 1677.87 142.993L1687.33 133.525H1700.73C1701.57 133.525 1702.25 132.841 1702.25 131.998V118.608L1711.72 109.141C1712.32 108.544 1712.32 107.577 1711.72 106.98L1702.25 97.5123V84.1231C1702.25 83.2792 1701.57 82.5952 1700.73 82.5952H1687.33L1677.87 73.1275C1677.27 72.5308 1676.3 72.5308 1675.71 73.1275L1666.24 82.5952H1652.85C1652 82.5952 1651.32 83.2792 1651.32 84.1231V97.5123L1641.85 106.98C1641.25 107.577 1641.25 108.544 1641.85 109.141L1651.32 118.608V131.998Z" stroke="#EDEDED"/>
<path d="M1673.22 111.402C1673.22 111.521 1673.31 111.616 1673.43 111.616H1675.31L1676.64 112.945C1676.72 113.028 1676.86 113.028 1676.94 112.945L1678.27 111.616H1680.15C1680.27 111.616 1680.36 111.521 1680.36 111.402V109.524L1681.69 108.196C1681.77 108.112 1681.77 107.976 1681.69 107.892L1680.36 106.564V104.686C1680.36 104.568 1680.27 104.472 1680.15 104.472H1678.27L1676.94 103.143C1676.86 103.06 1676.72 103.06 1676.64 103.143L1675.31 104.472H1673.43C1673.31 104.472 1673.22 104.568 1673.22 104.686V106.564L1671.89 107.892C1671.8 107.976 1671.8 108.112 1671.89 108.196L1673.22 109.524V111.402Z" stroke="#EDEDED"/>
<path d="M1656.42 90.7357C1656.42 89.0488 1657.79 87.6813 1659.48 87.6813H1694.1C1695.79 87.6813 1697.15 89.0488 1697.15 90.7357V125.352C1697.15 127.039 1695.79 128.407 1694.1 128.407H1659.48C1657.79 128.407 1656.42 127.039 1656.42 125.352V90.7357Z" stroke="#EDEDED"/>
<path d="M1661.07 109.063C1660.47 108.467 1660.47 107.5 1661.07 106.903L1675.65 92.3247C1676.25 91.7283 1677.21 91.7283 1677.81 92.3247L1692.39 106.903C1692.99 107.5 1692.99 108.467 1692.39 109.063L1677.81 123.642C1677.21 124.238 1676.25 124.238 1675.65 123.642L1661.07 109.063Z" stroke="#EDEDED"/>
<path d="M1722.59 60.7442C1722.59 61.588 1723.28 62.2721 1724.12 62.2721H1737.51L1746.98 71.7397C1747.58 72.3364 1748.55 72.3364 1749.14 71.7397L1758.61 62.2721H1772C1772.85 62.2721 1773.53 61.588 1773.53 60.7442V47.3549L1783 37.8873C1783.6 37.2906 1783.6 36.3232 1783 35.7265L1773.53 26.2589V12.8697C1773.53 12.0258 1772.85 11.3418 1772 11.3418L1758.61 11.3418L1749.14 1.87415C1748.55 1.27746 1747.58 1.27746 1746.98 1.87415L1737.51 11.3418H1724.12C1723.28 11.3418 1722.59 12.0258 1722.59 12.8697V26.2589L1713.13 35.7265C1712.53 36.3232 1712.53 37.2906 1713.13 37.8873L1722.59 47.355V60.7442Z" stroke="#EDEDED"/>
<path d="M1744.49 40.1488C1744.49 40.2671 1744.59 40.3631 1744.71 40.3631H1746.59L1747.91 41.6913C1748 41.775 1748.13 41.775 1748.22 41.6913L1749.55 40.3631H1751.42C1751.54 40.3631 1751.64 40.2671 1751.64 40.1488V38.2704L1752.97 36.9422C1753.05 36.8585 1753.05 36.7228 1752.97 36.6391L1751.64 35.3109V33.4326C1751.64 33.3142 1751.54 33.2182 1751.42 33.2182H1749.55L1748.22 31.89C1748.13 31.8063 1748 31.8063 1747.91 31.89L1746.59 33.2182H1744.71C1744.59 33.2182 1744.49 33.3142 1744.49 33.4326V35.3109L1743.17 36.6391C1743.08 36.7228 1743.08 36.8585 1743.17 36.9422L1744.49 38.2704V40.1488Z" stroke="#EDEDED"/>
<path d="M1727.7 19.4823C1727.7 17.7954 1729.07 16.4279 1730.76 16.4279H1765.38C1767.06 16.4279 1768.43 17.7954 1768.43 19.4823V54.099C1768.43 55.7859 1767.06 57.1534 1765.38 57.1534H1730.76C1729.07 57.1534 1727.7 55.7859 1727.7 54.099V19.4823Z" stroke="#EDEDED"/>
<path d="M1732.35 37.8097C1731.75 37.2133 1731.75 36.2463 1732.35 35.6499L1746.93 21.0713C1747.52 20.4749 1748.49 20.4749 1749.09 21.0713L1763.67 35.6499C1764.26 36.2463 1764.26 37.2133 1763.67 37.8097L1749.09 52.3883C1748.49 52.9847 1747.52 52.9847 1746.93 52.3883L1732.35 37.8097Z" stroke="#EDEDED"/>
<path d="M1722.59 131.998C1722.59 132.841 1723.28 133.525 1724.12 133.525H1737.51L1746.98 142.993C1747.58 143.59 1748.55 143.59 1749.14 142.993L1758.61 133.525H1772C1772.85 133.525 1773.53 132.841 1773.53 131.998V118.608L1783 109.141C1783.6 108.544 1783.6 107.577 1783 106.98L1773.53 97.5123V84.1231C1773.53 83.2792 1772.85 82.5952 1772 82.5952H1758.61L1749.14 73.1275C1748.55 72.5308 1747.58 72.5308 1746.98 73.1275L1737.51 82.5952H1724.12C1723.28 82.5952 1722.59 83.2792 1722.59 84.1231V97.5123L1713.13 106.98C1712.53 107.577 1712.53 108.544 1713.13 109.141L1722.59 118.608V131.998Z" stroke="#EDEDED"/>
<path d="M1744.49 111.402C1744.49 111.521 1744.59 111.616 1744.71 111.616H1746.59L1747.91 112.945C1748 113.028 1748.13 113.028 1748.22 112.945L1749.55 111.616H1751.42C1751.54 111.616 1751.64 111.521 1751.64 111.402V109.524L1752.97 108.196C1753.05 108.112 1753.05 107.976 1752.97 107.892L1751.64 106.564V104.686C1751.64 104.568 1751.54 104.472 1751.42 104.472H1749.55L1748.22 103.143C1748.13 103.06 1748 103.06 1747.91 103.143L1746.59 104.472H1744.71C1744.59 104.472 1744.49 104.568 1744.49 104.686V106.564L1743.17 107.892C1743.08 107.976 1743.08 108.112 1743.17 108.196L1744.49 109.524V111.402Z" stroke="#EDEDED"/>
<path d="M1727.7 90.7357C1727.7 89.0488 1729.07 87.6813 1730.76 87.6813H1765.38C1767.06 87.6813 1768.43 89.0488 1768.43 90.7357V125.352C1768.43 127.039 1767.06 128.407 1765.38 128.407H1730.76C1729.07 128.407 1727.7 127.039 1727.7 125.352V90.7357Z" stroke="#EDEDED"/>
<path d="M1732.35 109.063C1731.75 108.467 1731.75 107.5 1732.35 106.903L1746.93 92.3247C1747.52 91.7283 1748.49 91.7283 1749.09 92.3247L1763.67 106.903C1764.26 107.5 1764.26 108.467 1763.67 109.063L1749.09 123.642C1748.49 124.238 1747.52 124.238 1746.93 123.642L1732.35 109.063Z" stroke="#EDEDED"/>
<path d="M1793.87 60.7442C1793.87 61.588 1794.56 62.2721 1795.4 62.2721H1808.79L1818.26 71.7397C1818.86 72.3364 1819.82 72.3364 1820.42 71.7397L1829.89 62.2721H1843.28C1844.12 62.2721 1844.81 61.588 1844.81 60.7442V47.3549L1854.28 37.8873C1854.87 37.2906 1854.87 36.3232 1854.28 35.7265L1844.81 26.2589V12.8697C1844.81 12.0258 1844.12 11.3418 1843.28 11.3418H1829.89L1820.42 1.87415C1819.82 1.27746 1818.86 1.27746 1818.26 1.87415L1808.79 11.3418H1795.4C1794.56 11.3418 1793.87 12.0258 1793.87 12.8697V26.2589L1784.4 35.7265C1783.81 36.3232 1783.81 37.2906 1784.4 37.8873L1793.87 47.355V60.7442Z" stroke="#EDEDED"/>
<path d="M1815.77 40.1488C1815.77 40.2671 1815.87 40.3631 1815.98 40.3631H1817.86L1819.19 41.6913C1819.28 41.775 1819.41 41.775 1819.49 41.6913L1820.82 40.3631H1822.7C1822.82 40.3631 1822.92 40.2671 1822.92 40.1488V38.2704L1824.24 36.9422C1824.33 36.8585 1824.33 36.7228 1824.24 36.6391L1822.92 35.3109V33.4326C1822.92 33.3142 1822.82 33.2182 1822.7 33.2182H1820.82L1819.49 31.89C1819.41 31.8063 1819.28 31.8063 1819.19 31.89L1817.86 33.2182H1815.98C1815.87 33.2182 1815.77 33.3142 1815.77 33.4326V35.3109L1814.44 36.6391C1814.36 36.7228 1814.36 36.8585 1814.44 36.9422L1815.77 38.2704V40.1488Z" stroke="#EDEDED"/>
<path d="M1798.98 19.4823C1798.98 17.7954 1800.35 16.4279 1802.03 16.4279H1836.65C1838.34 16.4279 1839.71 17.7954 1839.71 19.4823V54.099C1839.71 55.7859 1838.34 57.1534 1836.65 57.1534H1802.03C1800.35 57.1534 1798.98 55.7859 1798.98 54.099V19.4823Z" stroke="#EDEDED"/>
<path d="M1803.62 37.8097C1803.03 37.2133 1803.03 36.2463 1803.62 35.6499L1818.2 21.0713C1818.8 20.4749 1819.77 20.4749 1820.36 21.0713L1834.94 35.6499C1835.54 36.2463 1835.54 37.2133 1834.94 37.8097L1820.36 52.3883C1819.77 52.9847 1818.8 52.9847 1818.2 52.3883L1803.62 37.8097Z" stroke="#EDEDED"/>
<path d="M1793.87 131.998C1793.87 132.841 1794.56 133.525 1795.4 133.525H1808.79L1818.26 142.993C1818.86 143.59 1819.82 143.59 1820.42 142.993L1829.89 133.525H1843.28C1844.12 133.525 1844.81 132.841 1844.81 131.998V118.608L1854.28 109.141C1854.87 108.544 1854.87 107.577 1854.28 106.98L1844.81 97.5123V84.1231C1844.81 83.2792 1844.12 82.5952 1843.28 82.5952H1829.89L1820.42 73.1275C1819.82 72.5308 1818.86 72.5308 1818.26 73.1275L1808.79 82.5952H1795.4C1794.56 82.5952 1793.87 83.2792 1793.87 84.1231V97.5123L1784.4 106.98C1783.81 107.577 1783.81 108.544 1784.4 109.141L1793.87 118.608V131.998Z" stroke="#EDEDED"/>
<path d="M1815.77 111.402C1815.77 111.521 1815.87 111.616 1815.98 111.616H1817.86L1819.19 112.945C1819.28 113.028 1819.41 113.028 1819.49 112.945L1820.82 111.616H1822.7C1822.82 111.616 1822.92 111.521 1822.92 111.402V109.524L1824.24 108.196C1824.33 108.112 1824.33 107.976 1824.24 107.892L1822.92 106.564V104.686C1822.92 104.568 1822.82 104.472 1822.7 104.472H1820.82L1819.49 103.143C1819.41 103.06 1819.28 103.06 1819.19 103.143L1817.86 104.472H1815.98C1815.87 104.472 1815.77 104.568 1815.77 104.686V106.564L1814.44 107.892C1814.36 107.976 1814.36 108.112 1814.44 108.196L1815.77 109.524V111.402Z" stroke="#EDEDED"/>
<path d="M1798.98 90.7357C1798.98 89.0488 1800.35 87.6813 1802.03 87.6813H1836.65C1838.34 87.6813 1839.71 89.0488 1839.71 90.7357V125.352C1839.71 127.039 1838.34 128.407 1836.65 128.407H1802.03C1800.35 128.407 1798.98 127.039 1798.98 125.352V90.7357Z" stroke="#EDEDED"/>
<path d="M1803.62 109.063C1803.03 108.467 1803.03 107.5 1803.62 106.903L1818.2 92.3247C1818.8 91.7283 1819.77 91.7283 1820.36 92.3247L1834.94 106.903C1835.54 107.5 1835.54 108.467 1834.94 109.063L1820.36 123.642C1819.77 124.238 1818.8 124.238 1818.2 123.642L1803.62 109.063Z" stroke="#EDEDED"/>
<path d="M1865.15 60.7442C1865.15 61.588 1865.83 62.2721 1866.68 62.2721H1880.07L1889.54 71.7397C1890.13 72.3364 1891.1 72.3364 1891.7 71.7397L1901.17 62.2721H1914.56C1915.4 62.2721 1916.08 61.588 1916.08 60.7442V47.3549L1925.55 37.8873C1926.15 37.2906 1926.15 36.3232 1925.55 35.7265L1916.08 26.2589V12.8697C1916.08 12.0258 1915.4 11.3418 1914.56 11.3418H1901.17L1891.7 1.87415C1891.1 1.27746 1890.13 1.27746 1889.54 1.87415L1880.07 11.3418H1866.68C1865.83 11.3418 1865.15 12.0258 1865.15 12.8697V26.2589L1855.68 35.7265C1855.08 36.3232 1855.08 37.2906 1855.68 37.8873L1865.15 47.355V60.7442Z" stroke="#EDEDED"/>
<path d="M1887.05 40.1488C1887.05 40.2671 1887.14 40.3631 1887.26 40.3631H1889.14L1890.47 41.6913C1890.55 41.775 1890.69 41.775 1890.77 41.6913L1892.1 40.3631H1893.98C1894.1 40.3631 1894.19 40.2671 1894.19 40.1488V38.2704L1895.52 36.9422C1895.6 36.8585 1895.6 36.7228 1895.52 36.6391L1894.19 35.3109V33.4326C1894.19 33.3142 1894.1 33.2182 1893.98 33.2182H1892.1L1890.77 31.89C1890.69 31.8063 1890.55 31.8063 1890.47 31.89L1889.14 33.2182H1887.26C1887.14 33.2182 1887.05 33.3142 1887.05 33.4326V35.3109L1885.72 36.6391C1885.63 36.7228 1885.63 36.8585 1885.72 36.9422L1887.05 38.2704V40.1488Z" stroke="#EDEDED"/>
<path d="M1870.26 19.4823C1870.26 17.7954 1871.62 16.4279 1873.31 16.4279L1907.93 16.4279C1909.62 16.4279 1910.98 17.7954 1910.98 19.4823V54.099C1910.98 55.7859 1909.62 57.1534 1907.93 57.1534H1873.31C1871.62 57.1534 1870.26 55.7859 1870.26 54.099V19.4823Z" stroke="#EDEDED"/>
<path d="M1874.9 37.8097C1874.3 37.2133 1874.3 36.2463 1874.9 35.6499L1889.48 21.0713C1890.08 20.4749 1891.04 20.4749 1891.64 21.0713L1906.22 35.6499C1906.82 36.2463 1906.82 37.2133 1906.22 37.8097L1891.64 52.3883C1891.04 52.9847 1890.08 52.9847 1889.48 52.3883L1874.9 37.8097Z" stroke="#EDEDED"/>
<path d="M1865.15 131.998C1865.15 132.841 1865.83 133.525 1866.68 133.525H1880.07L1889.54 142.993C1890.13 143.59 1891.1 143.59 1891.7 142.993L1901.17 133.525H1914.56C1915.4 133.525 1916.08 132.841 1916.08 131.998V118.608L1925.55 109.141C1926.15 108.544 1926.15 107.577 1925.55 106.98L1916.08 97.5123V84.1231C1916.08 83.2792 1915.4 82.5952 1914.56 82.5952H1901.17L1891.7 73.1275C1891.1 72.5308 1890.13 72.5308 1889.54 73.1275L1880.07 82.5952H1866.68C1865.83 82.5952 1865.15 83.2792 1865.15 84.1231V97.5123L1855.68 106.98C1855.08 107.577 1855.08 108.544 1855.68 109.141L1865.15 118.608V131.998Z" stroke="#EDEDED"/>
<path d="M1887.05 111.402C1887.05 111.521 1887.14 111.616 1887.26 111.616H1889.14L1890.47 112.945C1890.55 113.028 1890.69 113.028 1890.77 112.945L1892.1 111.616H1893.98C1894.1 111.616 1894.19 111.521 1894.19 111.402V109.524L1895.52 108.196C1895.6 108.112 1895.6 107.976 1895.52 107.892L1894.19 106.564V104.686C1894.19 104.568 1894.1 104.472 1893.98 104.472H1892.1L1890.77 103.143C1890.69 103.06 1890.55 103.06 1890.47 103.143L1889.14 104.472H1887.26C1887.14 104.472 1887.05 104.568 1887.05 104.686V106.564L1885.72 107.892C1885.63 107.976 1885.63 108.112 1885.72 108.196L1887.05 109.524V111.402Z" stroke="#EDEDED"/>
<path d="M1870.26 90.7357C1870.26 89.0488 1871.62 87.6813 1873.31 87.6813H1907.93C1909.62 87.6813 1910.98 89.0488 1910.98 90.7357V125.352C1910.98 127.039 1909.62 128.407 1907.93 128.407H1873.31C1871.62 128.407 1870.26 127.039 1870.26 125.352V90.7357Z" stroke="#EDEDED"/>
<path d="M1874.9 109.063C1874.3 108.467 1874.3 107.5 1874.9 106.903L1889.48 92.3247C1890.08 91.7283 1891.04 91.7283 1891.64 92.3247L1906.22 106.903C1906.82 107.5 1906.82 108.467 1906.22 109.063L1891.64 123.642C1891.04 124.238 1890.08 124.238 1889.48 123.642L1874.9 109.063Z" stroke="#EDEDED"/>
</svg>
